<svg id="Layer_1" enable-background="new 0 0 512 512" height="512" viewBox="0 0 512 512" width="512" xmlns="http://www.w3.org/2000/svg"><g><g><g><path d="m436.848 504.5h-361.696c-16.569 0-30-13.431-30-30v-437c0-16.569 13.431-30 30-30h361.696c16.569 0 30 13.431 30 30v437c0 16.569-13.431 30-30 30z" fill="#506d90"/><path d="m436.848 7.5h-30c16.569 0 30 13.431 30 30v437c0 16.569-13.431 30-30 30h30c16.569 0 30-13.431 30-30v-437c0-16.569-13.431-30-30-30z" fill="#455f7e"/><path d="m75.152 422.5v-378c0-3.866 3.134-7 7-7h347.696c3.866 0 7 3.134 7 7v378c0 3.866-3.134 7-7 7h-347.696c-3.866 0-7-3.134-7-7z" fill="#ecf5ff"/><path d="m429.848 37.5h-30c3.866 0 7 3.134 7 7v378c0 3.866-3.134 7-7 7h30c3.866 0 7-3.134 7-7v-378c0-3.866-3.134-7-7-7z" fill="#dbeafd"/></g></g><path d="m195.153 96.899h-13.012c-4.142 0-7.5 3.358-7.5 7.5v44.797c-.022 4.065 3.422 7.521 7.5 7.5h.033c.001 0 11.957-.053 15.252-.053 10.784 0 19.558-8.774 19.558-19.558 0-5.552-2.337-10.56-6.066-14.124 1.299-2.47 2.043-5.275 2.043-8.254 0-9.819-7.989-17.808-17.808-17.808zm-5.512 15h5.512c1.548 0 2.808 1.26 2.808 2.808 0 3.952-5.257 2.587-8.32 2.82zm7.785 29.744c-1.477 0-4.685.011-7.785.022v-9.136c.258-.001.515-.002.769-.003h7.016c2.513 0 4.558 2.045 4.558 4.558s-2.045 4.559-4.558 4.559zm90.89 317.857h-64.632c-4.142 0-7.5 3.358-7.5 7.5s3.358 7.5 7.5 7.5h64.632c4.142 0 7.5-3.358 7.5-7.5s-3.358-7.5-7.5-7.5zm141.532-429.5h-347.696c-7.995 0-14.5 6.505-14.5 14.5v70.002c0 4.142 3.358 7.5 7.5 7.5s7.5-3.358 7.5-7.5v-69.502h346.696v377h-346.696v-272.498c0-4.142-3.358-7.5-7.5-7.5s-7.5 3.358-7.5 7.5v272.998c0 7.995 6.505 14.5 14.5 14.5h347.696c7.995 0 14.5-6.505 14.5-14.5v-378c0-7.995-6.505-14.5-14.5-14.5zm-271.268 104.502c4.142 0 7.5-3.358 7.5-7.5s-3.358-7.5-7.5-7.5h-15.881c-4.142 0-7.5 3.358-7.5 7.5s3.358 7.5 7.5 7.5zm129.708-7.705c0-16.486-13.413-29.898-29.898-29.898-16.486 0-29.899 13.413-29.899 29.898 0 16.486 13.413 29.899 29.899 29.899 16.485 0 29.898-13.412 29.898-29.899zm-44.798 0c0-8.215 6.684-14.898 14.899-14.898s14.898 6.684 14.898 14.898c0 8.215-6.684 14.899-14.898 14.899-8.215 0-14.899-6.683-14.899-14.899zm-130.838 77.703c0 4.142 3.358 7.5 7.5 7.5h271.696c4.142 0 7.5-3.358 7.5-7.5s-3.358-7.5-7.5-7.5h-271.696c-4.142 0-7.5 3.358-7.5 7.5zm7.5 142.5h186.098c4.142 0 7.5-3.358 7.5-7.5s-3.358-7.5-7.5-7.5h-186.098c-4.142 0-7.5 3.358-7.5 7.5s3.358 7.5 7.5 7.5zm271.696-60h-271.696c-4.142 0-7.5 3.358-7.5 7.5s3.358 7.5 7.5 7.5h271.696c4.142 0 7.5-3.358 7.5-7.5s-3.358-7.5-7.5-7.5zm-29.194-160.203c0-16.486-13.413-29.898-29.899-29.898s-29.899 13.413-29.899 29.898c0 16.486 13.413 29.899 29.899 29.899s29.899-13.412 29.899-29.899zm-44.798 0c0-8.215 6.684-14.898 14.899-14.898s14.899 6.684 14.899 14.898c0 8.215-6.684 14.899-14.899 14.899s-14.899-6.683-14.899-14.899zm-196.821-14.489c4.142 0 7.5-3.358 7.5-7.5s-3.358-7.5-7.5-7.5h-18.704c-4.142 0-7.5 3.358-7.5 7.5v44.388c0 4.142 3.358 7.5 7.5 7.5h18.704c4.142 0 7.5-3.358 7.5-7.5s-3.358-7.5-7.5-7.5h-11.204v-7.194h9.825c4.142 0 7.5-3.358 7.5-7.5s-3.358-7.5-7.5-7.5h-9.825v-7.194zm315.813-112.308h-361.696c-20.678 0-37.5 16.822-37.5 37.5v437c0 20.678 16.822 37.5 37.5 37.5h361.696c20.678 0 37.5-16.822 37.5-37.5v-437c0-20.678-16.822-37.5-37.5-37.5zm22.5 474.5c0 12.407-10.093 22.5-22.5 22.5h-361.696c-12.407 0-22.5-10.093-22.5-22.5v-437c0-12.407 10.093-22.5 22.5-22.5h361.696c12.407 0 22.5 10.093 22.5 22.5zm-67.5-232.5h-271.696c-4.142 0-7.5 3.358-7.5 7.5s3.358 7.5 7.5 7.5h271.696c4.142 0 7.5-3.358 7.5-7.5s-3.358-7.5-7.5-7.5zm0 90h-50.598c-4.142 0-7.5 3.358-7.5 7.5s3.358 7.5 7.5 7.5h50.598c4.142 0 7.5-3.358 7.5-7.5s-3.358-7.5-7.5-7.5zm-7.868-235.101c-4.142 0-7.5 3.358-7.5 7.5v44.797c0 4.142 3.358 7.5 7.5 7.5s7.5-3.358 7.5-7.5v-7.126l12.98 12.523c2.978 2.873 7.726 2.794 10.605-.19 2.876-2.981 2.791-7.729-.19-10.605l-18.523-17.87 16.8-15.442c3.05-2.803 3.25-7.548.447-10.597-2.803-3.05-7.548-3.25-10.597-.447l-11.522 10.591v-5.635c0-4.141-3.357-7.499-7.5-7.499zm-263.828 295.101h271.696c4.142 0 7.5-3.358 7.5-7.5s-3.358-7.5-7.5-7.5h-271.696c-4.142 0-7.5 3.358-7.5 7.5s3.358 7.5 7.5 7.5z"/></g></svg>