<svg id="Layer_1" enable-background="new 0 0 512 512" height="512" viewBox="0 0 512 512" width="512" xmlns="http://www.w3.org/2000/svg"><g><g><g><g><path d="m474.5 392.962h-437c-16.569 0-30-13.431-30-30v-282.417c0-16.569 13.431-30 30-30h437c16.569 0 30 13.431 30 30v282.417c0 16.568-13.431 30-30 30z" fill="#506d90"/><path d="m474.5 50.545h-30c16.569 0 30 13.431 30 30v282.417c0 16.569-13.431 30-30 30h30c16.569 0 30-13.431 30-30v-282.417c0-16.569-13.431-30-30-30z" fill="#455f7e"/><path d="m37.5 343.962v-259.417c0-2.209 1.791-4 4-4h429c2.209 0 4 1.791 4 4v259.417c0 2.209-1.791 4-4 4h-429c-2.209 0-4-1.791-4-4z" fill="#ecf5ff"/><path d="m37.5 343.962v-259.417c0-2.209 1.791-4 4-4h429c2.209 0 4 1.791 4 4v259.417c0 2.209-1.791 4-4 4h-429c-2.209 0-4-1.791-4-4z" fill="#ecf5ff"/><path d="m470.5 80.545h-30c2.209 0 4 1.791 4 4v259.417c0 2.209-1.791 4-4 4h30c2.209 0 4-1.791 4-4v-259.417c0-2.21-1.791-4-4-4z" fill="#dbeafd"/><path d="m305.543 504.5h-99.086l15-111.538h69.086z" fill="#455f7e"/><path d="m290.543 392.962h-30l15 111.538h30z" fill="#405972"/><path d="m320.895 456.277 10.563 38.085c1.414 5.097-2.42 10.138-7.709 10.138h-135.497c-5.289 0-9.123-5.041-7.709-10.138l10.563-38.085c.961-3.464 4.114-5.862 7.709-5.862h114.372c3.594 0 6.747 2.397 7.708 5.862z" fill="#506d90"/><path d="m331.458 494.362-10.563-38.085c-.961-3.464-4.114-5.862-7.709-5.862h-30c3.595 0 6.748 2.398 7.709 5.862l10.563 38.085c1.414 5.097-2.42 10.138-7.709 10.138h30c5.289 0 9.122-5.041 7.709-10.138z" fill="#455f7e"/></g><path d="m97.01 67.5h317.98v280.462h-317.98z" fill="#fff"/><path d="m384.99 67.5h30v280.462h-30z" fill="#efeaf4"/><path d="m387.99 7.5h-278.98c-6.627 0-12 5.373-12 12v48h317.98l-15-48c0-6.627-5.373-12-12-12z" fill="#455f7e"/><path d="m402.99 7.5h-30c6.627 0 12 5.373 12 12v48h30v-48c0-6.627-5.373-12-12-12z" fill="#405972"/><g><g><path d="m256 282.731 101-14v-129c0-3.866-3.134-7-7-7h-74c-11.046 0-20 8.954-20 20z" fill="#f3cfbb"/><path d="m357 252.731h-71c-16.569 0-30 13.431-30 30h94c3.866 0 7-3.134 7-7z" fill="#f0c3aa"/></g><g><path d="m256 282.731-101-14v-129c0-3.866 3.134-7 7-7h74c11.046 0 20 8.954 20 20z" fill="#f5dacb"/><path d="m155 252.731h71c16.569 0 30 13.431 30 30h-94c-3.866 0-7-3.134-7-7z" fill="#f3cfbb"/></g></g></g></g><path d="m187.01 30c-4.142 0-7.5 3.358-7.5 7.5s3.358 7.5 7.5 7.5 7.5-3.358 7.5-7.5-3.358-7.5-7.5-7.5zm287.49 13.04h-52.01v-23.54c0-10.752-8.748-19.5-19.5-19.5h-293.98c-10.752 0-19.5 8.748-19.5 19.5v23.54h-52.01c-20.678 0-37.5 16.822-37.5 37.5v282.42c0 20.678 16.822 37.5 37.5 37.5h175.383l-5.712 42.455h-8.357c-6.939 0-13.081 4.67-14.936 11.357l-10.563 38.085c-1.306 4.707-.358 9.637 2.598 13.524 2.957 3.888 7.454 6.118 12.338 6.118h135.497c4.884 0 9.381-2.23 12.338-6.118s3.904-8.817 2.598-13.524l-10.563-38.085c-1.855-6.687-7.997-11.357-14.936-11.357h-8.357l-5.712-42.455h67.058c4.142 0 7.5-3.358 7.5-7.5s-3.358-7.5-7.5-7.5h-328.674c-12.407 0-22.5-10.093-22.5-22.5v-282.42c0-12.407 10.093-22.5 22.5-22.5h52.01v15h-48.01c-6.341 0-11.5 5.159-11.5 11.5v259.42c0 6.341 5.159 11.5 11.5 11.5h429c6.341 0 11.5-5.159 11.5-11.5v-259.42c0-6.341-5.159-11.5-11.5-11.5h-48.01v-15h52.01c12.407 0 22.5 10.093 22.5 22.5v282.42c0 12.407-10.093 22.5-22.5 22.5h-73.325c-4.142 0-7.5 3.358-7.5 7.5s3.358 7.5 7.5 7.5h73.325c20.678 0 37.5-16.822 37.5-37.5v-282.42c0-20.678-16.822-37.5-37.5-37.5zm-161.314 414.875c.224 0 .422.15.482.366l10.563 38.085c.096.241-.225.662-.482.634h-135.498c-.258.028-.579-.389-.482-.634l10.563-38.085c.06-.216.258-.367.482-.367h114.372zm-85.167-57.455h55.963l5.712 42.455h-67.388zm-138.509-60h-44.51v-252.42h44.51zm317.98 0h-302.98v-265.46h302.98zm0-280.46h-302.98v-40.5c0-2.481 2.019-4.5 4.5-4.5h293.98c2.481 0 4.5 2.019 4.5 4.5zm59.51 28.04v252.42h-44.51v-252.42zm-181 82.191h41c4.142 0 7.5-3.358 7.5-7.5s-3.358-7.5-7.5-7.5h-41c-4.142 0-7.5 3.358-7.5 7.5s3.358 7.5 7.5 7.5zm0 30h41c4.142 0 7.5-3.358 7.5-7.5s-3.358-7.5-7.5-7.5h-41c-4.142 0-7.5 3.358-7.5 7.5s3.358 7.5 7.5 7.5zm-101 0h41c4.142 0 7.5-3.358 7.5-7.5s-3.358-7.5-7.5-7.5h-41c-4.142 0-7.5 3.358-7.5 7.5s3.358 7.5 7.5 7.5zm0 30h41c4.142 0 7.5-3.358 7.5-7.5s-3.358-7.5-7.5-7.5h-41c-4.142 0-7.5 3.358-7.5 7.5s3.358 7.5 7.5 7.5zm-23 60h188c7.995 0 14.5-6.505 14.5-14.5v-136c0-7.995-6.505-14.5-14.5-14.5h-74c-7.875 0-14.982 3.332-20 8.655-5.018-5.323-12.125-8.655-20-8.655h-74c-7.995 0-14.5 6.505-14.5 14.5v25.892c0 4.142 3.358 7.5 7.5 7.5s7.5-3.358 7.5-7.5v-25.392h73.5c6.893 0 12.5 5.607 12.5 12.5v100.02c-6.272-4.719-14.064-7.52-22.5-7.52h-63.5v-44.608c0-4.142-3.358-7.5-7.5-7.5s-7.5 3.358-7.5 7.5v75.108c0 7.995 6.505 14.5 14.5 14.5zm187.5-15h-84.715c3.095-8.73 11.437-15 21.215-15h63.5zm-86-122.5c0-6.893 5.607-12.5 12.5-12.5h73.5v105h-63.5c-8.436 0-16.228 2.801-22.5 7.52zm-101 107.5h63.5c9.778 0 18.12 6.27 21.215 15h-84.715zm22.5-90h41c4.142 0 7.5-3.358 7.5-7.5s-3.358-7.5-7.5-7.5h-41c-4.142 0-7.5 3.358-7.5 7.5s3.358 7.5 7.5 7.5zm142 60c4.142 0 7.5-3.358 7.5-7.5s-3.358-7.5-7.5-7.5h-41c-4.142 0-7.5 3.358-7.5 7.5s3.358 7.5 7.5 7.5zm-169.99-200.231c-4.142 0-7.5 3.358-7.5 7.5s3.358 7.5 7.5 7.5 7.5-3.358 7.5-7.5-3.358-7.5-7.5-7.5zm-30 0c-4.142 0-7.5 3.358-7.5 7.5s3.358 7.5 7.5 7.5 7.5-3.358 7.5-7.5-3.358-7.5-7.5-7.5z"/></g></svg>