<svg id="Layer_1" enable-background="new 0 0 512 512" height="512" viewBox="0 0 512 512" width="512" xmlns="http://www.w3.org/2000/svg"><g><g><g><g><g><g><g><path d="m482 429.5h-452v-345.686c0-16.569 13.431-30 30-30h392c16.569 0 30 13.431 30 30z" fill="#506d90"/><path d="m452 53.814h-30c16.569 0 30 13.432 30 30v345.686h30v-345.686c0-16.569-13.431-30-30-30z" fill="#455f7e"/><path d="m60 377.231v-289.417c0-2.209 1.791-4 4-4h384c2.209 0 4 1.791 4 4v289.417c0 2.209-1.791 4-4 4h-384c-2.209 0-4-1.791-4-4z" fill="#ecf5ff"/><path d="m448 83.814h-30c2.209 0 4 1.791 4 4v289.417c0 2.209-1.791 4-4 4h30c2.209 0 4-1.791 4-4v-289.417c0-2.209-1.791-4-4-4z" fill="#dbeafd"/><g><path d="m112.01 67.5h287.98v313.731h-287.98z" fill="#fff"/><path d="m369.99 67.5h30v313.731h-30z" fill="#efeaf4"/><path d="m387.99 7.5h-263.98c-6.627 0-12 5.373-12 12v48h287.98v-48c0-6.627-5.373-12-12-12z" fill="#455f7e"/><path d="m387.99 7.5h-30c6.627 0 12 5.373 12 12v48h30v-48c0-6.627-5.373-12-12-12z" fill="#405972"/></g><g><path d="m12.5 429.5h487c2.761 0 5 2.239 5 5v34.549c0 19.579-15.872 35.451-35.451 35.451h-426.098c-19.579 0-35.451-15.872-35.451-35.451v-34.549c0-2.761 2.239-5 5-5z" fill="#455f7e"/><g fill="#405972"><path d="m499.5 429.5h-30c2.761 0 5 2.239 5 5v34.549c0 19.579-15.872 35.451-35.451 35.451h30c19.579 0 35.451-15.872 35.451-35.451v-34.549c0-2.761-2.239-5-5-5z"/><path d="m288.955 459.5h-65.911c-5.523 0-10-4.477-10-10v-20h85.911v20c0 5.523-4.477 10-10 10z"/></g></g></g></g></g></g></g><g><g><path d="m256 299.365 101-14v-129c0-3.866-3.134-7-7-7h-74c-11.046 0-20 8.954-20 20z" fill="#f3cfbb"/><path d="m357 269.365h-71c-16.569 0-30 13.431-30 30h94c3.866 0 7-3.134 7-7z" fill="#f0c3aa"/></g><g><path d="m256 299.365-101-14v-129c0-3.866 3.134-7 7-7h74c11.046 0 20 8.954 20 20z" fill="#f5dacb"/><path d="m155 269.365h71c16.569 0 30 13.431 30 30h-94c-3.866 0-7-3.134-7-7z" fill="#f3cfbb"/></g></g></g><path d="m142.01 30c-4.142 0-7.5 3.358-7.5 7.5s3.358 7.5 7.5 7.5 7.5-3.358 7.5-7.5-3.358-7.5-7.5-7.5zm60 0c-4.142 0-7.5 3.358-7.5 7.5s3.358 7.5 7.5 7.5 7.5-3.358 7.5-7.5-3.358-7.5-7.5-7.5zm83.99 156.865h41c4.143 0 7.5-3.358 7.5-7.5s-3.357-7.5-7.5-7.5h-41c-4.143 0-7.5 3.358-7.5 7.5s3.357 7.5 7.5 7.5zm-113.99-156.865c-4.142 0-7.5 3.358-7.5 7.5s3.358 7.5 7.5 7.5 7.5-3.358 7.5-7.5-3.358-7.5-7.5-7.5zm113.99 186.865h41c4.143 0 7.5-3.358 7.5-7.5s-3.357-7.5-7.5-7.5h-41c-4.143 0-7.5 3.358-7.5 7.5s3.357 7.5 7.5 7.5zm-124 90h188c7.995 0 14.5-6.505 14.5-14.5v-136c0-7.995-6.505-14.5-14.5-14.5h-74c-7.875 0-14.982 3.332-20 8.655-5.018-5.323-12.125-8.655-20-8.655h-74c-7.995 0-14.5 6.505-14.5 14.5v136c0 7.995 6.505 14.5 14.5 14.5zm187.5-15h-84.715c3.096-8.73 11.437-15 21.215-15h63.5zm-86-122.5c0-6.893 5.607-12.5 12.5-12.5h73.5v105h-63.5c-8.436 0-16.228 2.801-22.5 7.52zm-101-12.5h73.5c6.893 0 12.5 5.607 12.5 12.5v100.02c-6.272-4.719-14.064-7.52-22.5-7.52h-63.5zm0 120h63.5c9.778 0 18.12 6.27 21.215 15h-84.715zm337 145.135h-10v-338.19c0-20.678-16.822-37.5-37.5-37.5h-44.51v-26.81c0-10.752-8.748-19.5-19.5-19.5h-263.98c-10.752 0-19.5 8.748-19.5 19.5v26.81h-44.51c-20.678 0-37.5 16.822-37.5 37.5v338.19h-10c-6.893 0-12.5 5.607-12.5 12.5v34.549c0 23.683 19.268 42.951 42.951 42.951h426.098c23.683 0 42.951-19.268 42.951-42.951v-34.549c0-6.893-5.607-12.5-12.5-12.5zm-92.01-330.69h37.01v282.42h-37.01zm-287.98-71.81c0-2.481 2.019-4.5 4.5-4.5h263.98c2.481 0 4.5 2.019 4.5 4.5v40.5h-272.98zm-7.5 128.101c4.142 0 7.5-3.358 7.5-7.5v-65.101h272.98v298.73h-272.98v-198.629c0-4.142-3.358-7.5-7.5-7.5s-7.5 3.358-7.5 7.5v198.629h-37.01v-282.42h37.01v48.791c0 4.142 3.358 7.5 7.5 7.5zm384.99 321.448c0 15.412-12.539 27.951-27.951 27.951h-426.098c-15.412 0-27.951-12.539-27.951-27.951v-32.049h190.545v12.5c0 9.649 7.851 17.5 17.5 17.5h65.91c9.649 0 17.5-7.851 17.5-17.5v-12.5h81.487c4.143 0 7.5-3.358 7.5-7.5s-3.357-7.5-7.5-7.5h-350.442v-338.19c0-12.407 10.093-22.5 22.5-22.5h44.51v15h-40.51c-6.341 0-11.5 5.159-11.5 11.5v289.42c0 6.341 5.159 11.5 11.5 11.5h384c6.341 0 11.5-5.159 11.5-11.5v-289.42c0-6.341-5.159-11.5-11.5-11.5h-40.51v-15h44.51c12.406 0 22.5 10.093 22.5 22.5v338.19h-51.558c-4.143 0-7.5 3.358-7.5 7.5s3.357 7.5 7.5 7.5h74.058zm-276.455-19.549v-12.5h70.91v12.5c0 1.378-1.121 2.5-2.5 2.5h-65.91c-1.378 0-2.5-1.122-2.5-2.5zm12.955-210.135c0-4.142-3.358-7.5-7.5-7.5h-41c-4.142 0-7.5 3.358-7.5 7.5s3.358 7.5 7.5 7.5h41c4.142 0 7.5-3.358 7.5-7.5zm-48.5-22.5h41c4.142 0 7.5-3.358 7.5-7.5s-3.358-7.5-7.5-7.5h-41c-4.142 0-7.5 3.358-7.5 7.5s3.358 7.5 7.5 7.5zm142 30c4.143 0 7.5-3.358 7.5-7.5s-3.357-7.5-7.5-7.5h-41c-4.143 0-7.5 3.358-7.5 7.5s3.357 7.5 7.5 7.5zm-142-60h41c4.142 0 7.5-3.358 7.5-7.5s-3.358-7.5-7.5-7.5h-41c-4.142 0-7.5 3.358-7.5 7.5s3.358 7.5 7.5 7.5z"/></g></svg>