<svg id="Layer_1" enable-background="new 0 0 512 512" height="512" viewBox="0 0 512 512" width="512" xmlns="http://www.w3.org/2000/svg"><g><g><g><g><path d="m474.5 392.962h-437c-16.569 0-30-13.431-30-30v-282.417c0-16.569 13.431-30 30-30h437c16.569 0 30 13.431 30 30v282.417c0 16.568-13.431 30-30 30z" fill="#506d90"/><path d="m474.5 50.545h-30c16.569 0 30 13.431 30 30v282.417c0 16.569-13.431 30-30 30h30c16.569 0 30-13.431 30-30v-282.417c0-16.569-13.431-30-30-30z" fill="#455f7e"/><path d="m37.5 343.962v-259.417c0-2.209 1.791-4 4-4h429c2.209 0 4 1.791 4 4v259.417c0 2.209-1.791 4-4 4h-429c-2.209 0-4-1.791-4-4z" fill="#ecf5ff"/><path d="m37.5 343.962v-259.417c0-2.209 1.791-4 4-4h429c2.209 0 4 1.791 4 4v259.417c0 2.209-1.791 4-4 4h-429c-2.209 0-4-1.791-4-4z" fill="#ecf5ff"/><path d="m470.5 80.545h-30c2.209 0 4 1.791 4 4v259.417c0 2.209-1.791 4-4 4h30c2.209 0 4-1.791 4-4v-259.417c0-2.21-1.791-4-4-4z" fill="#dbeafd"/><path d="m305.543 504.5h-99.086l15-111.538h69.086z" fill="#455f7e"/><path d="m290.543 392.962h-30l15 111.538h30z" fill="#405972"/><path d="m320.895 456.277 10.563 38.085c1.414 5.097-2.42 10.138-7.709 10.138h-135.497c-5.289 0-9.123-5.041-7.709-10.138l10.563-38.085c.961-3.464 4.114-5.862 7.709-5.862h114.372c3.594 0 6.747 2.397 7.708 5.862z" fill="#506d90"/><path d="m331.458 494.362-10.563-38.085c-.961-3.464-4.114-5.862-7.709-5.862h-30c3.595 0 6.748 2.398 7.709 5.862l10.563 38.085c1.414 5.097-2.42 10.138-7.709 10.138h30c5.289 0 9.122-5.041 7.709-10.138z" fill="#455f7e"/></g><path d="m97.01 67.5h317.98v280.462h-317.98z" fill="#fff"/><path d="m384.99 67.5h30v280.462h-30z" fill="#efeaf4"/><path d="m387.99 7.5h-278.98c-6.627 0-12 5.373-12 12v48h317.98l-15-48c0-6.627-5.373-12-12-12z" fill="#455f7e"/><path d="m402.99 7.5h-30c6.627 0 12 5.373 12 12v48h30v-48c0-6.627-5.373-12-12-12z" fill="#405972"/></g><g><g><ellipse cx="256" cy="170.231" fill="#dd8793" rx="63.09" ry="63.521"/><path d="m256 106.71c-5.171 0-10.191.64-15 1.822 27.6 6.779 48.09 31.824 48.09 61.7s-20.49 54.92-48.09 61.699c4.809 1.181 9.829 1.822 15 1.822 34.844 0 63.09-28.439 63.09-63.521s-28.246-63.522-63.09-63.522z" fill="#d5707e"/><path d="m252.205 142.572 24.813 24.982c1.471 1.481 1.471 3.872 0 5.353l-24.813 24.982c-2.389 2.405-6.493.714-6.493-2.677v-49.964c0-3.39 4.104-5.081 6.493-2.676z" fill="#fff"/></g></g></g><path d="m256 241.252c38.924 0 70.59-31.86 70.59-71.021s-31.666-71.021-70.59-71.021c-10.068 0-19.796 2.09-28.913 6.213-3.774 1.707-5.45 6.15-3.744 9.924 1.707 3.773 6.151 5.451 9.924 3.744 7.162-3.239 14.811-4.881 22.733-4.881 30.652 0 55.59 25.131 55.59 56.021s-24.938 56.021-55.59 56.021-55.59-25.131-55.59-56.021c0-11.241 3.289-22.082 9.512-31.351 2.31-3.439 1.393-8.099-2.046-10.407-3.438-2.309-8.098-1.393-10.407 2.046-7.889 11.75-12.059 25.482-12.059 39.712 0 39.161 31.666 71.021 70.59 71.021zm-128.99 39.209h257.98c4.143 0 7.5-3.358 7.5-7.5s-3.357-7.5-7.5-7.5h-257.98c-4.143 0-7.5 3.358-7.5 7.5s3.357 7.5 7.5 7.5zm347.49-237.421h-52.01v-23.54c0-10.752-8.748-19.5-19.5-19.5h-293.98c-10.752 0-19.5 8.748-19.5 19.5v23.54h-52.01c-20.678 0-37.5 16.822-37.5 37.5v175.282c0 4.142 3.357 7.5 7.5 7.5s7.5-3.358 7.5-7.5v-175.282c0-12.407 10.094-22.5 22.5-22.5h52.01v15h-48.01c-6.341 0-11.5 5.159-11.5 11.5v259.42c0 6.341 5.159 11.5 11.5 11.5h429c6.341 0 11.5-5.159 11.5-11.5v-259.42c0-6.341-5.159-11.5-11.5-11.5h-48.01v-15h52.01c12.406 0 22.5 10.093 22.5 22.5v282.42c0 12.407-10.094 22.5-22.5 22.5h-437c-12.406 0-22.5-10.093-22.5-22.5v-72.138c0-4.142-3.357-7.5-7.5-7.5s-7.5 3.358-7.5 7.5v72.138c0 20.678 16.822 37.5 37.5 37.5h175.384l-5.712 42.455h-8.357c-6.941 0-13.083 4.671-14.937 11.357l-10.562 38.085c-1.307 4.707-.359 9.637 2.597 13.525s7.454 6.118 12.339 6.118h135.496c4.885 0 9.383-2.23 12.339-6.118s3.903-8.818 2.598-13.524l-10.563-38.084c-1.854-6.688-7.995-11.359-14.937-11.359h-8.357l-5.712-42.455h175.384c20.678 0 37.5-16.822 37.5-37.5v-282.42c0-20.678-16.822-37.5-37.5-37.5zm-384.99 297.42h-44.51v-252.42h44.51zm317.98 0h-302.98v-265.46h302.98zm0-280.46h-302.98v-40.5c0-2.481 2.019-4.5 4.5-4.5h293.98c2.481 0 4.5 2.019 4.5 4.5zm59.51 28.04v252.42h-44.51v-252.42zm-238.981 312.42h55.963l5.712 42.455h-67.388zm85.167 57.455c.224 0 .422.15.481.365v.001l10.563 38.086c.095.242-.222.661-.482.633h-135.496c-.261.027-.58-.388-.481-.634l10.563-38.087c.06-.215.258-.365.481-.365h114.371zm-55.66-254.74 24.813-24.983c4.358-4.391 4.358-11.533-.001-15.923l-24.813-24.982s0 0-.001-.001c-3.237-3.259-8.072-4.235-12.322-2.482-4.247 1.751-6.991 5.851-6.991 10.445v49.964c0 4.594 2.744 8.694 6.991 10.445 4.202 1.732 9.068.796 12.324-2.483zm-4.314-48.946 15.894 16.002-15.894 16.002zm-66.202-124.229c-4.142 0-7.5 3.358-7.5 7.5s3.358 7.5 7.5 7.5 7.5-3.358 7.5-7.5-3.358-7.5-7.5-7.5zm-30 0c-4.142 0-7.5 3.358-7.5 7.5s3.358 7.5 7.5 7.5 7.5-3.358 7.5-7.5-3.358-7.5-7.5-7.5zm-30 280.461h257.98c4.143 0 7.5-3.358 7.5-7.5s-3.357-7.5-7.5-7.5h-257.98c-4.143 0-7.5 3.358-7.5 7.5s3.357 7.5 7.5 7.5zm0-280.461c-4.142 0-7.5 3.358-7.5 7.5s3.358 7.5 7.5 7.5 7.5-3.358 7.5-7.5-3.358-7.5-7.5-7.5z"/></g></svg>