<svg id="Layer_1" enable-background="new 0 0 512 512" height="512" viewBox="0 0 512 512" width="512" xmlns="http://www.w3.org/2000/svg"><g><g><g><g><path d="m474.5 392.962h-437c-16.569 0-30-13.431-30-30v-282.417c0-16.569 13.431-30 30-30h437c16.569 0 30 13.431 30 30v282.417c0 16.568-13.431 30-30 30z" fill="#506d90"/><path d="m474.5 50.545h-30c16.569 0 30 13.431 30 30v282.417c0 16.569-13.431 30-30 30h30c16.569 0 30-13.431 30-30v-282.417c0-16.569-13.431-30-30-30z" fill="#455f7e"/><path d="m37.5 343.962v-259.417c0-2.209 1.791-4 4-4h429c2.209 0 4 1.791 4 4v259.417c0 2.209-1.791 4-4 4h-429c-2.209 0-4-1.791-4-4z" fill="#ecf5ff"/><path d="m37.5 343.962v-259.417c0-2.209 1.791-4 4-4h429c2.209 0 4 1.791 4 4v259.417c0 2.209-1.791 4-4 4h-429c-2.209 0-4-1.791-4-4z" fill="#ecf5ff"/><path d="m470.5 80.545h-30c2.209 0 4 1.791 4 4v259.417c0 2.209-1.791 4-4 4h30c2.209 0 4-1.791 4-4v-259.417c0-2.21-1.791-4-4-4z" fill="#dbeafd"/><path d="m305.543 504.5h-99.086l15-111.538h69.086z" fill="#455f7e"/><path d="m290.543 392.962h-30l15 111.538h30z" fill="#405972"/><path d="m320.895 456.277 10.563 38.085c1.414 5.097-2.42 10.138-7.709 10.138h-135.497c-5.289 0-9.123-5.041-7.709-10.138l10.563-38.085c.961-3.464 4.114-5.862 7.709-5.862h114.372c3.594 0 6.747 2.397 7.708 5.862z" fill="#506d90"/><path d="m331.458 494.362-10.563-38.085c-.961-3.464-4.114-5.862-7.709-5.862h-30c3.595 0 6.748 2.398 7.709 5.862l10.563 38.085c1.414 5.097-2.42 10.138-7.709 10.138h30c5.289 0 9.122-5.041 7.709-10.138z" fill="#455f7e"/></g><path d="m97.01 67.5h317.98v280.462h-317.98z" fill="#fff"/><path d="m384.99 67.5h30v280.462h-30z" fill="#efeaf4"/><g><g><circle cx="211" cy="273.605" fill="#dd8793" r="18"/><path d="m211 255.605c-3.282 0-6.35.893-9 2.428 5.375 3.114 9 8.914 9 15.572s-3.625 12.459-9 15.572c2.65 1.535 5.718 2.428 9 2.428 9.941 0 18-8.059 18-18s-8.059-18-18-18z" fill="#d5707e"/></g></g><path d="m387.99 7.5h-278.98c-6.627 0-12 5.373-12 12v48h317.98l-15-48c0-6.627-5.373-12-12-12z" fill="#506d90"/><path d="m402.99 7.5h-30c6.627 0 12 5.373 12 12v48h30v-48c0-6.627-5.373-12-12-12z" fill="#455f7e"/></g></g><path d="m216.625 195.93c4.142 0 7.5-3.358 7.5-7.5v-64.574c0-4.142-3.358-7.5-7.5-7.5s-7.5 3.358-7.5 7.5v64.574c0 4.142 3.358 7.5 7.5 7.5zm43.497-5.959c1.269 3.571 4.655 5.959 8.44 5.959h.061c3.81-.026 7.193-2.467 8.437-6.124l21.084-63.467c1.306-3.931-.822-8.176-4.753-9.482-3.932-1.307-8.176.822-9.482 4.753l-15.472 46.573-16.24-46.787c-1.358-3.913-5.632-5.982-9.545-4.626-3.913 1.358-5.984 5.632-4.626 9.545zm59.39 5.959h26.96c4.142 0 7.5-3.358 7.5-7.5s-3.358-7.5-7.5-7.5h-19.46v-16.992h17.473c4.142 0 7.5-3.358 7.5-7.5s-3.358-7.5-7.5-7.5h-17.473v-16.992h19.46c4.142 0 7.5-3.358 7.5-7.5s-3.358-7.5-7.5-7.5h-26.96c-4.142 0-7.5 3.358-7.5 7.5v63.984c0 4.142 3.358 7.5 7.5 7.5zm-192.502-165.93c-4.142 0-7.5 3.358-7.5 7.5s3.358 7.5 7.5 7.5 7.5-3.358 7.5-7.5-3.358-7.5-7.5-7.5zm60 0c-4.142 0-7.5 3.358-7.5 7.5s3.358 7.5 7.5 7.5 7.5-3.358 7.5-7.5-3.358-7.5-7.5-7.5zm-30 0c-4.142 0-7.5 3.358-7.5 7.5s3.358 7.5 7.5 7.5 7.5-3.358 7.5-7.5-3.358-7.5-7.5-7.5zm227.98 236.11h-149.616c-3.209-10.414-12.921-18.005-24.374-18.005s-21.165 7.591-24.374 18.005h-59.616c-4.142 0-7.5 3.358-7.5 7.5s3.358 7.5 7.5 7.5h59.619c3.212 10.409 12.922 17.995 24.371 17.995s21.159-7.586 24.371-17.995h149.619c4.142 0 7.5-3.358 7.5-7.5s-3.358-7.5-7.5-7.5zm-173.99 17.995c-5.79 0-10.5-4.71-10.5-10.5s4.71-10.5 10.5-10.5 10.5 4.71 10.5 10.5-4.71 10.5-10.5 10.5zm263.5-241.065h-52.01v-23.54c0-10.752-8.748-19.5-19.5-19.5h-293.98c-10.752 0-19.5 8.748-19.5 19.5v23.54h-52.01c-20.678 0-37.5 16.822-37.5 37.5v282.42c0 20.678 16.822 37.5 37.5 37.5h175.383l-5.712 42.455h-8.357c-6.939 0-13.081 4.67-14.936 11.357l-10.563 38.085c-1.306 4.707-.358 9.637 2.598 13.524 2.957 3.888 7.454 6.118 12.338 6.118h135.497c4.884 0 9.381-2.23 12.338-6.118s3.904-8.817 2.598-13.524l-10.563-38.086c-1.855-6.687-7.997-11.357-14.936-11.357h-8.357l-5.712-42.455h175.384c20.678 0 37.5-16.822 37.5-37.5v-282.419c0-20.678-16.822-37.5-37.5-37.5zm-52.01 45h44.51v252.42h-44.51zm-317.98-13.04h82.115c4.142 0 7.5-3.358 7.5-7.5s-3.358-7.5-7.5-7.5h-82.115v-40.5c0-2.481 2.019-4.5 4.5-4.5h293.98c2.481 0 4.5 2.019 4.5 4.5v40.5h-185.865c-4.142 0-7.5 3.358-7.5 7.5s3.358 7.5 7.5 7.5h185.865v265.46h-302.98zm208.676 382.915c.224 0 .422.151.482.366l10.563 38.085c.096.241-.225.662-.482.634h-135.498c-.258.028-.579-.389-.482-.634l10.563-38.085c.06-.216.258-.367.482-.367h49.455c4.142 0 7.5-3.358 7.5-7.5s-3.358-7.5-7.5-7.5h-25.963l5.712-42.455h55.963l5.712 42.455h-6.425c-4.142 0-7.5 3.358-7.5 7.5s3.358 7.5 7.5 7.5h29.918zm183.814-94.955c0 12.407-10.093 22.5-22.5 22.5h-437c-12.407 0-22.5-10.093-22.5-22.5v-282.42c0-12.407 10.093-22.5 22.5-22.5h52.01v15h-48.01c-6.341 0-11.5 5.159-11.5 11.5v259.42c0 6.341 5.159 11.5 11.5 11.5h429c6.341 0 11.5-5.159 11.5-11.5v-259.42c0-6.341-5.159-11.5-11.5-11.5h-48.01v-15h52.01c12.407 0 22.5 10.093 22.5 22.5zm-407.49-274.92v252.42h-44.51v-252.42zm74.749 107.728c.535.092 16.59.149 23.923.108 4.142-.023 7.481-3.4 7.458-7.542-.023-4.128-3.376-7.458-7.499-7.458h-.043c-5.209.029-10.802.05-15.07.054v-57.074c0-4.142-3.358-7.5-7.5-7.5s-7.5 3.358-7.5 7.5v64.52c0 3.652 2.631 6.774 6.231 7.392z"/></g></svg>