<svg id="Layer_1" enable-background="new 0 0 512 512" height="512" viewBox="0 0 512 512" width="512" xmlns="http://www.w3.org/2000/svg"><g><g><g><g><path d="m504.5 67.5v407c0 16.569-13.431 30-30 30h-437c-16.569 0-30-13.431-30-30v-407z" fill="#f7f6f7"/><path d="m474.5 67.5v407c0 16.569-13.431 30-30 30h30c16.569 0 30-13.431 30-30v-407z" fill="#e2d8ec"/><path d="m474.5 7.5h-437c-16.569 0-30 13.431-30 30v30h497v-30c0-16.569-13.431-30-30-30z" fill="#506d90"/><path d="m474.5 7.5h-30c16.569 0 30 13.431 30 30v30h30v-30c0-16.569-13.431-30-30-30z" fill="#455f7e"/></g></g><g><path d="m429.642 382.58h-347.284c-5.523 0-10-4.477-10-10v-261.957c0-5.523 4.477-10 10-10h347.285c5.523 0 10 4.477 10 10v261.957c-.001 5.523-4.478 10-10.001 10z" fill="#bfe69f"/><path d="m429.642 100.623h-30c5.523 0 10 4.477 10 10v261.957c0 5.523-4.477 10-10 10h30c5.523 0 10-4.477 10-10v-261.957c0-5.523-4.477-10-10-10z" fill="#a4d9a6"/><path d="m102.357 318.56v-153.917c18.789 0 34.02-15.231 34.02-34.02h239.245c0 18.789 15.231 34.02 34.02 34.02v153.917c-18.789 0-34.02 15.231-34.02 34.02h-239.245c0-18.789-15.231-34.02-34.02-34.02z" fill="#fff"/><g><g><path d="m316.586 457.863-16.332.622c-.771.029-1.477.437-1.888 1.09l-8.705 13.833c-.937 1.489-3.12 1.447-4-.076l-42.443-73.514 32.859-18.971 42.443 73.514c.879 1.523-.176 3.435-1.934 3.502z" fill="#dd8793"/><path d="m318.52 454.361-42.443-73.514-21.59 15.181 40.129 69.506 3.75-5.959c.411-.653 1.117-1.061 1.888-1.09l16.333-.622c1.757-.067 2.812-1.979 1.933-3.502z" fill="#d5707e"/><path d="m195.414 457.863 16.332.622c.771.029 1.477.437 1.888 1.09l8.705 13.833c.937 1.489 3.12 1.447 4-.076l42.443-73.514-32.859-18.971-42.443 73.514c-.879 1.523.176 3.435 1.934 3.502z" fill="#dd8793"/><path d="m246.055 390.864-38.939 67.444 4.63.176c.771.029 1.477.437 1.888 1.09l8.705 13.833c.937 1.489 3.121 1.447 4-.076l42.443-73.514z" fill="#d5707e"/></g><g><path d="m317.884 367.899c0 6.309-7.633 11.335-9.482 17.027-1.916 5.9 1.239 14.44-2.335 19.351-3.61 4.96-12.731 4.581-17.691 8.191-4.911 3.574-7.349 12.386-13.249 14.301-5.693 1.848-12.819-3.787-19.128-3.787s-13.435 5.635-19.127 3.787c-5.9-1.916-8.338-10.727-13.249-14.301-4.96-3.61-14.081-3.231-17.691-8.191-3.574-4.911-.419-13.451-2.335-19.351-1.848-5.693-9.482-10.718-9.482-17.027s7.633-11.335 9.482-17.027c1.916-5.9-1.239-14.44 2.335-19.351 3.61-4.96 12.731-4.581 17.691-8.191 4.911-3.574 7.349-12.386 13.249-14.301 5.693-1.848 12.819 3.787 19.128 3.787s13.435-5.635 19.127-3.787c5.9 1.916 8.338 10.727 13.249 14.301 4.96 3.61 14.081 3.231 17.691 8.191 3.574 4.911.419 13.451 2.335 19.351 1.849 5.693 9.482 10.718 9.482 17.027z" fill="#f7e07f"/></g><g><path d="m317.884 367.899c0-6.309-7.633-11.335-9.481-17.027-1.916-5.9 1.239-14.44-2.335-19.351-3.61-4.96-12.73-4.581-17.691-8.191-4.911-3.574-7.349-12.386-13.249-14.301-5.693-1.848-12.818 3.787-19.127 3.787-2.445 0-5.013-.847-7.573-1.777 3.724 3.377 6.067 9.465 9.95 12.291 4.96 3.61 14.081 3.231 17.691 8.191 3.574 4.911.419 13.451 2.335 19.351 1.848 5.693 9.481 10.718 9.481 17.027s-7.633 11.335-9.481 17.027c-1.916 5.9 1.239 14.44-2.335 19.351-3.61 4.96-12.73 4.581-17.691 8.191-3.883 2.826-6.226 8.914-9.95 12.291 2.56-.929 5.128-1.777 7.573-1.777 6.309 0 13.435 5.635 19.127 3.787 5.9-1.916 8.338-10.727 13.249-14.301 4.96-3.61 14.081-3.231 17.691-8.191 3.574-4.911.419-13.451 2.335-19.351 1.848-5.692 9.481-10.718 9.481-17.027z" fill="#f0d16f"/></g><circle cx="256" cy="367.899" fill="#dd8793" r="25.027"/><path d="m256 342.873c-4.56 0-8.831 1.226-12.513 3.356 7.478 4.328 12.513 12.408 12.513 21.67s-5.035 17.342-12.513 21.67c3.682 2.131 7.953 3.356 12.513 3.356 13.822 0 25.027-11.205 25.027-25.027s-11.205-25.025-25.027-25.025z" fill="#d5707e"/></g></g></g><path d="m102.358 30c-4.142 0-7.5 3.358-7.5 7.5s3.358 7.5 7.5 7.5 7.5-3.358 7.5-7.5-3.358-7.5-7.5-7.5zm153.642 305.373c-17.936 0-32.526 14.591-32.526 32.527 0 17.935 14.591 32.526 32.526 32.526s32.526-14.591 32.526-32.526c0-17.936-14.59-32.527-32.526-32.527zm0 50.053c-9.664 0-17.526-7.862-17.526-17.526 0-9.665 7.862-17.527 17.526-17.527s17.526 7.862 17.526 17.527c0 9.663-7.862 17.526-17.526 17.526zm218.5-385.426h-437c-20.678 0-37.5 16.822-37.5 37.5v437c0 20.678 16.822 37.5 37.5 37.5h437c20.678 0 37.5-16.822 37.5-37.5v-437c0-20.678-16.822-37.5-37.5-37.5zm22.5 474.5c0 12.407-10.094 22.5-22.5 22.5h-437c-12.406 0-22.5-10.093-22.5-22.5v-399.5h482zm0-414.5h-482v-22.5c0-12.407 10.094-22.5 22.5-22.5h437c12.406 0 22.5 10.093 22.5 22.5zm-454.642-30c-4.142 0-7.5 3.358-7.5 7.5s3.358 7.5 7.5 7.5 7.5-3.358 7.5-7.5-3.358-7.5-7.5-7.5zm235.996 237.139h-119.708c-4.143 0-7.5 3.358-7.5 7.5s3.357 7.5 7.5 7.5h119.709c4.143 0 7.5-3.358 7.5-7.5s-3.358-7.5-7.501-7.5zm-205.996-237.139c-4.142 0-7.5 3.358-7.5 7.5s3.358 7.5 7.5 7.5 7.5-3.358 7.5-7.5-3.358-7.5-7.5-7.5zm10.002 360.08h114.408c.01 1.008-.03 2.105-.069 3.14-.177 4.71-.397 10.571 3.168 15.47 2.129 2.927 4.99 4.676 7.915 5.887l-20.791 36.023c-1.748 3.017-1.782 6.641-.092 9.693 1.688 3.051 4.774 4.943 8.227 5.062l13.607.517 7.265 11.542c1.859 2.947 5.054 4.659 8.521 4.587 3.476-.072 6.587-1.915 8.315-4.92l23.166-40.12 23.159 40.109c1.734 3.017 4.846 4.86 8.321 4.932 3.465.072 6.665-1.643 8.527-4.596l7.259-11.534 13.58-.516c3.479-.12 6.565-2.012 8.254-5.063 1.69-3.053 1.656-6.677-.085-9.682l-20.799-36.034c2.925-1.211 5.785-2.96 7.914-5.886 3.566-4.899 3.346-10.761 3.169-15.471-.039-1.036-.078-2.133-.069-3.14h114.41c9.649 0 17.5-7.851 17.5-17.5v-261.96c0-9.649-7.851-17.5-17.5-17.5h-347.28c-9.649 0-17.5 7.851-17.5 17.5v261.96c0 9.649 7.851 17.5 17.5 17.5zm141.765 72.086-4.152-6.599c-1.731-2.743-4.697-4.456-7.938-4.582l-7.776-.295 17.112-29.646c3.463 4.885 6.222 10.598 13.187 12.859 1.873.608 3.637.791 5.478.71zm83.617-11.476-7.782.295c-3.235.125-6.201 1.838-7.938 4.59l-4.147 6.591-15.904-27.543c1.781.071 3.614-.117 5.473-.721 5.873-1.907 9.157-6.844 11.796-10.811.45-.676.922-1.386 1.39-2.048zm-.797-77.418c-2.16 2.725-4.539 5.839-5.676 9.338-1.235 3.803-1.089 7.719-.959 11.173.074 1.976.198 5.284-.307 6.081-.578.749-3.95 1.7-5.762 2.211-3.607 1.018-7.114 2.027-10.278 4.33-3.176 2.311-5.32 5.535-7.213 8.379-1.06 1.593-3.031 4.558-3.917 4.846-.922.195-3.949-.912-5.758-1.576-3.54-1.299-7.811-2.724-12.02-2.533-3.671.167-7.121 1.428-10.133 2.533-1.807.663-4.821 1.776-5.735 1.582-.908-.295-2.881-3.26-3.94-4.854-1.892-2.844-4.036-6.067-7.212-8.378-3.116-2.267-6.734-3.329-10.278-4.33-1.812-.511-5.184-1.462-5.758-2.205-.509-.803-.385-4.11-.311-6.086.13-3.454.276-7.37-.958-11.173-1.131-3.484-3.524-6.622-5.677-9.338-1.286-1.623-3.438-4.338-3.438-5.373s2.152-3.75 3.438-5.373c2.116-2.669 4.556-5.885 5.677-9.338 1.234-3.804 1.088-7.719.958-11.173-.074-1.976-.198-5.284.307-6.08.578-.749 3.95-1.7 5.762-2.211 3.313-.935 7.069-1.995 10.278-4.33 3.176-2.311 5.32-5.535 7.213-8.38 1.06-1.593 3.032-4.558 3.917-4.846 1.284-.419 4.028.941 5.758 1.576 3.283 1.205 7.005 2.571 11.076 2.571s7.793-1.366 11.076-2.571c1.807-.663 4.821-1.774 5.734-1.583.908.295 2.881 3.26 3.94 4.853 1.893 2.845 4.037 6.068 7.213 8.379 3.209 2.335 6.965 3.395 10.278 4.33 1.812.511 5.184 1.462 5.757 2.205.51.802.386 4.11.312 6.086-.13 3.455-.276 7.37.958 11.173 1.197 3.686 3.577 6.689 5.677 9.338 1.286 1.623 3.438 4.338 3.438 5.373s-2.151 3.752-3.437 5.374zm-227.085-262.652c0-1.378 1.121-2.5 2.5-2.5h347.28c1.379 0 2.5 1.122 2.5 2.5v261.96c0 1.378-1.121 2.5-2.5 2.5h-105.932c1-2.141 1.675-4.516 1.675-7.181 0-6.259-3.705-10.934-6.683-14.69-1.313-1.657-2.803-3.536-3.165-4.653-.413-1.27-.319-3.771-.236-5.978.177-4.709.397-10.571-3.168-15.47-3.592-4.936-9.262-6.536-13.817-7.821-2.103-.593-4.485-1.265-5.524-2.021-1.002-.729-2.355-2.764-3.55-4.559-2.639-3.967-5.924-8.904-11.797-10.812-5.691-1.848-11.148.158-15.535 1.768-2.214.813-4.503 1.653-5.908 1.653s-3.694-.84-5.907-1.653c-4.388-1.61-9.85-3.613-15.537-1.768-5.873 1.907-9.157 6.844-11.796 10.811-1.194 1.795-2.548 3.83-3.55 4.56-1.039.756-3.422 1.428-5.524 2.021-4.556 1.285-10.226 2.885-13.817 7.821-3.565 4.899-3.345 10.761-3.168 15.47.031.82.063 1.679.07 2.502h-53.569c-3.095-16.894-16.447-30.247-33.341-33.341v-67.1c0-4.142-3.357-7.5-7.5-7.5s-7.5 3.358-7.5 7.5v73.921c0 4.142 3.357 7.5 7.5 7.5 14.623 0 26.52 11.897 26.52 26.52 0 4.142 3.357 7.5 7.5 7.5h52.225c-1.171 2.306-1.989 4.887-1.989 7.819 0 2.664.675 5.039 1.675 7.181h-105.932c-1.379 0-2.5-1.122-2.5-2.5zm22.5 106.519c4.143 0 7.5-3.358 7.5-7.5v-38.178c16.894-3.094 30.246-16.447 33.341-33.341h225.598c3.095 16.894 16.447 30.247 33.341 33.341v140.277c-16.894 3.094-30.246 16.447-33.341 33.341h-19.799c-4.143 0-7.5 3.358-7.5 7.5s3.357 7.5 7.5 7.5h26.62c4.143 0 7.5-3.358 7.5-7.5 0-14.623 11.896-26.52 26.52-26.52 4.143 0 7.5-3.358 7.5-7.5v-153.919c0-4.142-3.357-7.5-7.5-7.5-14.623 0-26.52-11.897-26.52-26.52 0-4.142-3.357-7.5-7.5-7.5h-239.24c-4.143 0-7.5 3.358-7.5 7.5 0 14.623-11.896 26.52-26.52 26.52-4.143 0-7.5 3.358-7.5 7.5v44.999c0 4.142 3.358 7.5 7.5 7.5zm284.783 27.5c0-4.142-3.357-7.5-7.5-7.5h-247.286c-4.143 0-7.5 3.358-7.5 7.5s3.357 7.5 7.5 7.5h247.285c4.143 0 7.501-3.358 7.501-7.5zm-262.286-30c0 4.142 3.357 7.5 7.5 7.5h247.285c4.143 0 7.5-3.358 7.5-7.5s-3.357-7.5-7.5-7.5h-247.285c-4.142 0-7.5 3.358-7.5 7.5zm213.497-22.5c4.143 0 7.5-3.358 7.5-7.5s-3.357-7.5-7.5-7.5h-164.708c-4.143 0-7.5 3.358-7.5 7.5s3.357 7.5 7.5 7.5z"/></g></svg>