<svg id="Layer_1" enable-background="new 0 0 512 512" height="512" viewBox="0 0 512 512" width="512" xmlns="http://www.w3.org/2000/svg"><g><g><g><g><path d="m464.5 340.5h-447c-5.523 0-10-4.477-10-10v-46c0-5.523 4.477-10 10-10h447c5.523 0 10 4.477 10 10v46c0 5.523-4.477 10-10 10z" fill="#cf9772"/><path d="m37.5 502v-161.5h55.233v161.5c0 5.523-4.477 10-10 10h-35.233c-5.523 0-10-4.477-10-10z" fill="#cf9772"/><path d="m37.5 340.5h55.233v30h-55.233z" fill="#c88556"/><g><path d="m299.543 274.258h-262.186c-16.49 0-29.857-13.367-29.857-29.857v-6.747c0-2.019 1.637-3.656 3.656-3.656h314.589c2.019 0 3.656 1.637 3.656 3.656v6.747c-.001 16.49-13.368 29.857-29.858 29.857z" fill="#455f7e"/><path d="m299.543 274.258c16.49 0 29.857-13.367 29.857-29.857v-6.747c0-2.019-1.637-3.656-3.656-3.656h-56.075c-7.004 8.517-11.074 19.353-11.074 30.87v9.389h40.948z" fill="#405972"/><g><path d="m301.982 233.999h-267.064v-143.841c0-13.46 10.912-24.372 24.372-24.372h218.32c13.46 0 24.372 10.912 24.372 24.372z" fill="#506d90"/><path d="m277.61 65.786h-30c13.46 0 24.372 10.912 24.372 24.372v143.84h30v-143.84c0-13.46-10.912-24.372-24.372-24.372z" fill="#455f7e"/><path d="m301.982 214.697-12.575 4.945c-6.74 2.651-12.638 6.704-17.425 11.741v2.615h30z" fill="#405972"/><path d="m64.918 233.999v-135.212c0-1.657 1.343-3 3-3h201.063c1.657 0 3 1.343 3 3v135.212h-62.061l-41.47-15.891-41.471 15.891z" fill="#ecf5ff"/><path d="m268.981 95.787h-30c1.657 0 3 1.343 3 3v135.212h30v-135.212c0-1.657-1.343-3-3-3z" fill="#dbeafd"/></g></g><g><g><path d="m487.548 325.495v-60.626c0-19.975-12.223-37.916-30.812-45.226l-23.686-9.315c-9.365-3.683-15.522-12.721-15.522-22.784v-19.358h-58.913v19.358c0 10.063-6.158 19.101-15.522 22.784l-23.686 9.315c-18.589 7.311-30.812 25.251-30.812 45.226v60.626z" fill="#dd8793"/><g><path d="m456.736 219.643-23.686-9.315c-9.365-3.683-15.522-12.721-15.522-22.784v-19.358h-30v34.358c0 10.063 6.157 19.101 15.522 22.784l23.686 9.315c18.589 7.311 30.812 25.251 30.812 45.226v45.626h30v-60.626c0-19.975-12.222-37.916-30.812-45.226z" fill="#d5707e"/></g><path d="m387.727 218.256c19.56.07 34.429-5.844 42.051-9.508-7.499-4.323-27.25-12.367-27.25-21.204v-19.359h-43.913v19.359c0 8.837-4.751 16.881-12.25 21.204 7.59 3.649 22.181 9.44 41.362 9.508z" fill="#f2ccbc"/><path d="m393.127 218.108c16.889-.894 29.748-6.041 36.65-9.359-.251-.145-.49-.304-.735-.457-6.502-4.184-11.547-11.507-11.515-20.748v-19.359h-30v34.358c.001 5.811 2.063 11.271 5.6 15.565z" fill="#ecad9a"/><path d="m387.109 181.989c-29.644 0-53.676-24.031-53.676-53.676v-50.463c0-15.509 12.573-28.082 28.082-28.082h51.186c15.509 0 28.082 12.573 28.082 28.082v50.463c0 18.35-9.208 34.55-23.256 44.23-3.708 2.555-7.771-1.803-12.073-.237-5.605 2.041-11.628 9.633-17.927 9.682-.138 0-.278.001-.418.001z" fill="#f2ccbc"/><path d="m412.702 49.767h-30c15.51 0 28.083 12.573 28.083 28.082v50.464c.217 3.001 1.098 19.285-10.96 32.497-16.008 17.54-39.853 13.263-41.21 12.996 4.94 3.011 12.942 6.928 23.391 7.94 0 0 2.621.243 5.103.243 29.644 0 53.676-24.031 53.676-53.676v-50.464c0-15.509-12.573-28.082-28.083-28.082z" fill="#ecad9a"/></g><path d="m440.779 128.518c0-.069.005-.137.005-.205v-50.464c0-15.509-12.573-28.082-28.083-28.082h-51.187c-15.51 0-28.082 12.573-28.082 28.082v50.464c0 .069.005.137.005.206 13.173 3.476 30.845 6.772 51.824 6.956 22.705.199 41.709-3.314 55.518-6.957z" fill="#cf9772"/><path d="m412.702 49.767h-30c15.51 0 28.083 12.573 28.083 28.082v50.464c.065.897.187 2.988.007 5.823 11.632-1.32 21.742-3.442 29.988-5.617 0-.069.005-.137.005-.205v-50.465c0-15.509-12.573-28.082-28.083-28.082z" fill="#c88556"/></g><g><path d="m209.92 233.999h-82.941v-18.769c0-21.33 17.291-38.621 38.621-38.621h5.7c21.33 0 38.621 17.291 38.621 38.621v18.769z" fill="#f7e07f"/><path d="m171.3 176.609h-5.7c-4.246 0-8.328.695-12.15 1.961 15.375 5.094 26.471 19.576 26.471 36.659v18.769h30v-18.768c-.001-21.33-17.292-38.621-38.621-38.621z" fill="#f0d16f"/><circle cx="168.45" cy="150.203" fill="#f2ccbc" r="26.406"/><path d="m168.45 123.797c-5.573 0-10.739 1.731-15 4.678 6.89 4.765 11.406 12.718 11.406 21.729s-4.517 16.964-11.406 21.729c4.261 2.947 9.427 4.678 15 4.678 14.584 0 26.406-11.823 26.406-26.406s-11.823-26.408-26.406-26.408z" fill="#ecad9a"/></g></g><path d="m143.175 7.5h-99.082c-11.926 0-21.593 9.667-21.593 21.593v49.221c0 11.925 9.667 21.593 21.593 21.593h49.048c1.336 0 2.618.531 3.563 1.476l20.84 20.84c1.814 1.814 4.915.529 4.915-2.036v-15.242c0-2.783 2.256-5.038 5.038-5.038h15.678c11.925 0 21.593-9.667 21.593-21.593v-49.221c-.001-11.926-9.668-21.593-21.593-21.593z" fill="#f7e07f"/><path d="m143.175 99.907c11.925 0 21.593-9.667 21.593-21.593v-49.221c0-11.925-9.667-21.593-21.593-21.593h-30c11.925 0 21.593 9.667 21.593 21.593v70.814z" fill="#f0d16f"/></g><path d="m271.643 502v-197.948c0-16.321 13.231-29.552 29.552-29.552h173.753c16.321 0 29.552 13.231 29.552 29.552v197.948c0 5.523-4.477 10-10 10h-212.857c-5.523 0-10-4.477-10-10z" fill="#506d90"/><path d="m474.948 274.5h-30c16.321 0 29.552 13.231 29.552 29.552v197.948c0 5.523-4.477 10-10 10h30c5.523 0 10-4.477 10-10v-197.948c0-16.321-13.231-29.552-29.552-29.552z" fill="#455f7e"/></g><path d="m271.644 423.698c-4.143 0-7.5 3.358-7.5 7.5v73.302c0 4.142 3.357 7.5 7.5 7.5s7.5-3.358 7.5-7.5v-73.302c0-4.142-3.358-7.5-7.5-7.5zm-219.581-377.495h83.141c4.143 0 7.5-3.358 7.5-7.5s-3.357-7.5-7.5-7.5h-83.141c-4.143 0-7.5 3.358-7.5 7.5s3.358 7.5 7.5 7.5zm0 30h83.141c4.143 0 7.5-3.358 7.5-7.5s-3.357-7.5-7.5-7.5h-83.141c-4.143 0-7.5 3.358-7.5 7.5s3.358 7.5 7.5 7.5zm442.987 196.748v-8.081c0-23.221-13.96-43.714-35.566-52.21l-23.683-9.307c-6.47-2.551-10.78-8.688-10.771-15.813v-11.276c14.179-11.218 23.253-28.599 23.254-47.951v-50.463c0-19.62-15.962-35.583-35.582-35.583h-51.187c-19.62 0-35.582 15.962-35.582 35.583v50.463c-.009 20.334 9.625 38.075 25.187 49.426v9.801c.017 7.123-4.315 13.261-10.774 15.81l-23.68 9.31c-2.503.984-4.898 2.136-7.186 3.427v-125.927c0-17.573-14.297-31.87-31.87-31.87h-77.84c-4.143 0-7.5 3.358-7.5 7.5s3.357 7.5 7.5 7.5h77.841c9.302 0 16.87 7.568 16.87 16.87v136.34h-15v-127.71c0-5.79-4.71-10.5-10.5-10.5h-98.475c1.14-3.113 1.762-6.473 1.762-9.976v-49.221c0-16.042-13.051-29.093-29.093-29.093h-99.082c-16.042 0-29.093 13.051-29.093 29.093v49.221c0 9.843 4.917 18.553 12.42 23.82v124.366h-16.26c-6.153 0-11.16 5.002-11.16 11.15 0 11.06 2.316 23.536 9.315 31.393-5.534 2.943-9.315 8.764-9.315 15.457v46c0 9.649 7.851 17.5 17.5 17.5h12.5v156.5c0 4.142 3.357 7.5 7.5 7.5s7.5-3.358 7.5-7.5v-156.5h40.232v156.5c0 4.142 3.357 7.5 7.5 7.5s7.5-3.358 7.5-7.5v-156.5h163.911v48.198c0 4.142 3.357 7.5 7.5 7.5s7.5-3.358 7.5-7.5v-92.146c0-12.159 9.893-22.052 22.052-22.052h173.753c12.159 0 22.052 9.893 22.052 22.052v200.448c0 4.142 3.357 7.5 7.5 7.5s7.5-3.358 7.5-7.5v-200.448c0-13.024-6.76-24.492-16.95-31.101zm-230.57-169.661v123.21h-47.06v-11.271c0-17.846-10.195-33.345-25.061-41.01 6.171-6.144 9.997-14.641 9.997-24.017 0-18.696-15.211-33.906-33.907-33.906s-33.906 15.21-33.906 33.906c0 9.375 3.826 17.873 9.997 24.017-14.865 7.665-25.06 23.164-25.06 41.01v11.271h-47.06v-119.093h19.701l20.119 20.119c2.995 2.997 7.454 3.848 11.311 2.251 3.892-1.612 6.407-5.376 6.407-9.589v-12.78h13.217c5.442 0 10.538-1.505 14.899-4.117h106.406zm-93.18 80.819c17.16 0 31.12 13.96 31.12 31.12v11.269h-67.94v-11.269c-.073-19.991 17.676-31.12 36.82-31.12zm-21.757-33.906c0-10.425 8.481-18.906 18.906-18.906 10.426 0 18.907 8.481 18.907 18.906s-8.481 18.907-18.907 18.907c-10.425-.001-18.906-8.482-18.906-18.907zm-119.543-121.11c0-7.771 6.322-14.093 14.093-14.093h99.082c7.771 0 14.093 6.322 14.093 14.093v49.221c0 7.771-6.322 14.093-14.093 14.093h-15.678c-6.914 0-12.539 5.625-12.539 12.538v4.085l-12.95-12.95c-2.368-2.369-5.517-3.674-8.867-3.674h-49.048c-7.771.001-14.093-6.321-14.093-14.092zm27.42 78.314v119.093h-15v-119.145c2.573.303 12.62.009 15 .052zm206.724 196.645v28.948h-246.644c-1.379 0-2.5-1.122-2.5-2.5v-46c0-1.378 1.121-2.5 2.5-2.5h253.957c-4.588 6.165-7.313 13.793-7.313 22.052zm16.946-37.292h-243.73c-13.78-.008-23.487-11.934-22.36-25.26h271.137c-3.465 7.768-5.263 16.401-5.047 25.26zm59.844-188.91c0-11.349 9.233-20.583 20.582-20.583h51.187c11.349 0 20.582 9.233 20.582 20.583v44.79c-15.719 3.672-31.826 5.468-47.957 5.336-14.936-.131-29.842-1.927-44.394-5.329zm1.085 60.387c14.196 3.003 28.67 4.61 43.177 4.737 15.777.138 31.561-1.447 46.997-4.712-4.564 20.693-23.039 36.227-45.083 36.227h-.001c-22.055 0-40.536-15.546-45.09-36.252zm74.014 67.985c-9.103 3.022-18.7 4.592-28.278 4.534-9.35-.033-18.733-1.591-27.636-4.537 4.199-5.725 6.272-13.052 6.001-20.44 6.549 2.4 13.619 3.71 20.989 3.71 8.103 0 15.837-1.598 22.921-4.472-.607 7.482 1.808 15.387 6.003 21.205zm64.017 61.138c-4.603-.742-178.901-.195-183.96-.36-.895-18.115 9.403-33.66 26.064-40.38.625-.252 23.743-9.336 24.31-9.586 12.948 5.659 27.124 8.671 41.237 8.722 14.366.052 28.8-2.962 41.977-8.721.692.305 23.589 9.299 24.317 9.585 16.541 6.504 27.059 22.918 26.055 40.74z"/></g></svg>