<svg id="Layer_1" enable-background="new 0 0 512 512" height="512" viewBox="0 0 512 512" width="512" xmlns="http://www.w3.org/2000/svg"><g><g><g><path d="m375.159 504.5h-238.318c-16.569 0-30-13.431-30-30v-437c0-16.569 13.431-30 30-30h238.319c16.569 0 30 13.431 30 30v437c-.001 16.569-13.432 30-30.001 30z" fill="#ecf5ff"/><path d="m375.159 7.5h-36c16.569 0 30 13.431 30 30v437c0 16.569-13.431 30-30 30h36c16.569 0 30-13.431 30-30v-437c0-16.569-13.431-30-30-30z" fill="#dbeafd"/></g><path d="m313.703 48.011h-115.406c-5.523 0-10-4.477-10-10v-30.511h135.405v30.511c.001 5.523-4.477 10-9.999 10z" fill="#506d90"/><g><circle cx="256" cy="276.255" fill="#dd8793" r="61.72"/><path d="m256 214.536c-5.175 0-10.197.646-15 1.845 26.836 6.702 46.72 30.962 46.72 59.875s-19.884 53.172-46.72 59.874c4.803 1.2 9.825 1.845 15 1.845 34.087 0 61.72-27.633 61.72-61.72s-27.633-61.719-61.72-61.719z" fill="#d5707e"/></g><g><path d="m163.187 186.255c0 27.743-14.514 52.097-36.362 65.883-12.009 7.577-26.233 5.951-41.482 5.951-15.248 0-29.473 1.626-41.482-5.951-21.848-13.786-36.361-38.139-36.361-65.883 0-42.992 34.852-77.844 77.844-77.844s77.843 34.853 77.843 77.844z" fill="#bcd7fd"/><path d="m85.344 108.412c-5.133 0-10.145.51-15 1.459 35.812 6.993 62.844 38.526 62.844 76.385s-27.032 69.392-62.844 76.385c4.855.948 11.216-1.489 16.349-1.489 15.248 0 28.124-1.437 40.133-9.013 21.849-13.785 36.362-38.139 36.362-65.883-.001-42.992-34.852-77.844-77.844-77.844z" fill="#9bc6fd"/><g><path d="m88.194 191.224h-5.7c-21.33 0-38.621 17.291-38.621 38.621v22.276c12.009 7.577 26.222 11.979 41.471 11.979s29.462-4.401 41.471-11.979v-22.276c-.001-21.33-17.292-38.621-38.621-38.621z" fill="#bfe69f"/><path d="m88.194 191.224h-5.7c-4.246 0-8.328.695-12.15 1.961 15.374 5.093 26.471 19.576 26.471 36.659v.409c0 15.606-10.88 29.27-26.184 32.328-.096.019-.191.038-.287.057 4.854.951 9.866 1.461 15 1.461 15.249 0 29.462-4.401 41.471-11.979v-22.276c-.001-21.329-17.292-38.62-38.621-38.62z" fill="#a4d9a6"/><circle cx="85.344" cy="164.818" fill="#f2ccbc" r="26.406"/><path d="m85.344 138.412c-4.811 0-9.318 1.293-13.203 3.542 7.891 4.566 13.203 13.092 13.203 22.865s-5.313 18.298-13.203 22.865c3.885 2.248 8.392 3.542 13.203 3.542 14.584 0 26.406-11.823 26.406-26.406s-11.823-26.408-26.406-26.408z" fill="#ecad9a"/></g></g><g><path d="m504.5 366.255c0 27.743-14.514 52.097-36.362 65.883-12.009 7.577-26.233 3.242-41.482 3.242s-29.473 4.335-41.482-3.242c-21.849-13.785-36.362-38.139-36.362-65.883 0-42.992 34.852-77.844 77.844-77.844s77.844 34.853 77.844 77.844z" fill="#bcd7fd"/><path d="m426.656 288.412c-5.133 0-10.145.51-15 1.459 35.812 6.993 62.844 38.526 62.844 76.385s-27.032 69.392-62.844 76.385c4.855.948 9.867-.608 15-.608 15.248 0 29.473-2.318 41.482-9.895 21.849-13.785 36.362-38.139 36.362-65.883 0-42.991-34.852-77.843-77.844-77.843z" fill="#9bc6fd"/><g><path d="m429.506 371.224h-5.7c-21.33 0-38.621 17.291-38.621 38.621v22.276c12.009 7.577 26.222 11.979 41.471 11.979s29.462-4.401 41.471-11.979v-22.276c0-21.33-17.291-38.621-38.621-38.621z" fill="#dd8793"/><path d="m429.506 371.224h-5.7c-4.246 0-8.328.695-12.15 1.961 15.374 5.093 26.471 19.576 26.471 36.659v.409c0 15.606-10.88 29.27-26.184 32.328-.096.019-.191.038-.287.057 4.854.951 9.866 1.461 15 1.461 15.249 0 29.462-4.401 41.471-11.979v-22.276c0-21.329-17.291-38.62-38.621-38.62z" fill="#d5707e"/><circle cx="426.656" cy="344.818" fill="#f2ccbc" r="26.406"/><path d="m426.656 318.412c-4.811 0-9.318 1.293-13.203 3.542 7.891 4.566 13.203 13.092 13.203 22.865s-5.313 18.298-13.203 22.865c3.885 2.248 8.392 3.542 13.203 3.542 14.584 0 26.406-11.823 26.406-26.406s-11.822-26.408-26.406-26.408z" fill="#ecad9a"/></g></g></g><path d="m426.656 280.912c-4.768 0-9.439.412-13.996 1.167v-244.579c0-20.678-16.822-37.5-37.5-37.5h-238.32c-20.678 0-37.5 16.822-37.5 37.5v64.579c-4.557-.755-9.228-1.167-13.996-1.167-47.059 0-85.344 38.285-85.344 85.343 0 47.347 39.049 85.344 85.344 85.344 4.768 0 9.44-.406 13.996-1.163v115.957c0 4.142 3.358 7.5 7.5 7.5s7.5-3.358 7.5-7.5v-119.882c32.976-12.011 56.348-43.425 56.348-80.256 0-36.882-23.521-68.369-56.348-80.264v-68.491c0-12.407 10.093-22.5 22.5-22.5h43.958v23.011c0 9.649 7.851 17.5 17.5 17.5h115.405c9.649 0 17.5-7.851 17.5-17.5v-23.011h43.958c12.407 0 22.5 10.093 22.5 22.5v248.491c-32.827 11.896-56.348 43.382-56.348 80.264 0 36.844 23.414 68.227 56.348 80.256v27.989c0 12.407-10.093 22.5-22.5 22.5h-238.321c-12.407 0-22.5-10.093-22.5-22.5v-53.107c0-4.142-3.358-7.5-7.5-7.5s-7.5 3.358-7.5 7.5v53.107c0 20.678 16.822 37.5 37.5 37.5h238.32c20.678 0 37.5-16.822 37.5-37.5v-24.064c4.556.757 9.229 1.163 13.996 1.163 46.363 0 85.344-37.915 85.344-85.344 0-47.058-38.285-85.343-85.344-85.343zm-307.342-33.085c-10.078 5.583-21.657 8.772-33.971 8.772s-23.893-3.19-33.971-8.772v-17.982c0-17.16 13.96-31.121 31.121-31.121h5.7c17.16 0 31.121 13.96 31.121 31.121zm-52.877-83.009c0-10.425 8.481-18.906 18.906-18.906s18.906 8.481 18.906 18.906-8.481 18.906-18.906 18.906-18.906-8.481-18.906-18.906zm89.25 21.437c0 19.764-8.205 37.638-21.373 50.429v-6.84c0-17.846-10.195-33.346-25.061-41.011 6.171-6.144 9.997-14.641 9.997-24.016 0-18.696-15.21-33.906-33.906-33.906s-33.906 15.21-33.906 33.906c0 9.375 3.826 17.872 9.997 24.016-14.866 7.665-25.061 23.165-25.061 41.011v6.84c-13.169-12.79-21.374-30.665-21.374-50.429 0-38.788 31.556-70.344 70.344-70.344s70.343 31.557 70.343 70.344zm160.516-148.244c0 1.378-1.122 2.5-2.5 2.5h-115.406c-1.378 0-2.5-1.122-2.5-2.5v-23.011h120.405v23.011zm144.424 389.816c-10.078 5.583-21.657 8.772-33.971 8.772s-23.893-3.19-33.971-8.772v-17.982c0-17.16 13.96-31.121 31.121-31.121h5.7c17.16 0 31.121 13.96 31.121 31.121zm-52.877-83.009c0-10.425 8.481-18.906 18.906-18.906s18.906 8.481 18.906 18.906-8.481 18.906-18.906 18.906-18.906-8.481-18.906-18.906zm67.877 71.866v-6.84c0-17.846-10.195-33.346-25.061-41.011 6.171-6.144 9.997-14.641 9.997-24.016 0-18.696-15.21-33.906-33.906-33.906s-33.906 15.21-33.906 33.906c0 9.375 3.826 17.872 9.997 24.016-14.866 7.665-25.061 23.165-25.061 41.011v6.84c-13.168-12.791-21.373-30.665-21.373-50.429 0-38.788 31.556-70.344 70.344-70.344s70.342 31.557 70.342 70.344c0 19.764-8.205 37.639-21.373 50.429zm-179.068-176.413c2.75 3.097 7.491 3.38 10.588.628 3.097-2.75 3.378-7.491.628-10.588-13.135-14.791-32.006-23.275-51.775-23.275-38.168 0-69.22 31.052-69.22 69.22s31.052 69.22 69.22 69.22 69.22-31.052 69.22-69.22c0-3.527-.268-7.071-.797-10.532-.625-4.095-4.451-6.907-8.547-6.281-4.095.625-6.907 4.452-6.281 8.547.415 2.714.625 5.495.625 8.267 0 29.897-24.323 54.22-54.22 54.22s-54.22-24.323-54.22-54.22 24.323-54.22 54.22-54.22c15.485-.001 30.268 6.645 40.559 18.234zm-39.172 45.955c-1.366 2.251-3.941 3.542-6.579 3.29l-.167-.016c-2.648-.254-5.25-1.118-7.522-2.498-3.54-2.152-8.153-1.023-10.303 2.517s-1.023 8.153 2.517 10.303c4.193 2.547 8.991 4.141 13.892 4.61 8.292.795 16.623-3.218 20.983-10.422l6.883-11.335c4.369-7.191 4.132-16.381-.438-23.437-2.667-4.118-6.294-7.641-10.489-10.188-3.54-2.15-8.153-1.023-10.303 2.518s-1.022 8.153 2.518 10.303c2.309 1.402 4.316 3.408 5.785 5.675 1.432 2.21 1.474 5.092.107 7.343z"/></g></svg>