<svg id="Layer_1" enable-background="new 0 0 512 512" height="512" viewBox="0 0 512 512" width="512" xmlns="http://www.w3.org/2000/svg"><g><g><g><g><path d="m474.5 392.962h-437c-16.569 0-30-13.431-30-30v-282.417c0-16.569 13.431-30 30-30h437c16.569 0 30 13.431 30 30v282.417c0 16.568-13.431 30-30 30z" fill="#506d90"/><path d="m474.5 50.545h-30c16.569 0 30 13.431 30 30v282.417c0 16.569-13.431 30-30 30h30c16.569 0 30-13.431 30-30v-282.417c0-16.569-13.431-30-30-30z" fill="#455f7e"/><path d="m37.5 343.962v-259.417c0-2.209 1.791-4 4-4h429c2.209 0 4 1.791 4 4v259.417c0 2.209-1.791 4-4 4h-429c-2.209 0-4-1.791-4-4z" fill="#ecf5ff"/><path d="m37.5 343.962v-259.417c0-2.209 1.791-4 4-4h429c2.209 0 4 1.791 4 4v259.417c0 2.209-1.791 4-4 4h-429c-2.209 0-4-1.791-4-4z" fill="#ecf5ff"/><path d="m470.5 80.545h-30c2.209 0 4 1.791 4 4v259.417c0 2.209-1.791 4-4 4h30c2.209 0 4-1.791 4-4v-259.417c0-2.21-1.791-4-4-4z" fill="#dbeafd"/><path d="m305.543 504.5h-99.086l15-111.538h69.086z" fill="#455f7e"/><path d="m290.543 392.962h-30l15 111.538h30z" fill="#405972"/><path d="m320.895 456.277 10.563 38.085c1.414 5.097-2.42 10.138-7.709 10.138h-135.497c-5.289 0-9.123-5.041-7.709-10.138l10.563-38.085c.961-3.464 4.114-5.862 7.709-5.862h114.372c3.594 0 6.747 2.397 7.708 5.862z" fill="#506d90"/><path d="m331.458 494.362-10.563-38.085c-.961-3.464-4.114-5.862-7.709-5.862h-30c3.595 0 6.748 2.398 7.709 5.862l10.563 38.085c1.414 5.097-2.42 10.138-7.709 10.138h30c5.289 0 9.122-5.041 7.709-10.138z" fill="#455f7e"/></g><path d="m112.01 67.5h287.98v280.462h-287.98z" fill="#f7f6f7"/><path d="m369.99 67.5h30v280.462h-30z" fill="#e2d8ec"/><path d="m372.99 7.5h-248.98c-6.627 0-12 5.373-12 12v48h287.98l-15-48c0-6.627-5.373-12-12-12z" fill="#455f7e"/><path d="m387.99 7.5h-30c6.627 0 12 5.373 12 12v48h30v-48c0-6.627-5.373-12-12-12z" fill="#405972"/></g><g><path d="m225.476 347.962v-22.276c0-21.33-17.291-38.621-38.62-38.621h-5.7c-21.33 0-38.621 17.291-38.621 38.621v22.276z" fill="#f7e07f"/><path d="m186.855 287.065h-5.7c-4.246 0-8.328.695-12.15 1.961 15.374 5.093 26.47 19.576 26.47 36.659v22.276h30v-22.276c.001-21.329-17.29-38.62-38.62-38.62z" fill="#f0d16f"/><circle cx="184.005" cy="260.659" fill="#f2ccbc" r="26.406"/><path d="m184.005 234.253c-4.811 0-9.318 1.293-13.203 3.542 7.891 4.566 13.203 13.092 13.203 22.865s-5.313 18.298-13.203 22.865c3.885 2.248 8.392 3.542 13.203 3.542 14.584 0 26.406-11.823 26.406-26.406s-11.822-26.408-26.406-26.408z" fill="#ecad9a"/></g><g><path d="m369.466 347.962v-22.276c0-21.33-17.291-38.621-38.62-38.621h-5.7c-21.33 0-38.621 17.291-38.621 38.621v22.276z" fill="#bcd7fd"/><path d="m330.845 287.065h-5.7c-4.246 0-8.328.695-12.15 1.961 15.374 5.093 26.47 19.576 26.47 36.659v22.276h30v-22.276c.001-21.329-17.29-38.62-38.62-38.62z" fill="#9bc6fd"/><circle cx="327.995" cy="260.659" fill="#f2ccbc" r="26.406"/><path d="m327.995 234.253c-4.811 0-9.318 1.293-13.203 3.542 7.891 4.566 13.203 13.092 13.203 22.865s-5.313 18.298-13.203 22.865c3.885 2.248 8.392 3.542 13.203 3.542 14.584 0 26.406-11.823 26.406-26.406s-11.822-26.408-26.406-26.408z" fill="#ecad9a"/></g><g><path d="m225.476 207.731v-22.276c0-21.33-17.291-38.621-38.62-38.621h-5.7c-21.33 0-38.621 17.291-38.621 38.621v22.276z" fill="#dd8793"/><path d="m186.855 146.835h-5.7c-4.246 0-8.328.695-12.15 1.961 15.374 5.093 26.47 19.576 26.47 36.659v22.276h30v-22.276c.001-21.329-17.29-38.62-38.62-38.62z" fill="#d5707e"/><circle cx="184.005" cy="120.428" fill="#f2ccbc" r="26.406"/><path d="m184.005 94.022c-4.811 0-9.318 1.293-13.203 3.542 7.891 4.566 13.203 13.092 13.203 22.865s-5.313 18.298-13.203 22.865c3.885 2.248 8.392 3.542 13.203 3.542 14.584 0 26.406-11.823 26.406-26.406s-11.822-26.408-26.406-26.408z" fill="#ecad9a"/></g><g><path d="m369.466 207.731v-22.276c0-21.33-17.291-38.621-38.62-38.621h-5.7c-21.33 0-38.621 17.291-38.621 38.621v22.276z" fill="#bfe69f"/><path d="m330.845 146.835h-5.7c-4.246 0-8.328.695-12.15 1.961 15.374 5.093 26.47 19.576 26.47 36.659v22.276h30v-22.276c.001-21.329-17.29-38.62-38.62-38.62z" fill="#a4d9a6"/><circle cx="327.995" cy="120.428" fill="#f2ccbc" r="26.406"/><path d="m327.995 94.022c-4.811 0-9.318 1.293-13.203 3.542 7.891 4.566 13.203 13.092 13.203 22.865s-5.313 18.298-13.203 22.865c3.885 2.248 8.392 3.542 13.203 3.542 14.584 0 26.406-11.823 26.406-26.406s-11.822-26.408-26.406-26.408z" fill="#ecad9a"/></g></g><path d="m134.51 37.5c0 4.142 3.358 7.5 7.5 7.5s7.5-3.358 7.5-7.5-3.358-7.5-7.5-7.5-7.5 3.358-7.5 7.5zm60 0c0 4.142 3.358 7.5 7.5 7.5s7.5-3.358 7.5-7.5-3.358-7.5-7.5-7.5-7.5 3.358-7.5 7.5zm279.99 5.54h-67.01v-23.54c0-10.752-8.748-19.5-19.5-19.5h-68.198c-4.142 0-7.5 3.358-7.5 7.5s3.358 7.5 7.5 7.5h68.198c2.481 0 4.5 2.019 4.5 4.5v40.5h-272.98v-40.5c0-2.481 2.019-4.5 4.5-4.5h160.782c4.142 0 7.5-3.358 7.5-7.5s-3.358-7.5-7.5-7.5h-160.782c-10.752 0-19.5 8.748-19.5 19.5v23.54h-67.01c-20.678 0-37.5 16.822-37.5 37.5v282.42c0 20.678 16.822 37.5 37.5 37.5h175.383l-5.712 42.455h-8.357c-6.939 0-13.081 4.67-14.936 11.357l-10.563 38.085c-1.306 4.707-.358 9.637 2.598 13.524 2.957 3.888 7.454 6.118 12.338 6.118h135.497c4.884 0 9.381-2.23 12.338-6.118s3.904-8.817 2.598-13.524l-10.563-38.085c-1.855-6.687-7.997-11.357-14.936-11.357h-8.357l-5.712-42.455h175.384c20.678 0 37.5-16.822 37.5-37.5v-282.42c0-20.678-16.822-37.5-37.5-37.5zm-67.01 45h59.51v252.42h-59.51zm-143.99-13.04h128.99v125.231h-15.524v-14.776c0-17.846-10.195-33.346-25.061-41.011 6.171-6.144 9.997-14.641 9.997-24.016 0-18.696-15.21-33.906-33.906-33.906s-33.906 15.21-33.906 33.906c0 9.375 3.826 17.872 9.997 24.016-14.866 7.665-25.061 23.165-25.061 41.011v14.776h-15.526zm61.645 79.334h5.7c17.16 0 31.12 13.96 31.12 31.121v14.776h-67.941v-14.776c0-17.16 13.961-31.121 31.121-31.121zm-16.056-33.906c0-10.425 8.481-18.906 18.906-18.906s18.906 8.481 18.906 18.906-8.481 18.906-18.906 18.906-18.906-8.481-18.906-18.906zm-45.589 94.803h128.99v125.229h-15.524v-14.774c0-17.846-10.195-33.346-25.061-41.011 6.171-6.144 9.997-14.641 9.997-24.016 0-18.696-15.21-33.906-33.906-33.906s-33.906 15.21-33.906 33.906c0 9.375 3.826 17.872 9.997 24.016-14.866 7.665-25.061 23.165-25.061 41.011v14.774h-15.526zm61.645 79.334h5.7c17.16 0 31.12 13.96 31.12 31.121v14.774h-67.941v-14.774c0-17.16 13.961-31.121 31.121-31.121zm-16.056-33.906c0-10.425 8.481-18.906 18.906-18.906s18.906 8.481 18.906 18.906-8.481 18.906-18.906 18.906-18.906-8.481-18.906-18.906zm-189.579-185.659h128.99v125.231h-15.524v-14.776c0-17.846-10.195-33.346-25.061-41.011 6.171-6.144 9.997-14.641 9.997-24.016 0-18.696-15.21-33.906-33.906-33.906s-33.906 15.21-33.906 33.906c0 9.375 3.826 17.872 9.997 24.016-14.866 7.665-25.061 23.165-25.061 41.011v14.776h-15.526zm61.645 79.334h5.7c17.16 0 31.121 13.96 31.121 31.121v14.776h-67.941v-14.776c0-17.16 13.96-31.121 31.12-31.121zm-16.056-33.906c0-10.425 8.481-18.906 18.906-18.906s18.906 8.481 18.906 18.906-8.481 18.906-18.906 18.906-18.906-8.481-18.906-18.906zm-45.589 94.803h128.99v125.229h-15.524v-14.774c0-17.846-10.195-33.346-25.061-41.011 6.171-6.144 9.997-14.641 9.997-24.016 0-18.696-15.21-33.906-33.906-33.906s-33.906 15.21-33.906 33.906c0 9.375 3.826 17.872 9.997 24.016-14.866 7.665-25.061 23.165-25.061 41.011v14.774h-15.526zm61.645 79.334h5.7c17.16 0 31.121 13.96 31.121 31.121v14.774h-67.941v-14.774c0-17.16 13.96-31.121 31.12-31.121zm-16.056-33.906c0-10.425 8.481-18.906 18.906-18.906s18.906 8.481 18.906 18.906-8.481 18.906-18.906 18.906-18.906-8.481-18.906-18.906zm148.087 197.256c.224 0 .422.15.482.366l10.563 38.085c.095.241-.224.662-.482.634h-135.498c-.258.028-.579-.389-.482-.634l10.563-38.085c.06-.216.258-.367.482-.367h114.372zm-90.88-15 5.712-42.455h55.963l5.712 42.455zm274.694-79.955c0 12.407-10.093 22.5-22.5 22.5h-437c-12.407 0-22.5-10.093-22.5-22.5v-282.42c0-12.407 10.093-22.5 22.5-22.5h67.01v15h-63.01c-6.341 0-11.5 5.159-11.5 11.5v186.109c0 4.142 3.358 7.5 7.5 7.5s7.5-3.358 7.5-7.5v-182.609h59.51v252.42h-59.51v-34.811c0-4.142-3.358-7.5-7.5-7.5s-7.5 3.358-7.5 7.5v38.311c0 6.341 5.159 11.5 11.5 11.5h429c6.341 0 11.5-5.159 11.5-11.5v-259.42c0-6.341-5.159-11.5-11.5-11.5h-63.01v-15h67.01c12.407 0 22.5 10.093 22.5 22.5zm-332.49-325.46c0 4.142 3.358 7.5 7.5 7.5s7.5-3.358 7.5-7.5-3.358-7.5-7.5-7.5-7.5 3.358-7.5 7.5z"/></g></svg>