<svg id="Layer_1" enable-background="new 0 0 512 512" height="512" viewBox="0 0 512 512" width="512" xmlns="http://www.w3.org/2000/svg"><g><g><g><g><g><path d="m504.5 67.5v407c0 16.569-13.431 30-30 30h-68.661l-147.851-15-151.827 15h-68.661c-16.569 0-30-13.431-30-30v-407z" fill="#f7f6f7"/><path d="m474.5 67.5v407c0 16.569-13.431 30-30 30h30c16.569 0 30-13.431 30-30v-407z" fill="#e2d8ec"/><path d="m474.5 7.5h-437c-16.569 0-30 13.431-30 30v30h497v-30c0-16.569-13.431-30-30-30z" fill="#506d90"/><path d="m474.5 7.5h-30c16.569 0 30 13.431 30 30v30h30v-30c0-16.569-13.431-30-30-30z" fill="#455f7e"/></g></g></g><g><g><g><path d="m390.839 489.5 15-22.881v-65.606c0-23.717-16.502-44.239-39.666-49.33l-62.017-13.63c-7.721-1.697-13.222-8.538-13.222-16.443v-51.281h-69.869v51.281c0 7.906-5.501 14.746-13.222 16.443l-62.017 13.63c-23.164 5.091-39.666 25.613-39.666 49.33v65.606l15 22.881 43.207 15h183.264z" fill="#dd8793"/></g><g><path d="m366.173 351.683-62.017-13.63c-7.721-1.697-13.222-8.538-13.222-16.443v-51.281l-30 15v51.281c0 7.906 5.5 14.746 13.222 16.443l62.017 13.63c23.164 5.091 39.666 25.613 39.666 49.33v65.606l30-15v-65.606c0-23.716-16.502-44.239-39.666-49.33z" fill="#d5707e"/></g><g><path d="m304.156 338.053c-7.721-1.697-13.222-8.538-13.222-16.443v-51.281h-69.869v51.281c0 7.906-5.501 14.746-13.222 16.443l48.157 23.199z" fill="#f2ccbc"/></g><path d="m290.935 321.61v-51.281l-30 15v51.281c0 7.651 5.158 14.289 12.489 16.249l30.733-14.805c-1.93-.424-3.722-1.17-5.323-2.173-.801-.502-1.554-1.068-2.253-1.691-3.498-3.114-5.646-7.639-5.646-12.58z" fill="#ecad9a"/><path d="m106.161 466.619h65.707v37.881h-65.707z" fill="#f2ccbc"/><g><path d="m340.132 466.619h65.707v37.881h-65.707z" fill="#f2ccbc"/><path d="m375.839 466.619h30v37.881h-30z" fill="#ecad9a"/></g><path d="m158.705 243.243h39.59v-49.927h-39.59c-5.523 0-10 4.477-10 10v29.927c0 5.523 4.477 10 10 10z" fill="#506d90"/><g><path d="m329.988 202.139h-147.976v-60.293c0-22.487 18.23-40.717 40.717-40.717h66.542c22.487 0 40.717 18.23 40.717 40.717z" fill="#cf9772"/><path d="m289.271 101.129h-30c22.487 0 40.717 18.23 40.717 40.717v60.293h30v-60.293c0-22.488-18.23-40.717-40.717-40.717z" fill="#c88556"/><path d="m329.988 193.316c-6.332-1.816-16.75-5.674-27.261-14.133-8.914-7.173-14.629-15.028-18.143-20.966-1.259-2.129-4.149-2.597-6.021-.981-6.906 5.961-15.514 12.29-25.977 17.973-28.102 15.262-54.917 17.893-70.574 18.107v47.173c0 40.862 33.125 73.988 73.988 73.988 1.718 0 3.422-.059 5.111-.174 4.068-.278 8.051-4.384 11.912-5.293 6.436-1.515 12.543-.371 18.208-3.444 23.084-12.523 38.757-36.97 38.757-65.078z" fill="#f2ccbc"/><path d="m299.988 193.316v47.173c.215 4.681.813 28.172-16.867 47.028-24.303 25.918-60.205 18.617-62.055 18.208 6.127 3.228 15.455 7.133 27.323 8.364 0 0 3.862.388 7.611.388 40.862 0 73.988-33.125 73.988-73.988v-47.173c-6.332-1.816-16.75-5.674-27.261-14.133-.949-.764-1.862-1.535-2.739-2.311z" fill="#ecad9a"/></g><path d="m232.266 384.986 23.734-23.734-39.018-28.672c-2.314 2.691-5.471 4.667-9.139 5.473l-34.778 7.644 54.003 39.684c1.593 1.169 3.801 1.002 5.198-.395z" fill="#d5707e"/><path d="m338.935 345.697-34.778-7.644c-3.668-.806-6.824-2.782-9.139-5.473l-39.018 28.672 23.734 23.734c1.397 1.397 3.605 1.565 5.197.395z" fill="#d5707e"/><path d="m299.285 336.137c-.833-.486-1.613-1.037-2.351-1.658-.35-.294-.645-.651-1.01-.924-.314-.312-.615-.636-.904-.972-.001-.001-.002-.002-.002-.003l-25.462 18.711c1.414.791 2.953 1.4 4.601 1.762l42.158 9.266 22.62-16.622-34.778-7.644c-1.709-.378-3.364-1.036-4.872-1.916z" fill="#d2697e"/><g><path d="m265.699 285.077h-15.422c-7.02 0-12.71-5.69-12.71-12.71 0-7.02 5.69-12.71 12.71-12.71h15.422c7.02 0 12.71 5.69 12.71 12.71 0 7.02-5.69 12.71-12.71 12.71z" fill="#455f7e"/></g><path d="m353.295 243.243h-23.307v-49.927h23.307c5.523 0 10 4.477 10 10v29.927c0 5.523-4.477 10-10 10z" fill="#506d90"/></g></g></g><path d="m256 456.945c-4.142 0-7.5 3.358-7.5 7.5s3.358 7.5 7.5 7.5 7.5-3.358 7.5-7.5-3.358-7.5-7.5-7.5zm-183.642-426.945c-4.142 0-7.5 3.358-7.5 7.5s3.358 7.5 7.5 7.5 7.5-3.358 7.5-7.5-3.358-7.5-7.5-7.5zm-30 0c-4.142 0-7.5 3.358-7.5 7.5s3.358 7.5 7.5 7.5 7.5-3.358 7.5-7.5-3.358-7.5-7.5-7.5zm213.642 396.945c-4.142 0-7.5 3.358-7.5 7.5s3.358 7.5 7.5 7.5 7.5-3.358 7.5-7.5-3.358-7.5-7.5-7.5zm-35.697-190.343c4.143 0 7.5-3.358 7.5-7.5v-14.279c0-4.142-3.357-7.5-7.5-7.5s-7.5 3.358-7.5 7.5v14.279c0 4.142 3.357 7.5 7.5 7.5zm254.197-236.602h-437c-20.678 0-37.5 16.822-37.5 37.5v437c0 20.678 16.822 37.5 37.5 37.5h437c20.678 0 37.5-16.822 37.5-37.5v-437c0-20.678-16.822-37.5-37.5-37.5zm-310.132 497h-50.708v-22.881h50.708zm233.972 0h-50.708v-22.881h50.708zm98.66-437h-387.601c-4.143 0-7.5 3.358-7.5 7.5s3.357 7.5 7.5 7.5h387.601v399.5c0 12.407-10.094 22.5-22.5 22.5h-61.16v-95.99c0-6.447-1.06-12.796-3.149-18.869-1.347-3.916-5.61-6-9.532-4.651-3.917 1.348-5.999 5.615-4.651 9.532 1.548 4.499 2.333 9.206 2.333 13.988v58.109h-50.708v-6.704c0-4.142-3.357-7.5-7.5-7.5s-7.5 3.358-7.5 7.5v44.585h-153.265v-44.584c0-4.142-3.357-7.5-7.5-7.5s-7.5 3.358-7.5 7.5v6.704h-50.708v-58.11c0-20.039 14.206-37.705 33.78-42.004l23.916-5.257 51.272 37.675c2.057 1.511 4.445 2.254 6.82 2.254 2.95 0 5.879-1.146 8.121-3.389l18.431-18.431 18.43 18.43c2.242 2.243 5.172 3.39 8.123 3.39 2.374 0 4.763-.743 6.819-2.253l51.272-37.676 23.917 5.257c4.611 1.013 8.987 2.758 13.006 5.186 3.493 2.111 8.132 1.043 10.298-2.541 2.143-3.545 1.005-8.156-2.541-10.298-5.425-3.278-11.328-5.632-17.544-6.998l-62.017-13.632c-4.249-.93-7.334-4.763-7.334-9.113v-11.581c20.63-12.643 35.227-34.21 38.391-59.289h16.469c9.649 0 17.5-7.851 17.5-17.5v-29.92c0-9.649-7.851-17.5-17.5-17.5h-15.802v-43.974c0-26.587-21.631-48.217-48.218-48.217h-66.541c-26.587 0-48.218 21.63-48.218 48.217v43.974h-15.8c-9.649 0-17.5 7.851-17.5 17.5v29.92c0 9.649 7.851 17.5 17.5 17.5h16.469c3.164 25.079 17.761 46.646 38.391 59.289v11.581c0 4.351-3.085 8.183-7.341 9.115l-62.009 13.63c-26.399 5.799-45.561 29.626-45.561 56.655v95.99h-61.159c-12.406 0-22.5-10.093-22.5-22.5v-399.5h59.399c4.143 0 7.5-3.358 7.5-7.5s-3.357-7.5-7.5-7.5h-59.399v-22.5c0-12.407 10.094-22.5 22.5-22.5h437c12.406 0 22.5 10.093 22.5 22.5zm-240.835 121.8c8.504-4.619 16.614-10.074 24.159-16.248 4.864 7.387 10.805 13.926 17.7 19.475 7.387 5.944 15.595 10.553 24.464 13.745v33.431c-.962 4.835-4.149 15.599-14.238 23.789-8.418 6.834-17.725 8.615-23.77 8.955-2.966-7.48-10.258-12.791-18.781-12.791h-15.422c-11.144 0-20.21 9.066-20.21 20.21s9.066 20.21 20.21 20.21h15.422c8.451 0 15.698-5.219 18.711-12.6 8.124-.308 20.253-2.486 31.705-11.113-10.666 22.507-33.598 38.114-60.115 38.114-36.662 0-66.488-29.826-66.488-66.488v-39.941c23.603-1.381 46.508-7.807 66.653-18.748zm-66.653 3.707v-43.661c0-18.316 14.901-33.217 33.218-33.217h66.541c18.316 0 33.218 14.901 33.218 33.217v40.748c-5.375-2.426-10.416-5.517-15.06-9.253-6.563-5.282-12.078-11.655-16.389-18.94-1.732-2.93-4.655-4.927-8.018-5.478-3.369-.551-6.777.409-9.36 2.636-7.607 6.566-15.902 12.306-24.655 17.06-17.966 9.756-38.395 15.53-59.495 16.888zm81.397 86.86c0 2.873-2.337 5.21-5.21 5.21h-15.422c-2.873 0-5.21-2.337-5.21-5.21s2.337-5.21 5.21-5.21h15.422c2.873 0 5.21 2.338 5.21 5.21zm14.255 58.146-29.164 21.431-29.164-21.431c1.11-2.783 1.735-5.788 1.735-8.903v-4.406c8.576 3.078 17.806 4.774 27.43 4.774s18.853-1.696 27.43-4.774v4.406c-.001 3.115.624 6.12 1.733 8.903zm9.548 11.599c2.358 1.514 4.995 2.641 7.837 3.263l18.594 4.087-38.232 28.095-15.434-15.433zm-50.191 20.012-15.434 15.433-38.232-28.094 18.587-4.086c2.844-.623 5.484-1.751 7.843-3.265zm92.967-126.384v-34.92h15.802c1.379 0 2.5 1.122 2.5 2.5v29.92c0 1.378-1.121 2.5-2.5 2.5zm-162.976-34.92v34.92h-15.802c-1.379 0-2.5-1.122-2.5-2.5v-29.92c0-1.378 1.121-2.5 2.5-2.5zm117.185 35.782c4.143 0 7.5-3.358 7.5-7.5v-14.279c0-4.142-3.357-7.5-7.5-7.5s-7.5 3.358-7.5 7.5v14.279c0 4.142 3.358 7.5 7.5 7.5zm-35.697 160.343c-4.142 0-7.5 3.358-7.5 7.5s3.358 7.5 7.5 7.5 7.5-3.358 7.5-7.5-3.358-7.5-7.5-7.5zm-153.642-366.945c-4.142 0-7.5 3.358-7.5 7.5s3.358 7.5 7.5 7.5 7.5-3.358 7.5-7.5-3.358-7.5-7.5-7.5z"/></g></svg>