<svg id="Layer_1" enable-background="new 0 0 512 512" height="512" viewBox="0 0 512 512" width="512" xmlns="http://www.w3.org/2000/svg"><g><g><g><g><g><g><g><path d="m482 429.5h-452v-345.686c0-16.569 13.431-30 30-30h392c16.569 0 30 13.431 30 30z" fill="#506d90"/><path d="m452 53.814h-30c16.569 0 30 13.432 30 30v345.686h30v-345.686c0-16.569-13.431-30-30-30z" fill="#455f7e"/><path d="m60 377.231v-289.417c0-2.209 1.791-4 4-4h384c2.209 0 4 1.791 4 4v289.417c0 2.209-1.791 4-4 4h-384c-2.209 0-4-1.791-4-4z" fill="#ecf5ff"/><path d="m448 83.814h-30c2.209 0 4 1.791 4 4v289.417c0 2.209-1.791 4-4 4h30c2.209 0 4-1.791 4-4v-289.417c0-2.209-1.791-4-4-4z" fill="#dbeafd"/><g><path d="m112.01 67.5h287.98v313.731h-287.98z" fill="#f7f6f7"/><path d="m369.99 67.5h30v313.731h-30z" fill="#e2d8ec"/><g><path d="m260.396 124.876 8.072 16.355c.714 1.447 2.094 2.45 3.691 2.682l18.048 2.623c4.021.584 5.627 5.526 2.717 8.362l-13.06 12.73c-1.155 1.126-1.683 2.749-1.41 4.339l3.083 17.976c.687 4.005-3.517 7.059-7.113 5.168l-16.143-8.487c-1.428-.751-3.134-.751-4.563 0l-16.143 8.487c-3.596 1.891-7.8-1.163-7.113-5.168l3.083-17.976c.273-1.59-.254-3.213-1.41-4.339l-13.06-12.73c-2.91-2.836-1.304-7.778 2.717-8.362l18.048-2.623c1.597-.232 2.977-1.235 3.691-2.682l8.072-16.355c1.799-3.644 6.995-3.644 8.793 0z" fill="#f7e07f"/><g><path d="m292.924 154.897c2.91-2.836 1.304-7.778-2.717-8.362l-18.048-2.623c-1.597-.232-2.977-1.235-3.691-2.682l-8.072-16.355c-1.798-3.644-6.994-3.644-8.792 0l-8.072 16.355c-.534 1.082-1.441 1.915-2.532 2.364.368.151.756.259 1.159.318l6.447.937c8.767 1.274 12.267 12.048 5.924 18.231-4.076 3.973-5.935 9.697-4.973 15.306l1.64 9.563 2.523-1.327c1.428-.751 3.134-.751 4.562 0l16.143 8.487c3.597 1.891 7.8-1.163 7.113-5.168l-3.083-17.976c-.273-1.59.254-3.213 1.41-4.339z" fill="#f0d16f"/></g><g><path d="m176.903 192.562 6.249 12.662c.553 1.12 1.621 1.897 2.858 2.076l13.973 2.03c3.113.452 4.356 4.278 2.103 6.474l-10.111 9.856c-.895.872-1.303 2.128-1.092 3.359l2.387 13.917c.532 3.1-2.722 5.465-5.507 4.001l-12.498-6.57c-1.106-.581-2.427-.581-3.532 0l-12.498 6.57c-2.784 1.464-6.039-.901-5.507-4.001l2.387-13.917c.211-1.231-.197-2.487-1.092-3.359l-10.111-9.856c-2.253-2.196-1.01-6.021 2.103-6.474l13.973-2.03c1.236-.18 2.305-.956 2.858-2.076l6.249-12.662c1.394-2.821 5.416-2.821 6.808 0z" fill="#f7e07f"/><path d="m341.903 192.562 6.249 12.662c.553 1.12 1.621 1.897 2.858 2.076l13.973 2.03c3.113.452 4.356 4.278 2.103 6.474l-10.111 9.856c-.895.872-1.303 2.128-1.092 3.359l2.387 13.917c.532 3.1-2.723 5.465-5.507 4.001l-12.498-6.57c-1.106-.581-2.427-.581-3.532 0l-12.498 6.57c-2.784 1.464-6.039-.901-5.507-4.001l2.387-13.917c.211-1.231-.197-2.487-1.092-3.359l-10.111-9.856c-2.253-2.196-1.01-6.021 2.103-6.474l13.973-2.03c1.236-.18 2.305-.956 2.858-2.076l6.249-12.662c1.394-2.821 5.416-2.821 6.808 0z" fill="#f7e07f"/><g><path d="m367.086 215.804c2.253-2.196 1.01-6.021-2.103-6.474l-13.973-2.03c-1.236-.18-2.305-.956-2.858-2.076l-6.249-12.662c-1.392-2.821-5.414-2.821-6.807 0l-6.249 12.662c-.553 1.12-1.622 1.897-2.858 2.076l-2.49.362 4.805.698c5.845.849 8.178 8.032 3.949 12.154-4.199 4.093-6.116 9.991-5.124 15.771l1.141 6.651c.122.712.037 1.382-.188 1.979l8.652-4.548c1.106-.581 2.427-.581 3.532 0l12.498 6.57c2.784 1.464 6.039-.9 5.507-4.001l-2.387-13.917c-.211-1.231.197-2.487 1.092-3.359z" fill="#f0d16f"/></g><g><path d="m202.086 215.804c2.253-2.196 1.01-6.021-2.103-6.474l-13.973-2.03c-1.236-.18-2.305-.956-2.858-2.076l-6.249-12.662c-1.392-2.821-5.414-2.821-6.807 0l-6.249 12.662c-.553 1.12-1.622 1.897-2.858 2.076l-2.49.362 4.805.698c5.845.849 8.178 8.032 3.949 12.154-4.199 4.093-6.116 9.991-5.124 15.771l1.141 6.651c.122.712.037 1.382-.188 1.979l8.652-4.548c1.106-.581 2.427-.581 3.532 0l12.498 6.57c2.784 1.464 6.039-.9 5.507-4.001l-2.387-13.917c-.211-1.231.197-2.487 1.092-3.359z" fill="#f0d16f"/></g></g></g><path d="m387.99 7.5h-263.98c-6.627 0-12 5.373-12 12v48h287.98v-48c0-6.627-5.373-12-12-12z" fill="#455f7e"/><path d="m387.99 7.5h-30c6.627 0 12 5.373 12 12v48h30v-48c0-6.627-5.373-12-12-12z" fill="#405972"/></g><g><path d="m12.5 429.5h487c2.761 0 5 2.239 5 5v34.549c0 19.579-15.872 35.451-35.451 35.451h-426.098c-19.579 0-35.451-15.872-35.451-35.451v-34.549c0-2.761 2.239-5 5-5z" fill="#455f7e"/><g fill="#405972"><path d="m499.5 429.5h-30c2.761 0 5 2.239 5 5v34.549c0 19.579-15.872 35.451-35.451 35.451h30c19.579 0 35.451-15.872 35.451-35.451v-34.549c0-2.761-2.239-5-5-5z"/><path d="m288.955 459.5h-65.911c-5.523 0-10-4.477-10-10v-20h85.911v20c0 5.523-4.477 10-10 10z"/></g></g></g></g></g></g></g></g><path d="m202.01 30c-4.142 0-7.5 3.358-7.5 7.5s3.358 7.5 7.5 7.5 7.5-3.358 7.5-7.5-3.358-7.5-7.5-7.5zm-60 0c-4.142 0-7.5 3.358-7.5 7.5s3.358 7.5 7.5 7.5 7.5-3.358 7.5-7.5-3.358-7.5-7.5-7.5zm30 0c-4.142 0-7.5 3.358-7.5 7.5s3.358 7.5 7.5 7.5 7.5-3.358 7.5-7.5-3.358-7.5-7.5-7.5zm132.669 191.174 8.716 8.496-2.057 11.996c-.733 4.269.988 8.502 4.492 11.048 3.514 2.554 8.077 2.869 11.896.86l10.773-5.665 10.773 5.664c3.831 2.016 8.391 1.687 11.896-.86 3.504-2.546 5.226-6.779 4.492-11.047l-2.057-11.997 8.715-8.496c3.103-3.023 4.197-7.46 2.859-11.58-1.339-4.119-4.832-7.064-9.117-7.687l-12.047-1.751-5.387-10.914c-1.916-3.884-5.797-6.297-10.129-6.297s-8.213 2.413-10.129 6.296l-5.387 10.915-12.046 1.751c-4.286.623-7.779 3.568-9.118 7.687-1.335 4.122-.24 8.558 2.862 11.581zm22.387-6.452c3.681-.533 6.86-2.844 8.507-6.179l2.927-5.93 2.927 5.93c1.646 3.336 4.826 5.646 8.504 6.179l6.545.951-4.735 4.617c-2.662 2.595-3.877 6.332-3.248 9.997l1.117 6.518-5.855-3.079c-3.289-1.728-7.218-1.727-10.511.001l-5.853 3.077 1.118-6.519c.628-3.664-.587-7.401-3.249-9.997l-4.735-4.616zm172.434 207.278h-10v-338.19c0-20.678-16.822-37.5-37.5-37.5h-44.51v-26.81c0-10.752-8.748-19.5-19.5-19.5h-263.98c-10.752 0-19.5 8.748-19.5 19.5v26.81h-44.51c-20.678 0-37.5 16.822-37.5 37.5v338.19h-10c-6.893 0-12.5 5.607-12.5 12.5v34.549c0 23.683 19.268 42.951 42.951 42.951h286.634c4.143 0 7.5-3.358 7.5-7.5s-3.357-7.5-7.5-7.5h-286.634c-15.412 0-27.951-12.539-27.951-27.951v-32.049h190.545v12.5c0 9.649 7.851 17.5 17.5 17.5h65.91c9.649 0 17.5-7.851 17.5-17.5v-12.5h190.545v32.049c0 15.412-12.539 27.951-27.951 27.951h-104.464c-4.143 0-7.5 3.358-7.5 7.5s3.357 7.5 7.5 7.5h104.464c23.683 0 42.951-19.268 42.951-42.951v-34.549c0-6.893-5.607-12.5-12.5-12.5zm-92.01-330.69h37.01v282.42h-37.01zm-287.98-71.81c0-2.481 2.019-4.5 4.5-4.5h263.98c2.481 0 4.5 2.019 4.5 4.5v40.5h-272.98zm0 55.5h272.98v298.73h-272.98zm171.945 374.5c0 1.378-1.121 2.5-2.5 2.5h-65.91c-1.379 0-2.5-1.122-2.5-2.5v-12.5h70.91zm183.045-27.5h-437v-338.19c0-12.407 10.094-22.5 22.5-22.5h44.51v15h-40.51c-6.341 0-11.5 5.159-11.5 11.5v41.751c0 4.142 3.357 7.5 7.5 7.5s7.5-3.358 7.5-7.5v-38.251h37.01v282.42h-37.01v-209.168c0-4.142-3.357-7.5-7.5-7.5s-7.5 3.358-7.5 7.5v212.668c0 6.341 5.159 11.5 11.5 11.5h384c6.341 0 11.5-5.159 11.5-11.5v-289.42c0-6.341-5.159-11.5-11.5-11.5h-40.51v-15h44.51c12.406 0 22.5 10.093 22.5 22.5zm-126.559-102.912h-183.882c-4.143 0-7.5 3.358-7.5 7.5s3.357 7.5 7.5 7.5h183.883c4.143 0 7.5-3.358 7.5-7.5s-3.358-7.5-7.501-7.5zm22.049-30h-227.98c-4.143 0-7.5 3.358-7.5 7.5s3.357 7.5 7.5 7.5h227.98c4.143 0 7.5-3.358 7.5-7.5s-3.357-7.5-7.5-7.5zm-144.067-117.044-2.852 16.628c-.805 4.687 1.085 9.335 4.932 12.13 3.849 2.796 8.854 3.16 13.063.945l14.934-7.851 14.935 7.852c4.195 2.206 9.204 1.859 13.063-.945 3.847-2.795 5.736-7.444 4.932-12.129l-2.852-16.629 12.081-11.776c3.406-3.319 4.609-8.191 3.14-12.713-1.469-4.523-5.306-7.758-10.013-8.442l-16.696-2.426-7.467-15.13s0 0-.001-.001c-2.104-4.264-6.366-6.913-11.121-6.913s-9.017 2.649-11.122 6.914l-7.467 15.13-16.697 2.426c-4.706.684-8.543 3.918-10.012 8.442-1.47 4.522-.267 9.394 3.139 12.712zm14.996-20.71c4.041-.587 7.532-3.123 9.339-6.784l5.742-11.636 5.742 11.635c1.807 3.662 5.298 6.198 9.339 6.785l12.839 1.866-9.292 9.058c-2.922 2.85-4.255 6.953-3.565 10.977l2.192 12.788-11.484-6.038c-3.613-1.899-7.929-1.9-11.542 0l-11.483 6.038 2.193-12.789c.688-4.023-.645-8.126-3.567-10.977l-9.291-9.057zm-92.524 78.336-2.057 11.996c-.733 4.269.988 8.502 4.492 11.048 3.515 2.554 8.077 2.869 11.896.86l10.773-5.665 10.773 5.664c3.832 2.016 8.391 1.687 11.896-.86 3.504-2.546 5.226-6.779 4.492-11.047l-2.057-11.997 8.715-8.496c3.103-3.023 4.197-7.46 2.859-11.58-1.339-4.119-4.832-7.064-9.117-7.687l-12.047-1.751-5.387-10.914c-1.916-3.884-5.797-6.297-10.129-6.297s-8.213 2.413-10.129 6.296l-5.387 10.915-12.046 1.751c-4.286.623-7.779 3.568-9.118 7.687-1.338 4.12-.243 8.556 2.858 11.579zm13.671-14.948c3.681-.533 6.86-2.844 8.507-6.179l2.927-5.93 2.927 5.93c1.646 3.336 4.826 5.646 8.504 6.179l6.545.951-4.735 4.617c-2.662 2.595-3.877 6.332-3.248 9.997l1.117 6.518-5.855-3.079c-3.289-1.728-7.218-1.727-10.511.001l-5.853 3.077 1.118-6.519c.628-3.664-.587-7.401-3.249-9.997l-4.735-4.616z"/></g></svg>