<svg id="Layer_1" enable-background="new 0 0 512 512" height="512" viewBox="0 0 512 512" width="512" xmlns="http://www.w3.org/2000/svg"><g><g><g><path d="m375.159 504.5h-238.318c-16.569 0-30-13.431-30-30v-437c0-16.569 13.431-30 30-30h238.319c16.569 0 30 13.431 30 30v437c-.001 16.569-13.432 30-30.001 30z" fill="#ecf5ff"/><path d="m375.159 7.5h-36c16.569 0 30 13.431 30 30v437c0 16.569-13.431 30-30 30h36c16.569 0 30-13.431 30-30v-437c0-16.569-13.431-30-30-30z" fill="#dbeafd"/></g><path d="m313.703 48.011h-115.406c-5.523 0-10-4.477-10-10v-30.511h135.405v30.511c.001 5.523-4.477 10-9.999 10z" fill="#506d90"/><g><g><path d="m256 261.255 101-14v-129c0-3.866-3.134-7-7-7h-74c-11.046 0-20 8.954-20 20z" fill="#f3cfbb"/><path d="m357 231.255h-71c-16.569 0-30 13.431-30 30h94c3.866 0 7-3.134 7-7z" fill="#f0c3aa"/></g><g><path d="m256 261.255-101-14v-129c0-3.866 3.134-7 7-7h74c11.046 0 20 8.954 20 20z" fill="#f5dacb"/><path d="m155 231.255h71c16.569 0 30 13.431 30 30h-94c-3.866 0-7-3.134-7-7z" fill="#f3cfbb"/></g></g></g><path d="m372 362h-232c-4.142 0-7.5 3.358-7.5 7.5s3.358 7.5 7.5 7.5h232c4.142 0 7.5-3.358 7.5-7.5s-3.358-7.5-7.5-7.5zm0-45h-232c-4.142 0-7.5 3.358-7.5 7.5s3.358 7.5 7.5 7.5h232c4.142 0 7.5-3.358 7.5-7.5s-3.358-7.5-7.5-7.5zm-232 135c-4.142 0-7.5 3.358-7.5 7.5s3.358 7.5 7.5 7.5h172c4.142 0 7.5-3.358 7.5-7.5s-3.358-7.5-7.5-7.5zm265.159-60c4.142 0 7.5-3.358 7.5-7.5v-347c0-20.678-16.822-37.5-37.5-37.5h-238.318c-20.678 0-37.5 16.822-37.5 37.5v437c0 20.678 16.822 37.5 37.5 37.5h238.318c20.678 0 37.5-16.822 37.5-37.5v-55c0-4.142-3.358-7.5-7.5-7.5s-7.5 3.358-7.5 7.5v55c0 12.407-10.093 22.5-22.5 22.5h-238.318c-12.407 0-22.5-10.093-22.5-22.5v-437c0-12.407 10.093-22.5 22.5-22.5h43.957v23.011c0 9.649 7.851 17.5 17.5 17.5h115.405c9.649 0 17.5-7.851 17.5-17.5v-23.011h43.957c12.407 0 22.5 10.093 22.5 22.5v347c-.001 4.142 3.357 7.5 7.499 7.5zm-88.956-353.989c0 1.378-1.122 2.5-2.5 2.5h-115.406c-1.378 0-2.5-1.122-2.5-2.5v-23.011h120.405v23.011zm63.297 376.489c0-4.142-3.358-7.5-7.5-7.5h-232c-4.142 0-7.5 3.358-7.5 7.5s3.358 7.5 7.5 7.5h232c4.142 0 7.5-3.358 7.5-7.5zm-93.5-235.745h41c4.142 0 7.5-3.358 7.5-7.5s-3.358-7.5-7.5-7.5h-41c-4.142 0-7.5 3.358-7.5 7.5s3.358 7.5 7.5 7.5zm-101-30h41c4.142 0 7.5-3.358 7.5-7.5s-3.358-7.5-7.5-7.5h-41c-4.142 0-7.5 3.358-7.5 7.5s3.358 7.5 7.5 7.5zm0 60h41c4.142 0 7.5-3.358 7.5-7.5s-3.358-7.5-7.5-7.5h-41c-4.142 0-7.5 3.358-7.5 7.5s3.358 7.5 7.5 7.5zm0-30h41c4.142 0 7.5-3.358 7.5-7.5s-3.358-7.5-7.5-7.5h-41c-4.142 0-7.5 3.358-7.5 7.5s3.358 7.5 7.5 7.5zm-30-13.499c-4.142 0-7.5 3.358-7.5 7.5v81.499c0 7.995 6.505 14.5 14.5 14.5h188c7.995 0 14.5-6.505 14.5-14.5v-136c0-7.995-6.505-14.5-14.5-14.5h-74c-7.875 0-14.982 3.332-20 8.655-5.018-5.322-12.125-8.655-20-8.655h-74c-7.995 0-14.5 6.505-14.5 14.5v19.501c0 4.142 3.358 7.5 7.5 7.5s7.5-3.358 7.5-7.5v-19.001h73.5c6.893 0 12.5 5.607 12.5 12.5v100.02c-6.272-4.719-14.064-7.52-22.5-7.52h-63.5v-50.999c0-4.142-3.358-7.5-7.5-7.5zm194.5 88.499h-84.715c3.095-8.73 11.437-15 21.215-15h63.5zm-86-122.5c0-6.893 5.607-12.5 12.5-12.5h73.5v105h-63.5c-8.436 0-16.228 2.801-22.5 7.52zm-37.5 107.5c9.778 0 18.12 6.27 21.215 15h-84.715v-15zm60-90h41c4.142 0 7.5-3.358 7.5-7.5s-3.358-7.5-7.5-7.5h-41c-4.142 0-7.5 3.358-7.5 7.5s3.358 7.5 7.5 7.5zm41 60c4.142 0 7.5-3.358 7.5-7.5s-3.358-7.5-7.5-7.5h-41c-4.142 0-7.5 3.358-7.5 7.5s3.358 7.5 7.5 7.5z"/></g></svg>