<svg id="Layer_1" enable-background="new 0 0 512 512" height="512" viewBox="0 0 512 512" width="512" xmlns="http://www.w3.org/2000/svg"><g><g><path d="m436.848 504.5h-361.696c-16.569 0-30-13.431-30-30v-437c0-16.569 13.431-30 30-30h361.696c16.569 0 30 13.431 30 30v437c0 16.569-13.431 30-30 30z" fill="#506d90"/><path d="m436.848 7.5h-30c16.569 0 30 13.431 30 30v437c0 16.569-13.431 30-30 30h30c16.569 0 30-13.431 30-30v-437c0-16.569-13.431-30-30-30z" fill="#455f7e"/><path d="m75.152 407.5v-363c0-3.866 3.134-7 7-7h347.696c3.866 0 7 3.134 7 7v363c0 3.866-3.134 7-7 7h-347.696c-3.866 0-7-3.134-7-7z" fill="#ecf5ff"/><path d="m429.848 37.5h-30c3.866 0 7 3.134 7 7v363c0 3.866-3.134 7-7 7h30c3.866 0 7-3.134 7-7v-363c0-3.866-3.134-7-7-7z" fill="#dbeafd"/><circle cx="256" cy="459.5" fill="#fff" r="15"/><g><g><path d="m256 232.5 101-14v-129c0-3.866-3.134-7-7-7h-74c-11.046 0-20 8.954-20 20z" fill="#f3cfbb"/><path d="m357 202.5h-71c-16.569 0-30 13.431-30 30h94c3.866 0 7-3.134 7-7z" fill="#f0c3aa"/></g><g><path d="m256 232.5-101-14v-129c0-3.866 3.134-7 7-7h74c11.046 0 20 8.954 20 20z" fill="#f5dacb"/><path d="m155 202.5h71c16.569 0 30 13.431 30 30h-94c-3.866 0-7-3.134-7-7z" fill="#f3cfbb"/></g></g></g><path d="m327 135h-41c-4.143 0-7.5 3.358-7.5 7.5s3.357 7.5 7.5 7.5h41c4.143 0 7.5-3.358 7.5-7.5s-3.357-7.5-7.5-7.5zm0 30h-41c-4.143 0-7.5 3.358-7.5 7.5s3.357 7.5 7.5 7.5h41c4.143 0 7.5-3.358 7.5-7.5s-3.357-7.5-7.5-7.5zm0-60h-41c-4.143 0-7.5 3.358-7.5 7.5s3.357 7.5 7.5 7.5h41c4.143 0 7.5-3.358 7.5-7.5s-3.357-7.5-7.5-7.5zm-71 332c-12.407 0-22.5 10.093-22.5 22.5s10.094 22.5 22.5 22.5 22.5-10.093 22.5-22.5-10.094-22.5-22.5-22.5zm0 30c-4.136 0-7.5-3.364-7.5-7.5s3.364-7.5 7.5-7.5 7.5 3.364 7.5 7.5-3.364 7.5-7.5 7.5zm180.848-467h-361.696c-20.678 0-37.5 16.822-37.5 37.5v437c0 20.678 16.822 37.5 37.5 37.5h361.696c20.678 0 37.5-16.822 37.5-37.5v-437c0-20.678-16.822-37.5-37.5-37.5zm22.5 474.5c0 12.407-10.094 22.5-22.5 22.5h-361.696c-12.407 0-22.5-10.093-22.5-22.5v-437c0-12.407 10.093-22.5 22.5-22.5h361.696c12.406 0 22.5 10.093 22.5 22.5zm-29.5-444.5h-347.696c-7.995 0-14.5 6.505-14.5 14.5v260.019c0 4.142 3.358 7.5 7.5 7.5s7.5-3.358 7.5-7.5v-259.519h346.696v362h-346.696v-67.481c0-4.142-3.358-7.5-7.5-7.5s-7.5 3.358-7.5 7.5v67.981c0 7.995 6.505 14.5 14.5 14.5h347.696c7.995 0 14.5-6.505 14.5-14.5v-363c0-7.995-6.505-14.5-14.5-14.5zm-203.848 135h-41c-4.142 0-7.5 3.358-7.5 7.5s3.358 7.5 7.5 7.5h41c4.142 0 7.5-3.358 7.5-7.5s-3.358-7.5-7.5-7.5zm-120.848 165h301.696c4.143 0 7.5-3.358 7.5-7.5s-3.357-7.5-7.5-7.5h-301.696c-4.142 0-7.5 3.358-7.5 7.5s3.358 7.5 7.5 7.5zm186.032-255h-15.184c-7.875 0-14.982 3.332-20 8.655-5.018-5.323-12.125-8.655-20-8.655h-74c-7.995 0-14.5 6.505-14.5 14.5v136c0 7.995 6.505 14.5 14.5 14.5h188c7.995 0 14.5-6.505 14.5-14.5v-136c0-7.995-6.505-14.5-14.5-14.5h-23.816c-4.143 0-7.5 3.358-7.5 7.5s3.357 7.5 7.5 7.5h23.316v105h-63.5c-8.436 0-16.228 2.801-22.5 7.52v-100.02c0-6.893 5.607-12.5 12.5-12.5h15.184c4.143 0 7.5-3.358 7.5-7.5s-3.358-7.5-7.5-7.5zm-128.684 150v-15h63.5c9.778 0 18.12 6.27 21.215 15zm86-22.48c-6.272-4.719-14.064-7.52-22.5-7.52h-63.5v-105h73.5c6.893 0 12.5 5.607 12.5 12.5zm37.5 7.48h63.5v15h-84.715c3.096-8.73 11.437-15 21.215-15zm-188.348 67.5c0 4.142 3.358 7.5 7.5 7.5h301.696c4.143 0 7.5-3.358 7.5-7.5s-3.357-7.5-7.5-7.5h-301.696c-4.142 0-7.5 3.358-7.5 7.5zm7.5 97.5h196.696c4.143 0 7.5-3.358 7.5-7.5s-3.357-7.5-7.5-7.5h-196.696c-4.142 0-7.5 3.358-7.5 7.5s3.358 7.5 7.5 7.5zm120.848-240h-41c-4.142 0-7.5 3.358-7.5 7.5s3.358 7.5 7.5 7.5h41c4.142 0 7.5-3.358 7.5-7.5s-3.358-7.5-7.5-7.5zm0-30h-41c-4.142 0-7.5 3.358-7.5 7.5s3.358 7.5 7.5 7.5h41c4.142 0 7.5-3.358 7.5-7.5s-3.358-7.5-7.5-7.5z"/></g></svg>