<svg id="Layer_1" enable-background="new 0 0 512 512" height="512" viewBox="0 0 512 512" width="512" xmlns="http://www.w3.org/2000/svg"><g><g><g><path d="m460.5 241.199c-8.284 0-15-6.693-15-14.949 0-104.133-85.01-188.853-189.5-188.853s-189.5 84.72-189.5 188.853c0 8.256-6.716 14.949-15 14.949s-15-6.693-15-14.949c0-58.431 22.832-113.363 64.29-154.68s96.579-64.07 155.21-64.07 113.752 22.754 155.21 64.07 64.29 96.249 64.29 154.68c0 8.256-6.716 14.949-15 14.949z" fill="#506d90"/></g><g><g><g><path d="m464.568 489.551h-48.068v-169.47h48.068c22.054 0 39.932 17.878 39.932 39.932v89.607c0 22.053-17.878 39.931-39.932 39.931z" fill="#506d90"/><path d="m464.568 320.081h-30c22.054 0 39.932 17.878 39.932 39.932v89.607c0 22.054-17.878 39.932-39.932 39.932h30c22.054 0 39.932-17.878 39.932-39.932v-89.607c0-22.054-17.878-39.932-39.932-39.932z" fill="#455f7e"/><path d="m416.34 504.5c-8.373 0-15.16-6.788-15.16-15.16v-169.048c0-8.373 6.788-15.16 15.16-15.16 8.373 0 15.16 6.788 15.16 15.16v169.048c0 8.372-6.788 15.16-15.16 15.16z" fill="#ecf5ff"/></g><g><path d="m47.432 489.551h48.068v-169.47h-48.068c-22.054 0-39.932 17.878-39.932 39.932v89.607c0 22.053 17.878 39.931 39.932 39.931z" fill="#506d90"/><path d="m50.5 320.292v169.048c0 .071.01.14.011.212h30.3c.001-.071.01-.14.01-.212v-169.048c0-.071-.01-.14-.01-.212h-30.3c-.001.072-.011.141-.011.212z" fill="#455f7e"/><path d="m95.66 504.5c8.373 0 15.16-6.788 15.16-15.16v-169.048c0-8.373-6.788-15.16-15.16-15.16-8.373 0-15.16 6.788-15.16 15.16v169.048c0 8.372 6.788 15.16 15.16 15.16z" fill="#ecf5ff"/></g></g><g><g><path d="m256 490.889 115.179-16.067v-148.046c0-4.437-3.574-8.034-7.983-8.034h-84.389c-12.596 0-22.808 10.276-22.808 22.953v149.194z" fill="#f3cfbb"/><path d="m371.179 456.46h-80.967c-18.895 0-34.212 15.415-34.212 34.429h107.196c4.409 0 7.983-3.597 7.983-8.034z" fill="#f0c3aa"/></g><g><path d="m256 490.889-115.179-16.067v-148.046c0-4.437 3.574-8.034 7.983-8.034h84.389c12.596 0 22.808 10.276 22.808 22.953v149.194z" fill="#f5dacb"/><path d="m140.821 456.46h80.967c18.895 0 34.212 15.415 34.212 34.429h-107.196c-4.409 0-7.983-3.597-7.983-8.034z" fill="#f3cfbb"/></g></g></g></g><path d="m363.196 311.242h-84.389c-9.088 0-17.248 4.045-22.808 10.432-5.56-6.386-13.72-10.432-22.808-10.432h-84.389c-8.537 0-15.482 6.968-15.482 15.534v156.08c0 8.565 6.945 15.533 15.482 15.533h214.393c8.537 0 15.482-6.968 15.482-15.533v-156.08c.002-8.566-6.944-15.534-15.481-15.534zm-214.392 172.147c-.266 0-.482-.239-.482-.533v-18.896h73.467c12.148 0 22.429 8.218 25.658 19.429zm99.696-24.673c-7.242-6.085-16.557-9.756-26.712-9.756h-73.467v-122.184c0-.294.217-.534.482-.534h84.389c8.44 0 15.308 6.932 15.308 15.453zm115.179 24.14c0 .294-.217.533-.482.533h-98.643c3.229-11.211 13.51-19.429 25.658-19.429h73.467zm0-33.896h-73.467c-10.155 0-19.47 3.671-26.712 9.756v-117.021c0-8.521 6.867-15.453 15.308-15.453h84.389c.266 0 .482.239.482.534zm-141.891-103.288h-46.756c-4.143 0-7.5 3.358-7.5 7.5s3.357 7.5 7.5 7.5h46.756c4.143 0 7.5-3.358 7.5-7.5s-3.357-7.5-7.5-7.5zm0 68.859h-46.756c-4.143 0-7.5 3.358-7.5 7.5s3.357 7.5 7.5 7.5h46.756c4.143 0 7.5-3.358 7.5-7.5s-3.357-7.5-7.5-7.5zm0-34.43h-46.756c-4.143 0-7.5 3.358-7.5 7.5s3.357 7.5 7.5 7.5h46.756c4.143 0 7.5-3.358 7.5-7.5s-3.357-7.5-7.5-7.5zm115.18 0h-46.756c-4.143 0-7.5 3.358-7.5 7.5s3.357 7.5 7.5 7.5h46.756c4.143 0 7.5-3.358 7.5-7.5s-3.358-7.5-7.5-7.5zm0-34.429h-46.756c-4.143 0-7.5 3.358-7.5 7.5s3.357 7.5 7.5 7.5h46.756c4.143 0 7.5-3.358 7.5-7.5s-3.358-7.5-7.5-7.5zm0 68.859h-46.756c-4.143 0-7.5 3.358-7.5 7.5s3.357 7.5 7.5 7.5h46.756c4.143 0 7.5-3.358 7.5-7.5s-3.358-7.5-7.5-7.5zm131.032-101.813v-65.306c8.729-3.089 15-11.406 15-21.162 0-60.439-23.615-117.258-66.496-159.993-42.873-42.726-99.875-66.257-160.504-66.257-22.245 0-44.197 3.176-65.247 9.439-3.971 1.181-6.231 5.357-5.05 9.328s5.361 6.233 9.327 5.049c19.661-5.85 40.175-8.816 60.97-8.816 56.632 0 109.873 21.977 149.916 61.883 40.035 39.899 62.084 92.945 62.084 149.367 0 4.107-3.364 7.449-7.5 7.449s-7.5-3.341-7.5-7.449c0-108.27-88.374-196.353-197-196.353s-197 88.084-197 196.353c0 4.107-3.364 7.449-7.5 7.449s-7.5-3.341-7.5-7.449c0-56.422 22.049-109.469 62.084-149.368 16.867-16.809 36.145-30.53 57.298-40.783 3.728-1.807 5.284-6.293 3.478-10.02s-6.292-5.285-10.021-3.478c-22.654 10.98-43.293 25.668-61.343 43.656-42.881 42.735-66.496 99.555-66.496 159.993 0 9.755 6.271 18.073 15 21.162v65.306c-24.556 1.765-44 22.294-44 47.292v89.61c0 26.153 21.277 47.43 47.43 47.43h26.923c3.161 8.71 11.518 14.95 21.307 14.95 12.495 0 22.661-10.166 22.661-22.661v-169.047c0-12.495-10.166-22.661-22.661-22.661-9.788 0-18.145 6.239-21.307 14.948h-15.353v-65.168c8.729-3.089 15-11.406 15-21.162 0-99.999 81.645-181.353 182-181.353s182 81.354 182 181.353c0 9.755 6.271 18.073 15 21.162v65.168h-15.353c-3.162-8.709-11.519-14.948-21.307-14.948-12.495 0-22.661 10.166-22.661 22.661v59.984c0 4.142 3.357 7.5 7.5 7.5s7.5-3.358 7.5-7.5v-59.984c0-4.224 3.437-7.661 7.661-7.661s7.66 3.437 7.66 7.661v169.047c0 4.224-3.437 7.661-7.66 7.661-4.225 0-7.661-3.437-7.661-7.661v-74.063c0-4.142-3.357-7.5-7.5-7.5s-7.5 3.358-7.5 7.5v74.063c0 12.495 10.166 22.661 22.661 22.661 9.789 0 18.146-6.24 21.308-14.95h26.923c26.152 0 47.43-21.277 47.43-47.43v-89.61c-.001-24.999-19.445-45.527-44.001-47.292zm-380 7.574c0-4.224 3.437-7.661 7.66-7.661 4.225 0 7.661 3.437 7.661 7.661v169.047c0 4.224-3.437 7.661-7.661 7.661s-7.66-3.437-7.66-7.661zm-15 7.288v154.47h-25.57c-17.882 0-32.43-14.548-32.43-32.43v-89.61c0-17.882 14.548-32.43 32.43-32.43zm424 122.04c0 17.882-14.548 32.43-32.43 32.43h-25.57v-154.47h25.57c17.882 0 32.43 14.548 32.43 32.43z"/></g></svg>