<svg id="Layer_1" enable-background="new 0 0 512 512" height="512" viewBox="0 0 512 512" width="512" xmlns="http://www.w3.org/2000/svg"><g><g><g><g><path d="m474.5 392.962h-437c-16.569 0-30-13.431-30-30v-282.417c0-16.569 13.431-30 30-30h437c16.569 0 30 13.431 30 30v282.417c0 16.568-13.431 30-30 30z" fill="#506d90"/><path d="m474.5 50.545h-30c16.569 0 30 13.431 30 30v282.417c0 16.569-13.431 30-30 30h30c16.569 0 30-13.431 30-30v-282.417c0-16.569-13.431-30-30-30z" fill="#455f7e"/><path d="m37.5 343.962v-259.417c0-2.209 1.791-4 4-4h429c2.209 0 4 1.791 4 4v259.417c0 2.209-1.791 4-4 4h-429c-2.209 0-4-1.791-4-4z" fill="#ecf5ff"/><path d="m37.5 343.962v-259.417c0-2.209 1.791-4 4-4h429c2.209 0 4 1.791 4 4v259.417c0 2.209-1.791 4-4 4h-429c-2.209 0-4-1.791-4-4z" fill="#ecf5ff"/><path d="m470.5 80.545h-30c2.209 0 4 1.791 4 4v259.417c0 2.209-1.791 4-4 4h30c2.209 0 4-1.791 4-4v-259.417c0-2.21-1.791-4-4-4z" fill="#dbeafd"/><path d="m305.543 504.5h-99.086l15-111.538h69.086z" fill="#455f7e"/><path d="m290.543 392.962h-30l15 111.538h30z" fill="#405972"/><path d="m320.895 456.277 10.563 38.085c1.414 5.097-2.42 10.138-7.709 10.138h-135.497c-5.289 0-9.123-5.041-7.709-10.138l10.563-38.085c.961-3.464 4.114-5.862 7.709-5.862h114.372c3.594 0 6.747 2.397 7.708 5.862z" fill="#506d90"/><path d="m331.458 494.362-10.563-38.085c-.961-3.464-4.114-5.862-7.709-5.862h-30c3.595 0 6.748 2.398 7.709 5.862l10.563 38.085c1.414 5.097-2.42 10.138-7.709 10.138h30c5.289 0 9.122-5.041 7.709-10.138z" fill="#455f7e"/></g><path d="m97.01 67.5h317.98v280.462h-317.98z" fill="#f7f6f7"/><path d="m384.99 67.5h30v280.462h-30z" fill="#e2d8ec"/><g><g><path d="m229.516 189.582h-94.104c-4.64 0-8.402-3.762-8.402-8.402v-67.777c0-4.64 3.762-8.402 8.402-8.402h40.986c3.341 0 6.254 2.274 7.064 5.516l1.443 5.773c.81 3.242 3.723 5.516 7.064 5.516h37.546c4.64 0 8.402 3.762 8.402 8.402v50.973c.002 4.639-3.76 8.401-8.401 8.401z" fill="#f7e07f"/><g fill="#f0d16f"><path d="m153.463 110.516 1.443 5.773c.811 3.242 3.723 5.516 7.064 5.516h30c-3.341 0-6.254-2.274-7.064-5.516l-1.443-5.773c-.811-3.242-3.723-5.516-7.064-5.516h-30c3.341 0 6.254 2.274 7.064 5.516z"/><path d="m229.516 121.804h-30c4.64 0 8.402 3.762 8.402 8.402v50.973c0 4.64-3.762 8.402-8.402 8.402h30c4.64 0 8.402-3.762 8.402-8.402v-50.973c0-4.64-3.761-8.402-8.402-8.402z"/></g></g><g><path d="m229.516 310.462h-94.104c-4.64 0-8.402-3.762-8.402-8.402v-67.777c0-4.64 3.762-8.402 8.402-8.402h40.986c3.341 0 6.254 2.274 7.064 5.516l1.443 5.773c.81 3.242 3.723 5.516 7.064 5.516h37.546c4.64 0 8.402 3.762 8.402 8.402v50.973c.002 4.639-3.76 8.401-8.401 8.401z" fill="#f7e07f"/><g fill="#f0d16f"><path d="m153.463 231.396 1.443 5.773c.811 3.242 3.723 5.516 7.064 5.516h30c-3.341 0-6.254-2.274-7.064-5.516l-1.443-5.773c-.811-3.242-3.723-5.516-7.064-5.516h-30c3.341 0 6.254 2.274 7.064 5.516z"/><path d="m229.516 242.684h-30c4.64 0 8.402 3.762 8.402 8.402v50.973c0 4.64-3.762 8.402-8.402 8.402h30c4.64 0 8.402-3.762 8.402-8.402v-50.973c0-4.64-3.761-8.402-8.402-8.402z"/></g></g></g><path d="m387.99 7.5h-278.98c-6.627 0-12 5.373-12 12v48h317.98l-15-48c0-6.627-5.373-12-12-12z" fill="#455f7e"/><path d="m402.99 7.5h-30c6.627 0 12 5.373 12 12v48h30v-48c0-6.627-5.373-12-12-12z" fill="#405972"/></g></g><path d="m229.517 235.184h-37.376l-1.401-5.608c-1.648-6.592-7.546-11.196-14.341-11.196h-40.986c-8.769 0-15.902 7.134-15.902 15.902v67.777c0 8.769 7.134 15.902 15.902 15.902h13.804c4.143 0 7.5-3.358 7.5-7.5s-3.357-7.5-7.5-7.5h-13.804c-.498 0-.902-.405-.902-.902v-67.777c0-.498.404-.902.902-.902h40.816l1.401 5.608c1.648 6.592 7.546 11.196 14.341 11.196h37.546c.497 0 .902.405.902.902v50.973c0 .497-.405.902-.902.902h-45.301c-4.143 0-7.5 3.358-7.5 7.5s3.357 7.5 7.5 7.5h45.301c8.769 0 15.902-7.133 15.902-15.902v-50.973c0-8.768-7.134-15.902-15.902-15.902zm0-120.88h-37.376l-1.401-5.608c-1.648-6.592-7.546-11.196-14.341-11.196h-40.986c-8.769 0-15.902 7.134-15.902 15.902v67.777c0 8.769 7.134 15.902 15.902 15.902h94.104c8.769 0 15.902-7.133 15.902-15.902v-50.973c0-8.768-7.134-15.902-15.902-15.902zm.902 66.876c0 .497-.405.902-.902.902h-94.104c-.498 0-.902-.405-.902-.902v-67.777c0-.498.404-.902.902-.902h40.816l1.401 5.608c1.648 6.592 7.546 11.196 14.341 11.196h37.546c.497 0 .902.405.902.902zm-103.409-151.18c-4.142 0-7.5 3.358-7.5 7.5s3.358 7.5 7.5 7.5 7.5-3.358 7.5-7.5-3.358-7.5-7.5-7.5zm30 0c-4.142 0-7.5 3.358-7.5 7.5s3.358 7.5 7.5 7.5 7.5-3.358 7.5-7.5-3.358-7.5-7.5-7.5zm30 0c-4.142 0-7.5 3.358-7.5 7.5s3.358 7.5 7.5 7.5 7.5-3.358 7.5-7.5-3.358-7.5-7.5-7.5zm197.98 67.5h-113.659c-4.143 0-7.5 3.358-7.5 7.5s3.357 7.5 7.5 7.5h113.659c4.143 0 7.5-3.358 7.5-7.5s-3.357-7.5-7.5-7.5zm-30 180.88h-83.659c-4.143 0-7.5 3.358-7.5 7.5s3.357 7.5 7.5 7.5h83.659c4.143 0 7.5-3.358 7.5-7.5s-3.357-7.5-7.5-7.5zm30-150.88h-113.659c-4.143 0-7.5 3.358-7.5 7.5s3.357 7.5 7.5 7.5h113.659c4.143 0 7.5-3.358 7.5-7.5s-3.357-7.5-7.5-7.5zm89.51-84.46h-52.01v-23.54c0-10.752-8.748-19.5-19.5-19.5h-293.98c-10.752 0-19.5 8.748-19.5 19.5v23.54h-52.01c-20.678 0-37.5 16.822-37.5 37.5v282.42c0 20.678 16.822 37.5 37.5 37.5h175.384l-5.712 42.455h-8.357c-6.941 0-13.083 4.671-14.937 11.357l-10.562 38.085c-1.307 4.707-.359 9.637 2.597 13.525s7.454 6.118 12.339 6.118h135.496c4.885 0 9.383-2.23 12.339-6.118s3.903-8.818 2.598-13.524l-10.563-38.084c-1.854-6.688-7.995-11.359-14.937-11.359h-8.357l-5.712-42.455h175.384c20.678 0 37.5-16.822 37.5-37.5v-282.42c0-20.678-16.822-37.5-37.5-37.5zm-369.99-23.54c0-2.481 2.019-4.5 4.5-4.5h293.98c2.481 0 4.5 2.019 4.5 4.5v40.5h-302.98zm0 55.5h302.98v25c0 4.142 3.357 7.5 7.5 7.5s7.5-3.358 7.5-7.5v-11.96h44.51v252.42h-44.51v-205.46c0-4.142-3.357-7.5-7.5-7.5s-7.5 3.358-7.5 7.5v205.46h-302.98zm208.676 382.915c.224 0 .422.15.481.365v.001l10.563 38.086c.095.242-.222.661-.482.633h-135.496c-.261.027-.58-.388-.481-.634l10.563-38.087c.06-.215.258-.365.481-.365h114.371zm-90.88-15 5.712-42.455h55.963l5.712 42.455zm274.694-79.955c0 12.407-10.094 22.5-22.5 22.5h-437c-12.406 0-22.5-10.093-22.5-22.5v-282.42c0-12.407 10.094-22.5 22.5-22.5h52.01v15h-48.01c-6.341 0-11.5 5.159-11.5 11.5v259.42c0 6.341 5.159 11.5 11.5 11.5h429c6.341 0 11.5-5.159 11.5-11.5v-259.42c0-6.341-5.159-11.5-11.5-11.5h-48.01v-15h52.01c12.406 0 22.5 10.093 22.5 22.5zm-407.49-274.92v252.42h-44.51v-252.42zm295.48 160.34h-113.659c-4.143 0-7.5 3.358-7.5 7.5s3.357 7.5 7.5 7.5h113.659c4.143 0 7.5-3.358 7.5-7.5s-3.357-7.5-7.5-7.5zm-113.659-75.88h83.659c4.143 0 7.5-3.358 7.5-7.5s-3.357-7.5-7.5-7.5h-83.659c-4.143 0-7.5 3.358-7.5 7.5s3.357 7.5 7.5 7.5zm113.659 45.88h-113.659c-4.143 0-7.5 3.358-7.5 7.5s3.357 7.5 7.5 7.5h113.659c4.143 0 7.5-3.358 7.5-7.5s-3.357-7.5-7.5-7.5z"/></g></svg>