<svg id="Layer_1" enable-background="new 0 0 512 512" height="512" viewBox="0 0 512 512" width="512" xmlns="http://www.w3.org/2000/svg"><g><g><g><path d="m444.5 67.5v407c0 16.569-13.431 30-30 30h-377c-16.569 0-30-13.431-30-30v-407z" fill="#f7f6f7"/><path d="m414.5 67.5v407c0 16.569-13.431 30-30 30h30c16.569 0 30-13.431 30-30v-407z" fill="#e2d8ec"/><path d="m414.5 7.5h-377c-16.569 0-30 13.431-30 30v30h437v-30c0-16.569-13.431-30-30-30z" fill="#506d90"/><path d="m414.5 7.5h-30c16.569 0 30 13.431 30 30v30h30v-30c0-16.569-13.431-30-30-30z" fill="#455f7e"/></g><g><circle cx="410.767" cy="410.767" fill="#dd8793" r="93.733"/><path d="m393.333 402.757v61.412c0 3.124 2.532 5.656 5.656 5.656h23.554c3.124 0 5.656-2.532 5.656-5.656v-61.412c0-3.124 2.532-5.656 5.656-5.656h12.941c4.319 0 6.483-5.222 3.428-8.277l-35.459-35.459c-2.209-2.209-5.79-2.209-7.999 0l-35.459 35.459c-3.054 3.054-.891 8.277 3.428 8.277h12.941c3.125 0 5.657 2.532 5.657 5.656z" fill="#fff"/><path d="m410.767 317.033c-5.106 0-10.115.415-15 1.2 44.636 7.18 78.733 45.872 78.733 92.533s-34.097 85.353-78.733 92.533c4.885.786 9.894 1.2 15 1.2 51.768 0 93.733-41.966 93.733-93.733s-41.966-93.733-93.733-93.733z" fill="#d5707e"/></g><g><g><path d="m226 262.5 101-14v-129c0-3.866-3.134-7-7-7h-74c-11.046 0-20 8.954-20 20z" fill="#f3cfbb"/><path d="m327 232.5h-71c-16.569 0-30 13.431-30 30h94c3.866 0 7-3.134 7-7z" fill="#f0c3aa"/></g><g><path d="m226 262.5-101-14v-129c0-3.866 3.134-7 7-7h74c11.046 0 20 8.954 20 20z" fill="#f5dacb"/><path d="m125 232.5h71c16.569 0 30 13.431 30 30h-94c-3.866 0-7-3.134-7-7z" fill="#f3cfbb"/></g></g></g><path d="m155 150h41c4.142 0 7.5-3.358 7.5-7.5s-3.358-7.5-7.5-7.5h-41c-4.142 0-7.5 3.358-7.5 7.5s3.358 7.5 7.5 7.5zm0 30h41c4.142 0 7.5-3.358 7.5-7.5s-3.358-7.5-7.5-7.5h-41c-4.142 0-7.5 3.358-7.5 7.5s3.358 7.5 7.5 7.5zm48.5 22.5c0-4.142-3.358-7.5-7.5-7.5h-41c-4.142 0-7.5 3.358-7.5 7.5s3.358 7.5 7.5 7.5h41c4.142 0 7.5-3.358 7.5-7.5zm-131.142-172.5c-4.142 0-7.5 3.358-7.5 7.5s3.358 7.5 7.5 7.5 7.5-3.358 7.5-7.5-3.358-7.5-7.5-7.5zm-30 0c-4.142 0-7.5 3.358-7.5 7.5s3.358 7.5 7.5 7.5 7.5-3.358 7.5-7.5-3.358-7.5-7.5-7.5zm409.642 288.319v-280.819c0-20.678-16.822-37.5-37.5-37.5h-377c-20.678 0-37.5 16.822-37.5 37.5v437c0 20.678 16.822 37.5 37.5 37.5h373.271c55.818-.002 101.229-45.414 101.229-101.233 0-41.144-24.674-76.63-60-92.448zm-437-280.819c0-12.407 10.093-22.5 22.5-22.5h377c12.406 0 22.5 10.093 22.5 22.5v22.5h-422zm395.767 459.5c-30.313 0-57.852-15.468-73.664-41.377-2.159-3.536-6.774-4.652-10.31-2.495s-4.652 6.773-2.495 10.309c8.524 13.966 19.957 25.338 33.271 33.563h-320.069c-12.407 0-22.5-10.093-22.5-22.5v-399.5h422v237.987c-8.371-2.248-17.163-3.454-26.233-3.454-55.82 0-101.233 45.413-101.233 101.233 0 5.659.472 11.337 1.401 16.876.686 4.085 4.552 6.843 8.638 6.155 4.085-.686 6.841-4.553 6.155-8.638-.792-4.721-1.194-9.563-1.194-14.393 0-47.549 38.685-86.233 86.233-86.233s86.233 38.684 86.233 86.234-38.685 86.233-86.233 86.233zm-308.409-467c-4.142 0-7.5 3.358-7.5 7.5s3.358 7.5 7.5 7.5 7.5-3.358 7.5-7.5-3.358-7.5-7.5-7.5zm199.868 315h-253.177c-4.142 0-7.5 3.358-7.5 7.5s3.358 7.5 7.5 7.5h253.176c4.143 0 7.5-3.358 7.5-7.5s-3.357-7.5-7.499-7.5zm-15 90h-238.177c-4.142 0-7.5 3.358-7.5 7.5s3.358 7.5 7.5 7.5h238.176c4.143 0 7.5-3.358 7.5-7.5s-3.357-7.5-7.499-7.5zm-238.177-120h283.176c4.143 0 7.5-3.358 7.5-7.5s-3.357-7.5-7.5-7.5h-283.176c-4.142 0-7.5 3.358-7.5 7.5s3.358 7.5 7.5 7.5zm238.177 75h-238.177c-4.142 0-7.5 3.358-7.5 7.5s3.358 7.5 7.5 7.5h238.176c4.143 0 7.5-3.358 7.5-7.5s-3.357-7.5-7.499-7.5zm9.774-255h-41c-4.142 0-7.5 3.358-7.5 7.5s3.358 7.5 7.5 7.5h41c4.143 0 7.5-3.358 7.5-7.5s-3.357-7.5-7.5-7.5zm-165 135h188c7.995 0 14.5-6.505 14.5-14.5v-78c0-4.142-3.357-7.5-7.5-7.5s-7.5 3.358-7.5 7.5v47.5h-63.5c-8.436 0-16.228 2.801-22.5 7.52v-100.02c0-6.893 5.607-12.5 12.5-12.5h73.5v22.5c0 4.142 3.357 7.5 7.5 7.5s7.5-3.358 7.5-7.5v-23c0-7.995-6.505-14.5-14.5-14.5h-74c-7.875 0-14.982 3.332-20 8.655-5.018-5.323-12.125-8.655-20-8.655h-74c-7.995 0-14.5 6.505-14.5 14.5v136c0 7.995 6.505 14.5 14.5 14.5zm124-30h63.5v15h-84.715c3.095-8.73 11.437-15 21.215-15zm-123.5-120h73.5c6.893 0 12.5 5.607 12.5 12.5v100.02c-6.272-4.719-14.064-7.52-22.5-7.52h-63.5zm0 120h63.5c9.778 0 18.12 6.27 21.215 15h-84.715zm164.5-45h-41c-4.142 0-7.5 3.358-7.5 7.5s3.358 7.5 7.5 7.5h41c4.143 0 7.5-3.358 7.5-7.5s-3.357-7.5-7.5-7.5zm123.07 153.062c-2.485-2.485-5.789-3.854-9.304-3.854s-6.818 1.369-9.304 3.854l-35.457 35.458c-3.545 3.544-4.596 8.826-2.678 13.457s6.396 7.623 11.408 7.623h11.097v59.568c0 7.254 5.902 13.156 13.157 13.156h23.554c7.254 0 13.156-5.902 13.156-13.156v-59.568h11.097c5.013 0 9.49-2.992 11.408-7.623s.867-9.913-2.677-13.457zm13.786 41.539c-7.254 0-13.156 5.902-13.156 13.156v59.568h-19.867v-59.568c0-7.254-5.902-13.156-13.156-13.156h-6.538l29.628-29.629 29.628 29.629zm-136.856-224.601h-41c-4.142 0-7.5 3.358-7.5 7.5s3.358 7.5 7.5 7.5h41c4.143 0 7.5-3.358 7.5-7.5s-3.357-7.5-7.5-7.5z"/></g></svg>