<svg id="Layer_1" enable-background="new 0 0 512 512" height="512" viewBox="0 0 512 512" width="512" xmlns="http://www.w3.org/2000/svg"><g><g><g><g><path d="m474.5 392.962h-437c-16.569 0-30-13.431-30-30v-282.417c0-16.569 13.431-30 30-30h437c16.569 0 30 13.431 30 30v282.417c0 16.568-13.431 30-30 30z" fill="#506d90"/><path d="m474.5 50.545h-30c16.569 0 30 13.431 30 30v282.417c0 16.569-13.431 30-30 30h30c16.569 0 30-13.431 30-30v-282.417c0-16.569-13.431-30-30-30z" fill="#455f7e"/><path d="m37.5 343.962v-259.417c0-2.209 1.791-4 4-4h429c2.209 0 4 1.791 4 4v259.417c0 2.209-1.791 4-4 4h-429c-2.209 0-4-1.791-4-4z" fill="#ecf5ff"/><path d="m37.5 343.962v-259.417c0-2.209 1.791-4 4-4h429c2.209 0 4 1.791 4 4v259.417c0 2.209-1.791 4-4 4h-429c-2.209 0-4-1.791-4-4z" fill="#ecf5ff"/><path d="m470.5 80.545h-30c2.209 0 4 1.791 4 4v259.417c0 2.209-1.791 4-4 4h30c2.209 0 4-1.791 4-4v-259.417c0-2.21-1.791-4-4-4z" fill="#dbeafd"/><path d="m305.543 504.5h-99.086l15-111.538h69.086z" fill="#455f7e"/><path d="m290.543 392.962h-30l15 111.538h30z" fill="#405972"/><path d="m320.895 456.277 10.563 38.085c1.414 5.097-2.42 10.138-7.709 10.138h-135.497c-5.289 0-9.123-5.041-7.709-10.138l10.563-38.085c.961-3.464 4.114-5.862 7.709-5.862h114.372c3.594 0 6.747 2.397 7.708 5.862z" fill="#506d90"/><path d="m331.458 494.362-10.563-38.085c-.961-3.464-4.114-5.862-7.709-5.862h-30c3.595 0 6.748 2.398 7.709 5.862l10.563 38.085c1.414 5.097-2.42 10.138-7.709 10.138h30c5.289 0 9.122-5.041 7.709-10.138z" fill="#455f7e"/></g></g><path d="m112.01 67.5h287.98v280.46h-287.98z" fill="#f7f6f7"/><path d="m369.99 67.5h30v280.462h-30z" fill="#e2d8ec"/><path d="m387.99 7.5h-263.98c-6.627 0-12 5.373-12 12v48h287.98v-48c0-6.627-5.373-12-12-12z" fill="#455f7e"/><path d="m387.99 7.5h-30c6.627 0 12 5.373 12 12v48h30v-48c0-6.627-5.373-12-12-12z" fill="#405972"/><g><g><path d="m99.699 273.371h38.878v81.715h-38.878z" fill="#506d90" transform="matrix(-.866 -.5 .5 -.866 65.201 645.929)"/><path d="m24.365 478.382c16.127 9.311 36.749 3.785 46.06-12.342l59.696-103.397c3.943-6.83 1.603-15.563-5.227-19.506l-33.669-19.439c-6.83-3.943-15.563-1.603-19.506 5.227l-59.696 103.397c-9.311 16.127-3.785 36.749 12.342 46.06z" fill="#e3a76a"/><path d="m124.894 343.137-33.669-19.439c-6.83-3.943-15.563-1.603-19.506 5.227l-.361.624 23.535 13.588c6.83 3.943 9.17 12.676 5.227 19.506l-59.696 103.397c-3.448 5.972-8.448 10.485-14.195 13.334 15.82 7.874 35.239 2.178 44.195-13.334l59.696-103.397c3.944-6.83 1.604-15.563-5.226-19.506z" fill="#d79956"/></g><g><ellipse cx="180.325" cy="208.251" fill="#cae0ff" rx="107.156" ry="107.156" transform="matrix(.397 -.918 .918 .397 -82.429 290.992)"/><path d="m180.325 101.095c-5.091 0-10.097.365-15 1.055 52.009 7.318 92.156 52.106 92.156 106.101s-40.146 98.783-92.156 106.101c4.903.69 9.909 1.055 15 1.055 59.086 0 107.156-48.07 107.156-107.156s-48.07-107.156-107.156-107.156z" fill="#bcd7fd"/><ellipse cx="180.325" cy="208.251" fill="#ecf5ff" rx="66.252" ry="66.252" transform="matrix(.971 -.241 .241 .971 -44.803 49.497)"/><path d="m180.325 141.999c-5.16 0-10.177.612-15 1.734 29.327 6.817 51.252 33.147 51.252 64.519 0 31.371-21.925 57.701-51.252 64.518 4.823 1.121 9.84 1.734 15 1.734 36.531 0 66.251-29.72 66.251-66.252.001-36.533-29.72-66.253-66.251-66.253z" fill="#dbeafd"/></g></g></g><path d="m202.01 30c-4.142 0-7.5 3.358-7.5 7.5s3.358 7.5 7.5 7.5 7.5-3.358 7.5-7.5-3.358-7.5-7.5-7.5zm272.49 13.04h-67.01v-23.54c0-10.752-8.748-19.5-19.5-19.5h-263.98c-10.752 0-19.5 8.748-19.5 19.5v23.54h-67.01c-20.678 0-37.5 16.822-37.5 37.5v282.42c0 15.739 9.497 29.196 23.339 34.763l-17.811 30.85c-11.322 19.305-4.482 45.007 15.086 56.305 19.436 11.221 44.821 4.802 56.305-15.086l40.028-69.331h95.937l-5.712 42.455h-8.357c-6.941 0-13.083 4.671-14.937 11.357l-10.562 38.085c-1.307 4.707-.359 9.637 2.597 13.525s7.454 6.117 12.339 6.117h135.496c4.885 0 9.383-2.23 12.339-6.118s3.903-8.818 2.598-13.524l-10.563-38.084c-1.854-6.688-7.995-11.359-14.937-11.359h-8.357l-5.712-42.455h175.384c20.678 0 37.5-16.822 37.5-37.5v-282.42c0-20.678-16.822-37.5-37.5-37.5zm-67.01 45h59.51v252.42h-59.51zm-287.98-68.54c0-2.481 2.019-4.5 4.5-4.5h263.98c2.481 0 4.5 2.019 4.5 4.5v40.5h-272.98zm60.815 89.095c54.95 0 99.655 44.706 99.655 99.656s-44.705 99.655-99.655 99.655c-63.764 0-111.598-59.673-97.087-122.195.937-4.035-1.575-8.065-5.61-9.001s-8.064 1.576-9.001 5.611c-9.187 39.579 4.049 81.882 32.672 108.927l-13.496 23.371c-8.877-1.566-18.082 2.7-22.579 10.556l-8.824 15.285h-11.4v-252.42h59.51v34.185c-8.199 7.26-15.444 15.767-21.457 25.379-2.196 3.511-1.131 8.139 2.381 10.336 3.511 2.196 8.14 1.131 10.336-2.381 18.271-29.219 49.653-46.964 84.555-46.964zm-46.674 204.373-11.504 19.923-20.679-11.939 11.525-19.958c6.418 4.671 13.335 8.697 20.658 11.974zm-118.651 49.992v-282.42c0-12.407 10.094-22.5 22.5-22.5h67.01v15h-63.01c-6.341 0-11.5 5.159-11.5 11.5v259.42c0 6.341 5.159 11.5 11.5 11.5h6.24l-16.755 29.021c-9.25-2.826-15.985-11.527-15.985-21.521zm108.626-4.067s-59.556 103.153-59.697 103.398c-7.228 12.52-23.294 16.824-35.814 9.596-12.39-7.153-16.786-23.5-9.596-35.814l59.696-103.398c1.817-3.189 6.049-4.361 9.213-2.506.014.008.027.018.041.027.022.013.046.021.069.034l33.519 19.353c.029.017.054.037.083.053.013.007.026.012.039.019 3.21 1.879 4.308 6.013 2.447 9.238zm189.56 99.022c.224 0 .422.15.481.365v.001l10.563 38.086c.095.241-.222.661-.482.633h-135.496c-.261.027-.58-.388-.481-.634l10.563-38.087c.06-.215.258-.365.481-.365h114.371zm-90.88-15 5.712-42.455h55.963l5.712 42.455zm274.694-79.955c0 12.407-10.094 22.5-22.5 22.5h-348.893l11.009-19.068c1.99-3.447 2.914-7.215 2.895-10.932h181.243c4.143 0 7.5-3.358 7.5-7.5s-3.357-7.5-7.5-7.5h-185.656l12.831-22.221c10.278 3.033 21.149 4.668 32.396 4.668 63.221 0 114.655-51.434 114.655-114.655 0-63.222-51.435-114.656-114.655-114.656-21.975 0-42.908 6.18-60.815 17.412v-36.008h272.98v265.46h-36.736c-4.143 0-7.5 3.358-7.5 7.5s3.357 7.5 7.5 7.5h114.746c6.341 0 11.5-5.159 11.5-11.5v-259.42c0-6.341-5.159-11.5-11.5-11.5h-63.01v-15h67.01c12.406 0 22.5 10.093 22.5 22.5zm-354.99-332.96c-4.142 0-7.5 3.358-7.5 7.5s3.358 7.5 7.5 7.5 7.5-3.358 7.5-7.5-3.358-7.5-7.5-7.5zm30 0c-4.142 0-7.5 3.358-7.5 7.5s3.358 7.5 7.5 7.5 7.5-3.358 7.5-7.5-3.358-7.5-7.5-7.5zm197.98 125.231h-57.99c-4.143 0-7.5 3.358-7.5 7.5s3.357 7.5 7.5 7.5h57.99c4.143 0 7.5-3.358 7.5-7.5s-3.357-7.5-7.5-7.5zm0 45h-50.99c-4.143 0-7.5 3.358-7.5 7.5s3.357 7.5 7.5 7.5h50.99c4.143 0 7.5-3.358 7.5-7.5s-3.357-7.5-7.5-7.5zm-189.665 81.772c40.667 0 73.752-33.085 73.752-73.751 0-40.667-33.085-73.752-73.752-73.752-40.668 0-73.753 33.085-73.753 73.752 0 40.666 33.085 73.751 73.753 73.751zm0-132.504c32.396 0 58.752 26.356 58.752 58.752s-26.356 58.751-58.752 58.751-58.753-26.356-58.753-58.751c0-32.396 26.357-58.752 58.753-58.752zm189.665 95.732h-58.99c-4.143 0-7.5 3.358-7.5 7.5s3.357 7.5 7.5 7.5h58.99c4.143 0 7.5-3.358 7.5-7.5s-3.357-7.5-7.5-7.5zm7.5-127.5c0-4.142-3.357-7.5-7.5-7.5h-85.48c-4.143 0-7.5 3.358-7.5 7.5s3.357 7.5 7.5 7.5h85.48c4.143 0 7.5-3.358 7.5-7.5zm0 180c0-4.142-3.357-7.5-7.5-7.5h-85.48c-4.143 0-7.5 3.358-7.5 7.5s3.357 7.5 7.5 7.5h85.48c4.143 0 7.5-3.358 7.5-7.5z"/></g></svg>