<svg id="Layer_1" enable-background="new 0 0 512 512" height="512" viewBox="0 0 512 512" width="512" xmlns="http://www.w3.org/2000/svg"><g><g><g><path d="m435.846 161.805c-3.887-.952-6.51-4.685-6.052-8.684.559-4.875.856-9.83.856-14.857.001-72.219-58.174-130.764-129.936-130.764-42.077 0-79.463 20.142-103.208 51.352-2.168 2.849-5.94 3.965-9.244 2.614-11.146-4.559-23.504-6.739-36.462-5.879-39.697 2.635-72.184 34.187-76.256 74.014-.86 8.411-.431 16.582 1.076 24.368.781 4.036-1.546 8.018-5.454 9.219-36.854 11.334-63.666 45.816-63.666 86.616 0 50.023 40.295 90.575 90.002 90.575h316.997c49.706 0 90.001-40.552 90.001-90.575 0-42.62-29.254-78.353-68.654-87.999z" fill="#ecf5ff"/><g><path d="m435.846 161.805c-3.887-.952-6.51-4.685-6.052-8.685.559-4.875.856-9.83.856-14.857.001-72.218-58.174-130.763-129.936-130.763-5.078 0-10.086.3-15.012.871 64.701 7.48 114.949 62.776 114.949 129.893 0 5.027-.297 9.982-.856 14.857-.459 4 2.164 7.733 6.052 8.685 39.4 9.645 68.654 45.379 68.654 87.998 0 50.023-40.295 90.575-90.001 90.575h30c49.707 0 90.001-40.552 90.001-90.575-.001-42.62-29.255-78.353-68.655-87.999z" fill="#dbeafd"/></g><g><g><path d="m256 294.442 115.179-16.067v-148.046c0-4.437-3.574-8.034-7.983-8.034h-84.389c-12.596 0-22.808 10.276-22.808 22.953v149.194z" fill="#f3cfbb"/><path d="m371.179 260.013h-80.967c-18.895 0-34.212 15.415-34.212 34.429h107.196c4.409 0 7.983-3.597 7.983-8.034z" fill="#f0c3aa"/></g><g><path d="m256 294.442-115.179-16.067v-148.046c0-4.437 3.574-8.034 7.983-8.034h84.389c12.596 0 22.808 10.276 22.808 22.953v149.194z" fill="#f5dacb"/><path d="m140.821 260.013h80.967c18.895 0 34.212 15.415 34.212 34.429h-107.196c-4.409 0-7.983-3.597-7.983-8.034z" fill="#f3cfbb"/></g></g></g><g><path d="m334.084 447.502v-68.569c0-3.488-2.828-6.316-6.316-6.316h-26.299c-3.488 0-6.316 2.828-6.316 6.316v68.569c0 3.488-2.828 6.316-6.316 6.316h-14.449c-4.823 0-7.238 5.831-3.828 9.241l39.591 39.591c2.466 2.466 6.465 2.466 8.932 0l39.591-39.591c3.41-3.41.995-9.241-3.828-9.241h-14.449c-3.486 0-6.313-2.828-6.313-6.316z" fill="#bfe69f"/><path d="m354.848 453.818h-14.449c-3.488 0-6.316-2.828-6.316-6.316v-68.569c0-3.488-2.828-6.316-6.316-6.316h-23.305c3.488 0 6.315 2.828 6.315 6.316v68.569c0 3.488 2.828 6.316 6.316 6.316h.39c10.011 0 15.024 12.103 7.945 19.182l-22.464 22.464 7.187 7.187c2.466 2.466 6.465 2.466 8.932 0l39.591-39.591c3.412-3.411.997-9.242-3.826-9.242z" fill="#a4d9a6"/><path d="m216.846 429.616v68.569c0 3.488-2.828 6.316-6.316 6.316h-26.299c-3.488 0-6.316-2.828-6.316-6.316v-68.569c0-3.488-2.828-6.316-6.316-6.316h-14.449c-4.823 0-7.238-5.831-3.828-9.241l39.591-39.591c2.466-2.466 6.465-2.466 8.932 0l39.591 39.591c3.41 3.41.995 9.241-3.828 9.241h-14.449c-3.485 0-6.313 2.828-6.313 6.316z" fill="#dd8793"/><path d="m237.611 423.3h-14.449c-3.488 0-6.316 2.828-6.316 6.316v68.569c0 3.488-2.828 6.316-6.316 6.316h-23.305c3.488 0 6.315-2.828 6.315-6.316v-68.569c0-3.488 2.828-6.316 6.316-6.316h.39c10.011 0 15.024-12.103 7.945-19.182l-22.464-22.464 7.187-7.187c2.466-2.466 6.465-2.466 8.932 0l39.591 39.591c3.412 3.411.996 9.242-3.826 9.242z" fill="#d5707e"/></g></g><path d="m221.788 149.225h-46.756c-4.143 0-7.5 3.358-7.5 7.5s3.357 7.5 7.5 7.5h46.756c4.143 0 7.5-3.358 7.5-7.5s-3.357-7.5-7.5-7.5zm-14.638 219.94c-2.609-2.61-6.078-4.047-9.769-4.047s-7.16 1.437-9.77 4.046l-39.592 39.591c-3.706 3.706-4.805 9.23-2.799 14.073s6.688 7.972 11.931 7.972h13.264v67.384c0 7.618 6.198 13.815 13.816 13.815h26.298c7.618 0 13.816-6.198 13.816-13.815v-67.384h13.264c5.242 0 9.925-3.129 11.931-7.972s.907-10.367-2.799-14.073zm16.012 46.635c-7.618 0-13.815 6.198-13.815 13.815v67.385h-23.931v-67.384c0-7.618-6.197-13.815-13.815-13.815h-9.411l35.191-35.191 35.192 35.191h-9.411zm-1.374-232.146h-46.756c-4.143 0-7.5 3.358-7.5 7.5s3.357 7.5 7.5 7.5h46.756c4.143 0 7.5-3.358 7.5-7.5s-3.357-7.5-7.5-7.5zm0 34.429h-46.756c-4.143 0-7.5 3.358-7.5 7.5s3.357 7.5 7.5 7.5h46.756c4.143 0 7.5-3.358 7.5-7.5s-3.357-7.5-7.5-7.5zm149.391-29.991c4.143 0 7.5-3.358 7.5-7.5v-50.264c0-8.565-6.945-15.534-15.482-15.534h-84.389c-9.088 0-17.248 4.045-22.808 10.432-5.56-6.386-13.72-10.432-22.808-10.432h-84.389c-8.537 0-15.482 6.968-15.482 15.534v156.08c0 8.565 6.945 15.533 15.482 15.533h214.393c8.537 0 15.482-6.968 15.482-15.533v-70.816c0-4.142-3.357-7.5-7.5-7.5s-7.5 3.358-7.5 7.5v36.92h-73.467c-10.155 0-19.47 3.671-26.712 9.756v-117.02c0-8.521 6.867-15.453 15.308-15.453h84.389c.266 0 .482.239.482.534v50.264c.001 4.141 3.358 7.499 7.501 7.499zm-222.375 98.85c-.266 0-.482-.239-.482-.533v-18.896h73.467c12.148 0 22.429 8.218 25.658 19.429zm99.696-24.673c-7.242-6.085-16.557-9.756-26.712-9.756h-73.467v-122.184c0-.294.217-.534.482-.534h84.389c8.44 0 15.308 6.932 15.308 15.453zm41.712 5.244h73.467v18.896c0 .294-.217.533-.482.533h-98.643c3.229-11.211 13.509-19.429 25.658-19.429zm46.756-83.859h-46.756c-4.143 0-7.5 3.358-7.5 7.5s3.357 7.5 7.5 7.5h46.756c4.143 0 7.5-3.358 7.5-7.5s-3.358-7.5-7.5-7.5zm100.662-29.133c-.231-.057-.41-.311-.384-.546.601-5.242.905-10.528.905-15.711 0-76.239-61.654-138.264-137.437-138.264-43.124 0-82.917 19.796-109.176 54.311-.139.184-.33.258-.436.213-12.648-5.173-26.033-7.336-39.799-6.42-20.97 1.392-40.934 10.328-56.215 25.162-15.266 14.82-24.856 34.556-27.005 55.572-.91 8.896-.515 17.83 1.174 26.556.056.288-.071.557-.295.626-19.553 6.012-37.117 18.42-49.458 34.937-12.76 17.078-19.504 37.427-19.504 58.847 0 54.079 43.739 98.075 97.502 98.075h83.227c4.143 0 7.5-3.358 7.5-7.5s-3.357-7.5-7.5-7.5h-83.227c-45.492-.001-82.502-37.268-82.502-83.075 0-18.159 5.713-35.403 16.521-49.869 10.452-13.988 25.315-24.493 41.851-29.578 7.565-2.327 12.129-9.985 10.613-17.814-1.409-7.283-1.739-14.745-.979-22.179 1.791-17.513 9.793-33.968 22.531-46.335 12.73-12.358 29.337-19.801 46.761-20.958 11.458-.759 22.606 1.034 33.125 5.336 6.391 2.615 13.816.554 18.053-5.014 23.397-30.754 58.839-48.393 97.238-48.393 67.513 0 122.438 55.296 122.438 123.264 0 4.614-.271 9.326-.808 14.002-.888 7.738 4.149 14.971 11.719 16.824 37.056 9.072 62.937 42.263 62.937 80.714 0 45.808-37.01 83.075-82.502 83.075h-198.77c-4.143 0-7.5 3.358-7.5 7.5s3.357 7.5 7.5 7.5h198.77c53.763 0 97.502-43.996 97.502-98.075 0-45.382-30.582-84.564-74.37-95.283zm-82.782 291.797h-13.264v-67.384c0-7.618-6.198-13.815-13.816-13.815h-26.298c-7.618 0-13.816 6.198-13.816 13.815v67.384h-13.264c-5.242 0-9.925 3.129-11.931 7.972s-.907 10.367 2.799 14.073l39.592 39.591c2.609 2.61 6.078 4.047 9.769 4.047s7.16-1.437 9.77-4.046l39.592-39.591c3.706-3.706 4.805-9.23 2.799-14.073s-6.69-7.973-11.932-7.973zm-40.229 50.191-35.192-35.191h9.411c7.618 0 13.815-6.198 13.815-13.815v-67.384h23.931v67.384c0 7.618 6.197 13.815 13.815 13.815h9.411zm22.349-278.426h-46.756c-4.143 0-7.5 3.358-7.5 7.5s3.357 7.5 7.5 7.5h46.756c4.143 0 7.5-3.358 7.5-7.5s-3.358-7.5-7.5-7.5zm0-68.858h-46.756c-4.143 0-7.5 3.358-7.5 7.5s3.357 7.5 7.5 7.5h46.756c4.143 0 7.5-3.358 7.5-7.5s-3.358-7.5-7.5-7.5z"/></g></svg>