<svg id="Layer_1" enable-background="new 0 0 512 512" height="512" viewBox="0 0 512 512" width="512" xmlns="http://www.w3.org/2000/svg"><g><g><path d="m436.848 504.5h-361.696c-16.569 0-30-13.431-30-30v-437c0-16.569 13.431-30 30-30h361.696c16.569 0 30 13.431 30 30v437c0 16.569-13.431 30-30 30z" fill="#506d90"/><path d="m436.848 7.5h-30c16.569 0 30 13.431 30 30v437c0 16.569-13.431 30-30 30h30c16.569 0 30-13.431 30-30v-437c0-16.569-13.431-30-30-30z" fill="#455f7e"/><path d="m75.152 407.5v-363c0-3.866 3.134-7 7-7h347.696c3.866 0 7 3.134 7 7v166.5l-15 15 15 15v166.5c0 3.866-3.134 7-7 7h-347.696c-3.866 0-7-3.134-7-7z" fill="#ecf5ff"/><path d="m429.848 37.5h-30c3.866 0 7 3.134 7 7v363c0 3.866-3.134 7-7 7h30c3.866 0 7-3.134 7-7v-166.5l-15-15 15-15v-166.5c0-3.866-3.134-7-7-7z" fill="#dbeafd"/><path d="m75.152 211h361.696v30h-361.696z" fill="#506d90"/><path d="m406.848 211h30v30h-30z" fill="#455f7e"/><g><path d="m167.458 211h-35.35c-3.866 0-7-3.134-7-7v-30.345l15-31.3-15-31.3v-30.345c0-3.866 3.134-7 7-7h35.35c3.866 0 7 3.134 7 7v30.345l-15 31.3 15 31.3v30.345c0 3.866-3.134 7-7 7z" fill="#dd8793"/><path d="m174.458 80.71c0-3.866-3.134-7-7-7h-30c3.866 0 7 3.134 7 7v30.345 62.6 30.345c0 3.866-3.134 7-7 7h30c3.866 0 7-3.134 7-7v-30.345l-15-31.3 15-31.3z" fill="#d5707e"/><path d="m216.807 211h-35.35c-3.866 0-7-3.134-7-7v-108.29c0-3.866 3.134-7 7-7h35.35c3.866 0 7 3.134 7 7v108.29c0 3.866-3.134 7-7 7z" fill="#f7e07f"/><path d="m216.807 88.71h-30c3.866 0 7 3.134 7 7v108.29c0 3.866-3.134 7-7 7h30c3.866 0 7-3.134 7-7v-108.29c0-3.866-3.134-7-7-7z" fill="#f0d16f"/><path d="m383.167 197.985-28.7 12.498c-3.139 1.367-6.791-.07-8.158-3.208l-38.285-87.918c-1.367-3.139.07-6.791 3.208-8.158l28.7-12.498c3.139-1.367 6.791.07 8.158 3.208l38.285 87.918c1.367 3.139-.07 6.791-3.208 8.158z" fill="#f7e07f"/><path d="m363.477 206.56 19.69-8.574c3.139-1.367 4.575-5.019 3.208-8.158l-38.286-87.918c-1.367-3.139-5.019-4.575-8.158-3.208l-19.535 8.507z" fill="#f0d16f"/><path d="m300.507 211h-20.35c-3.866 0-7-3.134-7-7v-108.29c0-3.866 3.134-7 7-7h20.35c3.866 0 7 3.134 7 7v108.29c0 3.866-3.135 7-7 7z" fill="#dd8793"/><path d="m300.506 88.71h-20.35c-.238 0-.474.012-.706.036 3.534.354 6.294 3.337 6.294 6.964v108.29c0 3.627-2.76 6.61-6.294 6.964.232.023.468.036.706.036h20.35c3.866 0 7-3.134 7-7v-108.29c0-3.866-3.133-7-7-7z" fill="#d5707e"/><path d="m266.157 211h-35.35c-3.866 0-7-3.134-7-7v-123.29c0-3.866 3.134-7 7-7h35.35c3.866 0 7 3.134 7 7v123.29c0 3.866-3.134 7-7 7z" fill="#bfe69f"/><path d="m266.157 73.71h-30c3.866 0 7 3.134 7 7v123.29c0 3.866-3.134 7-7 7h30c3.866 0 7-3.134 7-7v-123.29c0-3.866-3.134-7-7-7z" fill="#a4d9a6"/><path d="m125.108 111.055h49.35v62.6h-49.35z" fill="#506d90"/><path d="m144.458 111.055h30v62.6h-30z" fill="#455f7e"/></g><circle cx="256" cy="459.5" fill="#fff" r="15"/></g><path d="m406.848 320.25h-301.696c-4.142 0-7.5 3.357-7.5 7.5s3.358 7.5 7.5 7.5h301.696c4.142 0 7.5-3.357 7.5-7.5s-3.358-7.5-7.5-7.5zm60 71.75c4.142 0 7.5-3.357 7.5-7.5v-347c0-20.678-16.822-37.5-37.5-37.5h-361.696c-20.678 0-37.5 16.822-37.5 37.5v437c0 20.678 16.822 37.5 37.5 37.5h361.696c20.678 0 37.5-16.822 37.5-37.5v-55c0-4.143-3.358-7.5-7.5-7.5s-7.5 3.357-7.5 7.5v55c0 12.406-10.093 22.5-22.5 22.5h-361.696c-12.407 0-22.5-10.094-22.5-22.5v-437c0-12.406 10.093-22.5 22.5-22.5h361.696c12.407 0 22.5 10.094 22.5 22.5v347c0 4.143 3.358 7.5 7.5 7.5zm-135-26.75h-226.696c-4.142 0-7.5 3.357-7.5 7.5s3.358 7.5 7.5 7.5h226.696c4.142 0 7.5-3.357 7.5-7.5s-3.358-7.5-7.5-7.5zm-234.196-82.5c0 4.143 3.358 7.5 7.5 7.5h301.696c4.142 0 7.5-3.357 7.5-7.5s-3.358-7.5-7.5-7.5h-301.696c-4.142 0-7.5 3.357-7.5 7.5zm346.696 124.75v-363c0-7.995-6.505-14.5-14.5-14.5h-347.696c-7.995 0-14.5 6.505-14.5 14.5v363c0 7.995 6.505 14.5 14.5 14.5h347.696c7.995 0 14.5-6.505 14.5-14.5zm-15-174h-259.252c-4.142 0-7.5 3.357-7.5 7.5s3.358 7.5 7.5 7.5h259.252v158.5h-346.696v-158.5h52.444c4.142 0 7.5-3.357 7.5-7.5s-3.358-7.5-7.5-7.5h-52.444v-15h346.696zm-262.39-114.945v47.601h-34.35v-47.601zm-34.35-15v-22.345h34.35v22.345zm34.35 77.6v22.345h-34.35v-22.345zm15 22.345v-107.29h34.35v107.29zm49.349 0v-122.29h34.35v122.29zm49.35 0v-107.29h19.35v107.29zm55.828 0h-21.479v-49.323zm-21.066-85.945 26.313-11.458 37.247 85.532-26.313 11.458zm113.929 85.945h-40.764c5.202-3.665 7.305-10.61 4.667-16.667l-38.286-87.918c-3.016-6.926-11.1-10.107-18.029-7.091l-21.931 9.55v-5.664c0-7.995-6.505-14.5-14.5-14.5h-19.85v-.5c0-7.995-6.505-14.5-14.5-14.5h-35.35c-7.995 0-14.5 6.505-14.5 14.5v.5h-34.35v-.5c0-7.995-6.505-14.5-14.5-14.5h-35.35c-7.995 0-14.5 6.505-14.5 14.5v122.79h-34.953v-158.5h346.696zm-195.848 256c0 12.406 10.093 22.5 22.5 22.5s22.5-10.094 22.5-22.5-10.093-22.5-22.5-22.5-22.5 10.094-22.5 22.5zm30 0c0 4.136-3.364 7.5-7.5 7.5s-7.5-3.364-7.5-7.5 3.364-7.5 7.5-7.5 7.5 3.364 7.5 7.5z"/></g></svg>