<svg id="Layer_1" enable-background="new 0 0 512.005 512.005" height="512" viewBox="0 0 512.005 512.005" width="512" xmlns="http://www.w3.org/2000/svg"><g><g><g><g><g><g><g><path d="m482.003 429.505h-452v-312.417c0-16.569 13.431-30 30-30h392c16.569 0 30 13.431 30 30z" fill="#506d90"/><path d="m452.003 87.088h-30c16.569 0 30 13.432 30 30v312.417h30v-312.417c0-16.568-13.432-30-30-30z" fill="#455f7e"/><path d="m60.003 377.236v-256.148c0-2.209 1.791-4 4-4h384c2.209 0 4 1.791 4 4v256.148c0 2.209-1.791 4-4 4h-42.161l-149.839-15-149.839 15h-42.161c-2.209 0-4-1.791-4-4z" fill="#ecf5ff"/><path d="m143.268 243.184 38.746-112.243h147.976l38.746 112.243c10.407 30.148-11.987 61.569-43.88 61.569h-137.707c-31.894 0-54.288-31.421-43.881-61.569z" fill="#f7e07f"/><path d="m368.737 243.184-38.747-112.243h-30l38.747 112.243c10.407 30.147-11.987 61.569-43.88 61.569h30c31.893 0 54.287-31.421 43.88-61.569z" fill="#f0d16f"/><path d="m448.003 117.088h-30c2.209 0 4 1.791 4 4v256.148c0 2.209-1.791 4-4 4h30c2.209 0 4-1.791 4-4v-256.148c0-2.209-1.791-4-4-4z" fill="#dbeafd"/><g><path d="m12.503 429.505h487c2.761 0 5 2.239 5 5v34.549c0 19.579-15.872 35.451-35.451 35.451h-426.098c-19.579 0-35.451-15.872-35.451-35.451v-34.549c0-2.761 2.238-5 5-5z" fill="#455f7e"/><g fill="#405972"><path d="m499.503 429.505h-30c2.761 0 5 2.239 5 5v34.549c0 19.579-15.872 35.451-35.451 35.451h30c19.579 0 35.451-15.872 35.451-35.451v-34.549c0-2.761-2.239-5-5-5z"/><path d="m288.958 459.505h-65.911c-5.523 0-10-4.477-10-10v-20h85.911v20c0 5.523-4.477 10-10 10z"/></g></g></g></g></g></g></g><g><g><g><g><path d="m405.842 381.236v-28.846c0-23.717-16.502-44.239-39.666-49.33l-27.239-5.987-37.1-2.894c-3.668-.806-19.513-7.523-21.828-10.214-2.557-2.973-4.073-6.83-4.073-10.979v-51.281h-39.869v51.281c0 3.953-1.375 7.639-3.715 10.55s-20.646 20.045-24.506 20.893l-34.778-7.356-27.239 5.987c-23.164 5.091-39.666 25.613-39.666 49.33v28.846z" fill="#455f7e"/></g><g><path d="m316.317 313.695 19.859 4.365c23.164 5.091 39.666 25.613 39.666 49.33v13.846h30v-28.846c0-23.717-16.502-44.239-39.666-49.33l-27.239-5.987z" fill="#405972"/></g><g><path d="m304.159 289.43c-3.668-.806-6.835-2.773-9.149-5.464-2.557-2.973-19.073-6.83-19.073-10.979v-51.281h-54.869v51.281c0 7.906-5.501 14.746-13.222 16.443l48.156 23.198z" fill="#f2ccbc"/></g><path d="m295.01 283.966c-2.557-2.973-4.072-6.83-4.072-10.98v-51.281h-30v66.281c0 7.651 5.158 14.29 12.488 16.249 0 0 21.767-20.056 21.584-20.269z" fill="#ecad9a"/><g><g><g><path d="m182.015 130.941v60.925c0 40.862 33.125 73.988 73.988 73.988 1.658 0 3.304-.055 4.935-.162 5.922-.39 9.856-7.984 15.316-9.687 4.494-1.401 10.603 3.288 14.684 1.098 23.246-12.474 39.053-37.01 39.053-65.237v-60.925z" fill="#f2ccbc"/></g><path d="m299.99 130.941v60.925c.215 4.68.814 28.172-16.867 47.028-24.303 25.917-60.206 18.614-62.055 18.205 6.126 3.229 15.454 7.135 27.323 8.367 0 0 3.862.388 7.611.388 40.862 0 73.988-33.125 73.988-73.988v-60.925z" fill="#ecad9a"/></g></g><path d="m232.269 336.362 23.734-23.734-39.018-28.672c-2.314 2.691-5.471 4.667-9.139 5.473l-34.778 7.644 54.003 39.684c1.593 1.17 3.8 1.002 5.198-.395z" fill="#f7f6f7"/><path d="m338.937 297.073-34.778-7.644c-3.668-.806-6.824-2.782-9.139-5.473l-39.018 28.672 23.734 23.734c1.397 1.397 3.605 1.565 5.197.395z" fill="#f7f6f7"/><path d="m316.317 313.696 22.62-16.622c-.05-.006-34.794-7.65-34.841-7.66-3.504-.765-6.741-2.742-9.074-5.454 0-.001-.001-.001-.002-.002l-25.462 18.711c1.414.792 2.953 1.4 4.601 1.762z" fill="#e2d8ec"/></g></g><g><path d="m182.015 130.941v-59.142h147.976v59.142z" fill="#455f7e"/><path d="m182.015 100.087 72.477 28.235c.962.375 2.06.375 3.022 0l72.477-28.235v-28.288h-147.976z" fill="#405972"/><path d="m140.635 52.142 113.857-44.356c.962-.375 2.06-.375 3.022 0l113.856 44.356c2.933 1.143 2.933 4.78 0 5.923l-113.856 44.355c-.962.375-2.06.375-3.022 0l-113.857-44.355c-2.933-1.143-2.933-4.781 0-5.923z" fill="#506d90"/></g><g><circle cx="373.57" cy="129.58" fill="#455f7e" r="19.09"/></g></g></g><path d="m448.003 388.736c6.341 0 11.5-5.159 11.5-11.5v-256.15c0-6.341-5.159-11.5-11.5-11.5h-56.96c-2.857-2.498-6.239-4.411-9.972-5.511v-9.489h70.933c12.406 0 22.5 10.094 22.5 22.5v222.332c0 4.143 3.357 7.5 7.5 7.5s7.5-3.357 7.5-7.5v-222.333c0-20.678-16.822-37.5-37.5-37.5h-70.934v-24.244c-.011-4.478-2.667-8.509-6.977-10.188l-113.855-44.355c-2.732-1.064-5.74-1.064-8.469 0l-113.857 44.356c-4.238 1.651-6.977 5.557-6.977 9.95s2.738 8.298 6.977 9.949l36.601 14.258v.274h-114.51c-20.678 0-37.5 16.822-37.5 37.5v304.92h-10c-6.893 0-12.5 5.607-12.5 12.5v34.549c0 23.684 19.268 42.951 42.951 42.951h426.098c23.684 0 42.951-19.268 42.951-42.951v-34.549c0-6.893-5.607-12.5-12.5-12.5h-10v-47.588c0-4.143-3.357-7.5-7.5-7.5s-7.5 3.357-7.5 7.5v47.588h-437v-304.92c0-12.406 10.094-22.5 22.5-22.5h114.51v15h-110.51c-6.341 0-11.5 5.159-11.5 11.5v256.15c0 6.341 5.159 11.5 11.5 11.5h384zm-336.538-72.694c-8.256 10.266-12.802 23.173-12.802 36.344v21.351h-31.16v-249.15h107.01v5.101l-38.33 111.051c-6.645 19.247-1.833 39.983 11.386 54.257l-3.348.736c-12.869 2.831-24.502 10.045-32.756 20.31zm286.878 57.694h-284.68v-21.351c0-20.03 14.208-37.696 33.78-42.005l23.914-5.257 51.274 37.677c2.057 1.512 4.444 2.254 6.819 2.254 2.95 0 5.88-1.146 8.122-3.388l18.431-18.431 18.431 18.431c2.243 2.242 5.171 3.388 8.122 3.388 2.374 0 4.764-.742 6.819-2.253l51.274-37.677 23.912 5.256c19.574 4.31 33.782 21.976 33.782 42.006zm-190.538-250.29h-18.293v-38.291l62.255 24.253c2.731 1.064 5.739 1.065 8.469 0l62.257-24.253v38.291h-79.688c-4.143 0-7.5 3.357-7.5 7.5s3.357 7.5 7.5 7.5h79.686v53.421c0 36.661-29.826 66.487-66.488 66.487s-66.488-29.826-66.488-66.487v-53.421h18.291c4.143 0 7.5-3.357 7.5-7.5s-3.358-7.5-7.501-7.5zm77.362 158.444-29.164 21.431-29.164-21.431c1.11-2.783 1.735-5.788 1.735-8.904v-4.395c8.576 3.075 17.808 4.763 27.43 4.763s18.853-1.688 27.43-4.763v4.395c-.002 3.115.623 6.12 1.733 8.904zm9.548 11.598c2.358 1.513 4.995 2.64 7.837 3.262l18.596 4.087-38.234 28.096-15.433-15.433zm11.051-11.389c-4.25-.931-7.334-4.763-7.334-9.113v-11.579c23.406-14.333 39.059-40.141 39.059-69.541v-16.209l24.152 69.975c5.874 17.012-.651 35.632-15.533 45.334zm-61.242 31.401-15.434 15.434-38.234-28.096 18.59-4.086c2.844-.622 5.483-1.75 7.843-3.264zm155.636-183.92c0-1.709-.179-3.374-.489-4.994h44.831v249.15h-31.16v-21.351c0-13.171-4.546-26.078-12.802-36.344-8.255-10.265-19.888-17.479-32.758-20.312l-3.345-.735c13.218-14.274 18.03-35.01 11.385-54.257l-38.33-111.051v-5.101h9.976c-.31 1.62-.489 3.285-.489 4.994 0 14.662 11.928 26.59 26.59 26.59s26.591-11.927 26.591-26.589zm-62.667-19.995v-15h28.577v9.489c-3.734 1.1-7.115 3.013-9.972 5.511zm47.667 19.995c0 6.391-5.199 11.59-11.59 11.59s-11.59-5.199-11.59-11.59c0-6.39 5.199-11.589 11.59-11.589s11.59 5.199 11.59 11.589zm-19.09-49.995h-28.577v-.274l28.577-11.133zm-212.376-24.482 102.309-39.855 102.309 39.855-102.309 39.855zm20.82 120.554v16.209c0 29.399 15.653 55.207 39.059 69.541v11.579c0 4.351-3.084 8.183-7.341 9.114l-40.337 8.866c-14.882-9.702-21.407-28.322-15.533-45.334zm46.034 261.348h70.91v12.5c0 1.379-1.121 2.5-2.5 2.5h-65.91c-1.379 0-2.5-1.121-2.5-2.5zm276.455 32.049c0 15.412-12.539 27.951-27.951 27.951h-426.098c-15.412 0-27.951-12.539-27.951-27.951v-32.049h190.545v12.5c0 9.649 7.851 17.5 17.5 17.5h65.91c9.649 0 17.5-7.851 17.5-17.5v-12.5h190.545zm-241-121.538c-4.142 0-7.5 3.358-7.5 7.5s3.358 7.5 7.5 7.5 7.5-3.358 7.5-7.5-3.358-7.5-7.5-7.5zm35.697-159.538c4.143 0 7.5-3.357 7.5-7.5v-14.278c0-4.143-3.357-7.5-7.5-7.5s-7.5 3.357-7.5 7.5v14.278c0 4.143 3.357 7.5 7.5 7.5zm-56.267 40.428c6.157 3.376 13.115 5.199 20.121 5.273 8.958.095 16.578-2.839 21.018-5.273 3.632-1.991 4.961-6.551 2.97-10.183-1.991-3.631-6.55-4.96-10.183-2.97-2.914 1.599-7.694 3.494-13.647 3.426-5.744-.06-10.276-1.896-13.065-3.426-3.633-1.993-8.191-.661-10.183 2.97-1.992 3.632-.662 8.192 2.969 10.183zm-22.628-47.928c0 4.143 3.357 7.5 7.5 7.5s7.5-3.357 7.5-7.5v-14.278c0-4.143-3.357-7.5-7.5-7.5s-7.5 3.357-7.5 7.5z"/></g></svg>