<svg id="Layer_1" enable-background="new 0 0 512 512" height="512" viewBox="0 0 512 512" width="512" xmlns="http://www.w3.org/2000/svg"><g><g><g><g><path d="m504.5 67.5v407c0 16.569-13.431 30-30 30h-437c-16.569 0-30-13.431-30-30v-407z" fill="#f7f6f7"/><g><g><path d="m243.948 330.072h-168.141c-12.872 0-23.307 10.435-23.307 23.307v53.13c0 12.872 10.435 23.307 23.307 23.307h114.134c1.442 0 2.826.573 3.846 1.593l22.495 22.495c1.958 1.958 5.305.571 5.305-2.197v-16.452c0-3.004 2.435-5.438 5.438-5.438h16.923c12.872 0 23.307-10.435 23.307-23.307v-53.13c0-12.873-10.435-23.308-23.307-23.308z" fill="#bfe69f"/><path d="m227.025 429.816h16.923c12.872 0 23.307-10.435 23.307-23.307v-53.129c0-12.872-10.435-23.307-23.307-23.307h-30c12.872 0 23.307 10.435 23.307 23.307v53.13c0 6.715-2.84 12.767-7.385 17.021-1.754 1.64-2.822 3.882-2.845 6.285z" fill="#a4d9a6"/></g><g><path d="m268.052 135.072h168.141c12.872 0 23.307 10.435 23.307 23.307v53.13c0 12.872-10.435 23.307-23.307 23.307h-114.134c-1.442 0-2.826.573-3.846 1.593l-22.495 22.495c-1.958 1.958-5.305.571-5.305-2.197v-16.452c0-3.004-2.435-5.438-5.438-5.438h-16.923c-12.872 0-23.307-10.435-23.307-23.307v-53.13c0-12.873 10.435-23.308 23.307-23.308z" fill="#f7e07f"/><g><path d="m436.193 135.072h-30c12.872 0 23.307 10.435 23.307 23.307v53.13c0 12.872-10.435 23.307-23.307 23.307h30c12.872 0 23.307-10.435 23.307-23.307v-53.13c0-12.872-10.435-23.307-23.307-23.307z" fill="#f0d16f"/></g></g><g><path d="m459.5 383.5c0 23.917-11.772 45.084-29.838 58.023-11.688 8.371-24.484 10.545-39.957 10.545-5.146 0-11.691 2.208-16.528 1.172-32.185-6.891-56.318-35.497-56.318-69.74 0-39.389 31.931-71.321 71.321-71.321s71.32 31.932 71.32 71.321z" fill="#bcd7fd"/><path d="m388.179 312.179c-5.147 0-10.162.558-15 1.594 32.185 6.891 56.321 35.485 56.321 69.727s-24.136 62.836-56.321 69.727c4.838 1.036 9.853-1.098 15-1.098 15.473 0 29.795-2.236 41.482-10.607 18.066-12.939 29.838-34.106 29.838-58.023.001-39.388-31.93-71.32-71.32-71.32z" fill="#9bc6fd"/><path d="m391.029 399.279h-5.7c-21.33 0-38.621 17.291-38.621 38.62v3.607c11.688 8.371 25.998 13.314 41.471 13.314s29.783-4.943 41.471-13.314v-3.607c0-21.329-17.291-38.62-38.621-38.62z" fill="#bfe69f"/><path d="m373.187 453.225c14.204 3.042 31.339 2.031 47.427-6.213 3.154-1.616 6.174-3.457 9.036-5.506v-3.607c0-8.559-2.789-16.465-7.502-22.867-9.506 19.24-27.424 33.579-48.961 38.193z" fill="#a4d9a6"/><circle cx="388.179" cy="372.873" fill="#f2ccbc" r="26.406"/><path d="m388.179 346.466c-4.811 0-9.318 1.293-13.203 3.542 7.891 4.566 13.203 13.092 13.203 22.865s-5.313 18.298-13.203 22.865c3.885 2.248 8.392 3.542 13.203 3.542 14.584 0 26.406-11.823 26.406-26.406s-11.822-26.408-26.406-26.408z" fill="#ecad9a"/></g><g><path d="m195.141 188.5c0 23.917-11.772 45.084-29.838 58.023-11.688 8.371-24.484 10.545-39.957 10.545-5.146 0-11.691 2.208-16.528 1.172-32.186-6.891-56.318-35.497-56.318-69.74 0-39.389 31.931-71.321 71.321-71.321s71.32 31.932 71.32 71.321z" fill="#bcd7fd"/><path d="m123.821 117.179c-5.147 0-10.162.558-15 1.594 32.185 6.891 56.321 35.485 56.321 69.727s-24.136 62.836-56.321 69.727c4.838 1.036 9.853-1.098 15-1.098 15.473 0 29.795-2.236 41.482-10.607 18.066-12.939 29.838-34.106 29.838-58.023 0-39.388-31.931-71.32-71.32-71.32z" fill="#9bc6fd"/><path d="m126.671 204.279h-5.7c-21.33 0-38.621 17.291-38.621 38.62v3.607c11.688 8.371 25.998 13.314 41.471 13.314s29.783-4.943 41.471-13.314v-3.607c-.001-21.329-17.292-38.62-38.621-38.62z" fill="#f7e07f"/><path d="m108.829 258.225c14.204 3.042 31.339 2.031 47.427-6.213 3.154-1.616 6.174-3.457 9.036-5.506v-3.607c0-8.559-2.789-16.465-7.502-22.867-9.506 19.24-27.425 33.579-48.961 38.193z" fill="#f0d16f"/><circle cx="123.821" cy="177.873" fill="#f2ccbc" r="26.406"/><path d="m123.821 151.466c-4.811 0-9.318 1.293-13.203 3.542 7.891 4.566 13.203 13.092 13.203 22.865s-5.313 18.298-13.203 22.865c3.885 2.248 8.392 3.542 13.203 3.542 14.584 0 26.406-11.823 26.406-26.406s-11.823-26.408-26.406-26.408z" fill="#ecad9a"/></g></g><path d="m474.5 67.5v407c0 16.569-13.431 30-30 30h30c16.569 0 30-13.431 30-30v-407z" fill="#e2d8ec"/><path d="m474.5 7.5h-437c-16.569 0-30 13.431-30 30v30h497v-30c0-16.569-13.431-30-30-30z" fill="#506d90"/><path d="m474.5 7.5h-30c16.569 0 30 13.431 30 30v30h30v-30c0-16.569-13.431-30-30-30z" fill="#455f7e"/></g></g></g><path d="m86.434 372.444h146.888c4.142 0 7.5-3.357 7.5-7.5s-3.358-7.5-7.5-7.5h-146.888c-4.142 0-7.5 3.357-7.5 7.5s3.358 7.5 7.5 7.5zm15.924-342.444c-4.142 0-7.5 3.358-7.5 7.5s3.358 7.5 7.5 7.5 7.5-3.358 7.5-7.5-3.358-7.5-7.5-7.5zm372.142-30h-437c-20.678 0-37.5 16.822-37.5 37.5v343.813c0 4.143 3.358 7.5 7.5 7.5s7.5-3.357 7.5-7.5v-306.313h482v399.5c0 12.406-10.093 22.5-22.5 22.5h-437c-12.407 0-22.5-10.094-22.5-22.5v-58.187c0-4.143-3.358-7.5-7.5-7.5s-7.5 3.357-7.5 7.5v58.187c0 20.678 16.822 37.5 37.5 37.5h437c20.678 0 37.5-16.822 37.5-37.5v-437c0-20.678-16.822-37.5-37.5-37.5zm22.5 60h-482v-22.5c0-12.406 10.093-22.5 22.5-22.5h437c12.407 0 22.5 10.094 22.5 22.5zm-424.642-30c-4.142 0-7.5 3.358-7.5 7.5s3.358 7.5 7.5 7.5 7.5-3.358 7.5-7.5-3.358-7.5-7.5-7.5zm14.076 372.444h146.888c4.142 0 7.5-3.357 7.5-7.5s-3.358-7.5-7.5-7.5h-146.888c-4.142 0-7.5 3.357-7.5 7.5s3.358 7.5 7.5 7.5zm-44.076-372.444c-4.142 0-7.5 3.358-7.5 7.5s3.358 7.5 7.5 7.5 7.5-3.358 7.5-7.5-3.358-7.5-7.5-7.5zm284.371 97.571h-58.676c-16.987 0-30.808 13.82-30.808 30.808v53.13c0 16.987 13.82 30.808 30.808 30.808h14.861v14.391c0 4.306 2.571 8.153 6.549 9.801 3.936 1.63 8.5.762 11.56-2.3l21.891-21.892h113.28c16.987 0 30.807-13.82 30.807-30.808v-53.13c0-16.987-13.82-30.808-30.807-30.808h-74.464c-4.142 0-7.5 3.357-7.5 7.5s3.358 7.5 7.5 7.5h74.464c8.716 0 15.807 7.091 15.807 15.808v53.13c0 8.717-7.091 15.808-15.807 15.808h-114.135c-3.458 0-6.707 1.347-9.149 3.789l-14.997 14.997v-5.848c0-7.135-5.804-12.938-12.938-12.938h-16.922c-8.716 0-15.808-7.091-15.808-15.808v-53.13c0-8.717 7.091-15.808 15.808-15.808h58.676c4.142 0 7.5-3.357 7.5-7.5s-3.358-7.5-7.5-7.5zm61.45 177.109c-43.462 0-78.821 35.358-78.821 78.82 0 43.667 36.008 78.82 78.821 78.82 42.872 0 78.821-35.135 78.821-78.82 0-43.462-35.359-78.82-78.821-78.82zm0 142.64c-12.476 0-24.117-3.612-33.96-9.825.218-16.974 14.086-30.716 31.11-30.716h5.7c17.025 0 30.892 13.742 31.11 30.716-9.843 6.213-21.484 9.825-33.96 9.825zm-18.906-74.448c0-10.425 8.481-18.906 18.906-18.906s18.906 8.481 18.906 18.906c0 10.426-8.481 18.907-18.906 18.907s-18.906-8.481-18.906-18.907zm66.35 53.26c-3.364-12.737-12.056-23.325-23.534-29.243 6.171-6.144 9.997-14.642 9.997-24.017 0-18.696-15.21-33.906-33.906-33.906s-33.906 15.21-33.906 33.906c0 9.375 3.826 17.873 9.997 24.017-11.479 5.919-20.17 16.506-23.534 29.243-10.173-11.31-16.377-26.259-16.377-42.632 0-35.19 28.63-63.82 63.821-63.82s63.819 28.63 63.819 63.82c0 16.374-6.204 31.323-16.377 42.632zm-10.057-233.688h-146.888c-4.142 0-7.5 3.357-7.5 7.5s3.358 7.5 7.5 7.5h146.888c4.142 0 7.5-3.357 7.5-7.5s-3.358-7.5-7.5-7.5zm-301.745 74.876c42.969 0 78.821-35.508 78.821-78.82 0-43.462-35.359-78.82-78.821-78.82s-78.821 35.358-78.821 78.82c0 43.672 36.011 78.82 78.821 78.82zm0-15c-12.476 0-24.117-3.612-33.96-9.825.218-16.974 14.086-30.716 31.11-30.716h5.7c17.025 0 30.892 13.742 31.11 30.716-9.843 6.213-21.484 9.825-33.96 9.825zm-18.906-74.448c0-10.425 8.481-18.906 18.906-18.906s18.906 8.481 18.906 18.906c0 10.426-8.481 18.907-18.906 18.907s-18.906-8.481-18.906-18.907zm18.906-53.192c35.191 0 63.821 28.63 63.821 63.82 0 16.374-6.204 31.323-16.377 42.632-3.364-12.737-12.056-23.325-23.534-29.243 6.171-6.144 9.997-14.642 9.997-24.017 0-18.696-15.21-33.906-33.906-33.906s-33.906 15.21-33.906 33.906c0 9.375 3.826 17.873 9.997 24.017-11.479 5.919-20.17 16.506-23.534 29.243-10.175-11.309-16.379-26.258-16.379-42.632 0-35.19 28.63-63.82 63.821-63.82zm301.745 37.764h-146.888c-4.142 0-7.5 3.357-7.5 7.5s3.358 7.5 7.5 7.5h146.888c4.142 0 7.5-3.357 7.5-7.5s-3.358-7.5-7.5-7.5zm-380.566 244.065c0 16.987 13.82 30.808 30.807 30.808h113.28l21.891 21.891c3.062 3.063 7.619 3.933 11.56 2.301 3.978-1.647 6.549-5.495 6.549-9.801v-14.391h14.861c16.987 0 30.808-13.82 30.808-30.808v-53.13c0-16.987-13.82-30.808-30.808-30.808h-168.141c-16.987 0-30.807 13.821-30.807 30.808zm15-53.13c0-8.717 7.091-15.808 15.807-15.808h168.141c8.716 0 15.808 7.091 15.808 15.808v53.13c0 8.717-7.091 15.808-15.808 15.808h-16.922c-7.134 0-12.938 5.804-12.938 12.938v5.848l-14.996-14.995c-2.443-2.444-5.693-3.791-9.15-3.791h-114.135c-8.716 0-15.807-7.091-15.807-15.808z"/></g></svg>