<svg id="Layer_1" enable-background="new 0 0 512 512" height="512" viewBox="0 0 512 512" width="512" xmlns="http://www.w3.org/2000/svg"><g><g><g><g><path d="m504.5 67.5v407c0 16.569-13.431 30-30 30h-437c-16.569 0-30-13.431-30-30v-407z" fill="#f7f6f7"/><g><g><path d="m354.204 451.063h-196.408c-11.046 0-20-8.954-20-20v-290.126c0-11.046 8.954-20 20-20h148.896l67.512 67.512v242.615c0 11.045-8.954 19.999-20 19.999z" fill="#bcd7fd"/><path d="m344.204 188.449v242.615c0 11.046-8.955 20-20 20h30c11.045 0 20-8.954 20-20v-242.615z" fill="#9bc6fd"/><path d="m374.204 188.449h-61.512c-3.314 0-6-2.686-6-6v-61.512z" fill="#7db3ff"/></g></g><path d="m474.5 67.5v407c0 16.569-13.431 30-30 30h30c16.569 0 30-13.431 30-30v-407z" fill="#e2d8ec"/><path d="m474.5 7.5h-437c-16.569 0-30 13.431-30 30v30h497v-30c0-16.569-13.431-30-30-30z" fill="#506d90"/><path d="m474.5 7.5h-30c16.569 0 30 13.431 30 30v30h30v-30c0-16.569-13.431-30-30-30z" fill="#455f7e"/></g></g></g><path d="m474.5 0h-437c-20.678 0-37.5 16.822-37.5 37.5v102.35c0 4.143 3.358 7.5 7.5 7.5s7.5-3.357 7.5-7.5v-64.85h482v399.5c0 12.406-10.094 22.5-22.5 22.5h-437c-12.407 0-22.5-10.094-22.5-22.5v-299.65c0-4.143-3.358-7.5-7.5-7.5s-7.5 3.357-7.5 7.5v299.65c0 20.678 16.822 37.5 37.5 37.5h437c20.678 0 37.5-16.822 37.5-37.5v-437c0-20.678-16.822-37.5-37.5-37.5zm22.5 60h-482v-22.5c0-12.406 10.093-22.5 22.5-22.5h437c12.406 0 22.5 10.094 22.5 22.5zm-394.642-30c-4.142 0-7.5 3.358-7.5 7.5s3.358 7.5 7.5 7.5 7.5-3.358 7.5-7.5-3.358-7.5-7.5-7.5zm-30 0c-4.142 0-7.5 3.358-7.5 7.5s3.358 7.5 7.5 7.5 7.5-3.358 7.5-7.5-3.358-7.5-7.5-7.5zm-30 0c-4.142 0-7.5 3.358-7.5 7.5s3.358 7.5 7.5 7.5 7.5-3.358 7.5-7.5-3.358-7.5-7.5-7.5zm208.405 114.85c-4.142 0-7.5 3.357-7.5 7.5v11.082h-11.082c-4.142 0-7.5 3.357-7.5 7.5s3.358 7.5 7.5 7.5h11.082v11.081c0 4.143 3.358 7.5 7.5 7.5s7.5-3.357 7.5-7.5v-11.081h11.081c4.143 0 7.5-3.357 7.5-7.5s-3.357-7.5-7.5-7.5h-11.081v-11.082c.001-4.143-3.358-7.5-7.5-7.5zm-82.967 268.713h116.408c4.143 0 7.5-3.357 7.5-7.5s-3.357-7.5-7.5-7.5h-116.408c-4.142 0-7.5 3.357-7.5 7.5s3.358 7.5 7.5 7.5zm0-90h176.408c4.143 0 7.5-3.357 7.5-7.5s-3.357-7.5-7.5-7.5h-176.408c-4.142 0-7.5 3.357-7.5 7.5s3.358 7.5 7.5 7.5zm0 45h176.408c4.143 0 7.5-3.357 7.5-7.5s-3.357-7.5-7.5-7.5h-176.408c-4.142 0-7.5 3.357-7.5 7.5s3.358 7.5 7.5 7.5zm76.41 90h109.999c15.163 0 27.5-12.337 27.5-27.5v-242.614c-.126-1.587-.291-3.318-2.196-5.304l-67.513-67.513c-.978-.908-2.814-2.235-5.304-2.196h-148.896c-15.164 0-27.5 12.337-27.5 27.5v290.127c0 15.163 12.336 27.5 27.5 27.5h51.41c4.142 0 7.5-3.357 7.5-7.5s-3.358-7.5-7.5-7.5h-51.41c-6.893 0-12.5-5.607-12.5-12.5v-290.126c0-6.893 5.607-12.5 12.5-12.5h141.396v54.013c0 7.444 6.056 13.5 13.5 13.5h54.013v235.114c0 6.893-5.607 12.5-12.5 12.5h-109.999c-4.142 0-7.5 3.357-7.5 7.5s3.357 7.499 7.5 7.499zm69.985-277.614v-41.906l41.906 41.906zm-153.895 90.114c0 4.143 3.358 7.5 7.5 7.5h176.408c4.143 0 7.5-3.357 7.5-7.5s-3.357-7.5-7.5-7.5h-176.408c-4.142 0-7.5 3.358-7.5 7.5zm43.704-93.871c-2.923 0-5.58 1.698-6.807 4.351l-25.206 54.478c-1.739 3.76-.102 8.217 3.657 9.956 3.76 1.74 8.217.102 9.956-3.657l4.988-10.781h26.821l4.988 10.781c1.757 3.805 6.267 5.364 9.956 3.657 3.759-1.739 5.396-6.196 3.657-9.956l-25.206-54.478c-1.224-2.652-3.881-4.351-6.804-4.351zm-6.47 39.346 6.47-13.984 6.47 13.984z"/></g></svg>