<svg id="Layer_1" enable-background="new 0 0 512 512" height="512" viewBox="0 0 512 512" width="512" xmlns="http://www.w3.org/2000/svg"><g><g><g><g><path d="m474.5 392.962h-437c-16.569 0-30-13.431-30-30v-282.417c0-16.569 13.431-30 30-30h437c16.569 0 30 13.431 30 30v282.417c0 16.568-13.431 30-30 30z" fill="#506d90"/><path d="m474.5 50.545h-30c16.569 0 30 13.431 30 30v282.417c0 16.569-13.431 30-30 30h30c16.569 0 30-13.431 30-30v-282.417c0-16.569-13.431-30-30-30z" fill="#455f7e"/><path d="m37.5 343.962v-259.417c0-2.209 1.791-4 4-4h429c2.209 0 4 1.791 4 4v259.417c0 2.209-1.791 4-4 4h-429c-2.209 0-4-1.791-4-4z" fill="#ecf5ff"/><path d="m37.5 343.962v-259.417c0-2.209 1.791-4 4-4h429c2.209 0 4 1.791 4 4v259.417c0 2.209-1.791 4-4 4h-429c-2.209 0-4-1.791-4-4z" fill="#ecf5ff"/><path d="m470.5 80.545h-30c2.209 0 4 1.791 4 4v259.417c0 2.209-1.791 4-4 4h30c2.209 0 4-1.791 4-4v-259.417c0-2.21-1.791-4-4-4z" fill="#dbeafd"/><path d="m305.543 504.5h-99.086l15-111.538h69.086z" fill="#455f7e"/><path d="m290.543 392.962h-30l15 111.538h30z" fill="#405972"/><path d="m320.895 456.277 10.563 38.085c1.414 5.097-2.42 10.138-7.709 10.138h-135.497c-5.289 0-9.123-5.041-7.709-10.138l10.563-38.085c.961-3.464 4.114-5.862 7.709-5.862h114.372c3.594 0 6.747 2.397 7.708 5.862z" fill="#506d90"/><path d="m331.458 494.362-10.563-38.085c-.961-3.464-4.114-5.862-7.709-5.862h-30c3.595 0 6.748 2.398 7.709 5.862l10.563 38.085c1.414 5.097-2.42 10.138-7.709 10.138h30c5.289 0 9.122-5.041 7.709-10.138z" fill="#455f7e"/></g><path d="m97.01 67.5h317.98v280.462h-317.98z" fill="#f7f6f7"/><path d="m384.99 67.5h30v280.462h-30z" fill="#e2d8ec"/><g><path d="m307.837 251.727 8.275 47.283c.557 3.181 4.466 4.417 6.75 2.133l6.106-6.106c1.558-1.558 4.083-1.558 5.641 0l24.745 24.745c1.558 1.558 4.083 1.558 5.641 0l15.513-15.513c1.558-1.558 1.558-4.083 0-5.641l-24.745-24.745c-1.558-1.558-1.558-4.083 0-5.641l6.106-6.106c2.284-2.284 1.048-6.193-2.133-6.75l-47.283-8.275c-2.722-.477-5.093 1.893-4.616 4.616z" fill="#bfe69f"/></g><path d="m387.99 7.5h-278.98c-6.627 0-12 5.373-12 12v48h317.98l-15-48c0-6.627-5.373-12-12-12z" fill="#455f7e"/><path d="m402.99 7.5h-30c6.627 0 12 5.373 12 12v48h30v-48c0-6.627-5.373-12-12-12z" fill="#405972"/></g></g><path d="m363.55 271.062 3.624-3.623c3.042-3.043 4.127-7.482 2.83-11.586s-4.735-7.113-8.975-7.854l-47.283-8.275c-3.683-.645-7.46.549-10.104 3.192-2.645 2.644-3.838 6.422-3.193 10.105l8.274 47.283c.742 4.238 3.752 7.677 7.855 8.974 4.104 1.299 8.544.211 11.586-2.83l3.624-3.624 22.261 22.261c4.383 4.428 11.852 4.446 16.25.002l15.513-15.513c4.479-4.48 4.479-11.769 0-16.249zm-1.375 40.934-22.264-22.264c-2.24-2.238-5.182-3.357-8.123-3.357-3.59 0-7.049 1.822-9.453 4.688l-6.248-35.703 35.702 6.249c-5.532 4.299-6.34 12.593-1.329 17.577l22.263 22.262zm-70.525-84.885c4.143 0 7.5-3.357 7.5-7.5v-10.269l13.398 15.224c2.746 3.119 7.487 3.401 10.585.675 3.109-2.736 3.411-7.476.675-10.585l-11.125-12.64c7.617-3.039 12.995-10.281 12.995-18.721 0-11.167-9.409-20.252-20.974-20.252h-13.039c-.003 0-.005 0-.008 0s-.005 0-.008 0c-4.143 0-7.5 3.357-7.5 7.5v49.067c.001 4.144 3.359 7.501 7.501 7.501zm13.055-49.067c3.238 0 5.974 2.405 5.974 5.252s-2.735 5.252-5.974 5.252c-1.316 0-3.386.008-5.489.017-.01-2.028-.021-8.388-.027-10.521zm41.741 49.067c4.143 0 7.5-3.357 7.5-7.5v-24.916l19.446 28.159c2.15 3.106 5.756 4.418 9.19 3.346 3.49-1.092 5.746-4.326 5.746-8.314l-.459-47.414c-.04-4.118-3.39-7.428-7.498-7.428h-.074c-4.143.04-7.468 3.431-7.428 7.572l.247 25.442-20.499-29.685c-1.865-2.701-5.267-3.873-8.404-2.898-3.133.977-5.268 3.878-5.268 7.16v48.976c.001 4.143 3.359 7.5 7.501 7.5zm-100.048-76.536h19.203c4.143 0 7.5-3.357 7.5-7.5s-3.357-7.5-7.5-7.5h-11.703v-7.787h10.287c4.143 0 7.5-3.357 7.5-7.5s-3.357-7.5-7.5-7.5h-10.287v-7.788h11.703c4.143 0 7.5-3.357 7.5-7.5s-3.357-7.5-7.5-7.5h-19.203c-4.143 0-7.5 3.357-7.5 7.5v45.575c0 4.143 3.358 7.5 7.5 7.5zm-66.888-113.075c0 4.142 3.358 7.5 7.5 7.5s7.5-3.358 7.5-7.5-3.358-7.5-7.5-7.5-7.5 3.358-7.5 7.5zm42.701 189.12c3.779 1.44 8.192-.419 9.679-4.339l2.749-7.218h19.249l2.716 7.196c1.462 3.875 5.79 5.832 9.665 4.368 3.875-1.462 5.831-5.789 4.368-9.665l-18.257-48.378c-1.268-3.355-4.475-5.541-8.044-5.54h-.005c-3.581.001-6.74 2.187-8.034 5.521l-18.425 48.376c-1.475 3.872.469 8.205 4.339 9.679zm22.097-36.943 3.92 10.387h-7.876zm-94.798-152.177c0 4.142 3.358 7.5 7.5 7.5s7.5-3.358 7.5-7.5-3.358-7.5-7.5-7.5-7.5 3.358-7.5 7.5zm-30 0c0 4.142 3.358 7.5 7.5 7.5s7.5-3.358 7.5-7.5-3.358-7.5-7.5-7.5-7.5 3.358-7.5 7.5zm354.99 5.54h-52.01v-23.54c0-10.752-8.748-19.5-19.5-19.5h-43.673c-4.143 0-7.5 3.357-7.5 7.5s3.357 7.5 7.5 7.5h43.673c2.481 0 4.5 2.019 4.5 4.5v40.5h-302.98v-40.5c0-2.481 2.019-4.5 4.5-4.5h215.308c4.143 0 7.5-3.357 7.5-7.5s-3.357-7.5-7.5-7.5h-215.308c-10.752 0-19.5 8.748-19.5 19.5v23.54h-52.01c-20.678 0-37.5 16.822-37.5 37.5v282.42c0 20.678 16.822 37.5 37.5 37.5h175.384l-5.712 42.455h-8.357c-6.941 0-13.083 4.671-14.937 11.357l-10.562 38.085c-1.307 4.706-.359 9.636 2.597 13.524s7.454 6.118 12.339 6.118h135.496c4.885 0 9.383-2.23 12.339-6.118 2.956-3.889 3.903-8.818 2.598-13.523l-10.563-38.085c-1.854-6.688-7.995-11.358-14.937-11.358h-8.357l-5.712-42.455h175.384c20.678 0 37.5-16.822 37.5-37.5v-282.42c0-20.678-16.822-37.5-37.5-37.5zm-52.01 45h44.51v252.42h-44.51zm-325.48 202.19c4.143 0 7.5-3.357 7.5-7.5v-207.73h302.98v265.46h-302.98v-22.73c0-4.143-3.357-7.5-7.5-7.5s-7.5 3.357-7.5 7.5v22.729h-44.51v-252.419h44.51v194.69c0 4.143 3.357 7.5 7.5 7.5zm216.176 167.685c.224 0 .422.149.481.364v.001l10.563 38.087c.021.078.065.238-.084.436-.15.197-.317.197-.398.197h-135.496c-.081 0-.248 0-.398-.197-.149-.197-.105-.357-.083-.437l10.563-38.087c.06-.215.258-.364.481-.364zm-90.88-15 5.712-42.455h55.963l5.712 42.455zm274.694-79.955c0 12.406-10.094 22.5-22.5 22.5h-437c-12.406 0-22.5-10.094-22.5-22.5v-282.42c0-12.406 10.094-22.5 22.5-22.5h52.01v15h-48.01c-6.341 0-11.5 5.159-11.5 11.5v259.42c0 6.341 5.159 11.5 11.5 11.5h429c6.341 0 11.5-5.159 11.5-11.5v-259.42c0-6.341-5.159-11.5-11.5-11.5h-48.01v-15h52.01c12.406 0 22.5 10.094 22.5 22.5zm-367.095-135.997c2.995.512 11.843.145 18.489.107 4.142-.023 7.481-3.399 7.458-7.542-.023-4.128-3.376-7.458-7.499-7.458h-.043c-3.276.019-6.726.032-9.64.038v-41.564c0-4.143-3.357-7.5-7.5-7.5s-7.5 3.357-7.5 7.5v49.026c.001 3.655 2.634 6.777 6.235 7.393zm47.485.148h20.486c4.143 0 7.5-3.357 7.5-7.5s-3.357-7.5-7.5-7.5h-12.986v-9.31h11.476c4.143 0 7.5-3.357 7.5-7.5s-3.357-7.5-7.5-7.5h-11.476v-9.31h12.986c4.143 0 7.5-3.357 7.5-7.5s-3.357-7.5-7.5-7.5h-20.486c-4.143 0-7.5 3.357-7.5 7.5v48.619c0 4.144 3.357 7.501 7.5 7.501z"/></g></svg>