<svg id="Layer_1" enable-background="new 0 0 512 512" height="512" viewBox="0 0 512 512" width="512" xmlns="http://www.w3.org/2000/svg"><g><g><g><g><path d="m474.5 392.962h-437c-16.569 0-30-13.431-30-30v-282.417c0-16.569 13.431-30 30-30h437c16.569 0 30 13.431 30 30v282.417c0 16.568-13.431 30-30 30z" fill="#506d90"/><path d="m474.5 50.545h-30c16.569 0 30 13.431 30 30v282.417c0 16.569-13.431 30-30 30h30c16.569 0 30-13.431 30-30v-282.417c0-16.569-13.431-30-30-30z" fill="#455f7e"/><path d="m37.5 343.962v-259.417c0-2.209 1.791-4 4-4h429c2.209 0 4 1.791 4 4v259.417c0 2.209-1.791 4-4 4h-429c-2.209 0-4-1.791-4-4z" fill="#ecf5ff"/><path d="m37.5 343.962v-259.417c0-2.209 1.791-4 4-4h429c2.209 0 4 1.791 4 4v259.417c0 2.209-1.791 4-4 4h-429c-2.209 0-4-1.791-4-4z" fill="#ecf5ff"/><path d="m470.5 80.545h-30c2.209 0 4 1.791 4 4v259.417c0 2.209-1.791 4-4 4h30c2.209 0 4-1.791 4-4v-259.417c0-2.21-1.791-4-4-4z" fill="#dbeafd"/><path d="m305.543 504.5h-99.086l15-111.538h69.086z" fill="#455f7e"/><path d="m290.543 392.962h-30l15 111.538h30z" fill="#405972"/><path d="m320.895 456.277 10.563 38.085c1.414 5.097-2.42 10.138-7.709 10.138h-135.497c-5.289 0-9.123-5.041-7.709-10.138l10.563-38.085c.961-3.464 4.114-5.862 7.709-5.862h114.372c3.594 0 6.747 2.397 7.708 5.862z" fill="#506d90"/><path d="m331.458 494.362-10.563-38.085c-.961-3.464-4.114-5.862-7.709-5.862h-30c3.595 0 6.748 2.398 7.709 5.862l10.563 38.085c1.414 5.097-2.42 10.138-7.709 10.138h30c5.289 0 9.122-5.041 7.709-10.138z" fill="#455f7e"/></g><path d="m97.01 67.5h317.98v280.462h-317.98z" fill="#f7f6f7"/><path d="m384.99 67.5h30v280.462h-30z" fill="#e2d8ec"/><g><path d="m239.185 193.88c0-40.198 32.728-72.751 72.992-72.467 39.876.281 72.254 33.167 71.944 73.042-.195 25.121-13.175 47.195-32.752 60.046-.917.602-1.458 1.637-1.458 2.734v28.265c0 2.13-2.321 3.449-4.15 2.358l-35.416-21.109c-.473-.282-1.01-.436-1.561-.458-38.693-1.507-69.599-33.349-69.599-72.411z" fill="#bfe69f"/><path d="m312.177 121.413c-5.328-.038-10.518.515-15.524 1.569 32.945 6.999 57.74 36.555 57.468 71.473-.175 22.419-10.531 42.411-26.672 55.587-4.821 3.935-7.538 9.89-7.538 16.112v6.296l25.849 15.407c1.83 1.091 4.151-.228 4.151-2.358v-28.265c0-1.123.579-2.156 1.518-2.773 19.543-12.857 32.497-34.911 32.692-60.006.31-39.875-32.068-72.76-71.944-73.042z" fill="#a4d9a6"/><path d="m255.431 161.277c0-35.376-28.803-64.025-64.237-63.775-35.093.248-63.588 29.189-63.315 64.282.172 22.108 11.595 41.534 28.824 52.844.807.53 1.283 1.44 1.283 2.406v24.875c0 1.875 2.042 3.035 3.653 2.075l31.169-18.577c.416-.248.889-.384 1.373-.403 34.051-1.327 61.25-29.35 61.25-63.727z" fill="#bcd7fd"/><path d="m191.194 97.501c-4.985.035-9.831.668-14.487 1.797 13.978 3.383 26.159 11.369 34.846 22.263 2.791 3.5 15.36 19.212 13.878 39.715-1.639 22.678-19.885 43.192-45.762 51.528-3.865 3.964-8.961 8.338-15.489 12.198-2.125 1.257-4.201 2.34-6.195 3.276v13.628c0 1.875 2.042 3.035 3.653 2.075l31.169-18.577c.416-.248.889-.384 1.373-.403 34.052-1.327 61.251-29.349 61.251-63.726 0-35.374-28.803-64.023-64.237-63.774z" fill="#9bc6fd"/></g><path d="m387.99 7.5h-278.98c-6.627 0-12 5.373-12 12v48h317.98l-15-48c0-6.627-5.373-12-12-12z" fill="#455f7e"/><path d="m402.99 7.5h-30c6.627 0 12 5.373 12 12v48h30v-48c0-6.627-5.373-12-12-12z" fill="#405972"/></g></g><path d="m342.343 175.687h8.101c4.143 0 7.5-3.357 7.5-7.5s-3.357-7.5-7.5-7.5c-7.193 0-22.193-.019-29.487 0v-8.528c0-4.143-3.357-7.5-7.5-7.5s-7.5 3.357-7.5 7.5v8.528h-25.51c-4.143 0-7.5 3.357-7.5 7.5s3.357 7.5 7.5 7.5h45.251c-4.026 7.67-9.859 16.232-18.229 24.076-3.42-3.645-6.465-7.639-9.091-11.954-2.153-3.539-6.767-4.662-10.306-2.509s-4.662 6.768-2.509 10.306c2.937 4.826 6.319 9.313 10.083 13.449-5.022 3.292-10.389 6.092-16.05 8.334-3.851 1.526-5.734 5.885-4.209 9.736 1.543 3.897 5.966 5.703 9.736 4.209 7.789-3.087 15.111-7.074 21.856-11.859 8.813 6.785 18.721 11.799 29.516 14.867 3.882 1.103 8.12-1.136 9.265-5.163 1.133-3.984-1.179-8.133-5.163-9.265-7.847-2.231-15.123-5.702-21.72-10.304 11.738-11.347 19.035-23.828 23.466-33.923zm-191.858 43.777v22.444c0 3.56 1.923 6.863 5.018 8.622 3.094 1.759 6.916 1.719 9.976-.104l30.171-17.982c14.973-.825 28.625-6.2 39.667-14.738 4.16 13.316 11.789 25.436 22.191 35.014 13.678 12.595 31.352 20.032 49.901 21.015l34.513 20.57c3.161 1.882 7.109 1.92 10.305.104 3.197-1.817 5.184-5.23 5.184-8.908v-26.033c21.271-14.848 34.013-38.954 34.21-64.948.104-13.521-3.267-26.935-9.75-38.794-1.988-3.635-6.547-4.97-10.179-2.983-3.635 1.987-4.97 6.544-2.983 10.179 5.262 9.624 7.998 20.51 7.912 31.483-.165 21.745-11.143 41.867-29.346 53.813-3.046 1.985-4.864 5.358-4.864 9.023v19.893l-28.228-16.823c-1.553-.927-3.329-1.45-5.109-1.514-30.726-1.2-56.025-23.436-61.35-53.374 9.545-12.136 15.208-27.466 15.208-44.145 0-3.238-.232-6.439-.653-9.594 12.477-14.637 30.456-22.901 49.849-22.773 12.659.089 24.924 3.867 35.469 10.926 3.441 2.303 8.101 1.382 10.404-2.061 2.305-3.441 1.382-8.101-2.061-10.404-12.991-8.696-28.104-13.352-43.709-13.461-.188-.001-.374-.002-.563-.002-20.25 0-39.239 7.442-53.844 20.807-3.568-8.895-8.937-17.056-15.948-24.017-13.455-13.361-31.269-20.699-50.217-20.699-.171 0-.346.001-.518.002-18.977.134-36.809 7.702-50.211 21.311-13.4 13.606-20.699 31.552-20.552 50.529.18 23.013 11.388 44.367 30.107 57.622zm1.133-97.626c10.589-10.752 24.662-16.73 39.629-16.836.137-.001.273-.002.409-.002 14.961 0 29.028 5.795 39.65 16.343 10.721 10.645 16.625 24.827 16.625 39.935 0 30.267-23.325 55.057-54.038 56.232-1.735.066-3.438.568-4.927 1.454l-23.481 13.996v-15.927c0-3.512-1.743-6.754-4.666-8.676-15.784-10.361-25.294-27.794-25.44-46.633-.116-14.969 5.65-29.135 16.239-39.886zm11.681 68.121c3.76 1.739 8.217.102 9.956-3.657l4.989-10.781h26.822l4.989 10.781c1.757 3.806 6.268 5.364 9.956 3.657 3.759-1.739 5.396-6.197 3.657-9.956l-25.206-54.477c-1.228-2.652-3.884-4.351-6.807-4.351s-5.579 1.698-6.807 4.351l-25.206 54.477c-1.74 3.759-.102 8.217 3.657 9.956zm28.355-43.423 6.47 13.984h-12.941zm-4.644-116.536c-4.142 0-7.5 3.358-7.5 7.5s3.358 7.5 7.5 7.5 7.5-3.358 7.5-7.5-3.358-7.5-7.5-7.5zm-60 295.462h257.98c4.143 0 7.5-3.357 7.5-7.5s-3.357-7.5-7.5-7.5h-257.98c-4.143 0-7.5 3.357-7.5 7.5s3.357 7.5 7.5 7.5zm347.49-282.422h-52.01v-23.54c0-10.752-8.748-19.5-19.5-19.5h-293.98c-10.752 0-19.5 8.748-19.5 19.5v23.54h-52.01c-20.678 0-37.5 16.822-37.5 37.5v196.961c0 4.143 3.357 7.5 7.5 7.5s7.5-3.357 7.5-7.5v-196.961c0-12.406 10.094-22.5 22.5-22.5h52.01v15h-48.01c-6.341 0-11.5 5.159-11.5 11.5v259.42c0 6.341 5.159 11.5 11.5 11.5h429c6.341 0 11.5-5.159 11.5-11.5v-259.42c0-6.341-5.159-11.5-11.5-11.5h-48.01v-15h52.01c12.406 0 22.5 10.094 22.5 22.5v282.42c0 12.406-10.094 22.5-22.5 22.5h-437c-12.406 0-22.5-10.094-22.5-22.5v-50.459c0-4.143-3.357-7.5-7.5-7.5s-7.5 3.357-7.5 7.5v50.459c0 20.678 16.822 37.5 37.5 37.5h175.384l-5.712 42.455h-8.357c-6.941 0-13.083 4.671-14.937 11.357l-10.562 38.085c-1.307 4.706-.359 9.636 2.597 13.524s7.454 6.118 12.339 6.118h135.496c4.885 0 9.383-2.23 12.339-6.118 2.956-3.889 3.903-8.818 2.598-13.523l-10.563-38.085c-1.854-6.688-7.995-11.358-14.937-11.358h-8.357l-5.712-42.455h175.384c20.678 0 37.5-16.822 37.5-37.5v-282.42c0-20.678-16.822-37.5-37.5-37.5zm-384.99 297.42h-44.51v-252.42h44.51zm317.98 0h-302.98v-265.46h302.98zm0-280.46h-302.98v-40.5c0-2.481 2.019-4.5 4.5-4.5h293.98c2.481 0 4.5 2.019 4.5 4.5zm59.51 28.04v252.42h-44.51v-252.42zm-238.981 312.42h55.963l5.712 42.455h-67.388zm85.167 57.455c.224 0 .422.149.481.364v.001l10.563 38.087c.094.24-.221.66-.482.633h-135.496c-.262.027-.58-.387-.481-.634l10.563-38.087c.06-.215.258-.364.481-.364zm-186.176-427.915c-4.142 0-7.5 3.358-7.5 7.5s3.358 7.5 7.5 7.5 7.5-3.358 7.5-7.5-3.358-7.5-7.5-7.5zm30 0c-4.142 0-7.5 3.358-7.5 7.5s3.358 7.5 7.5 7.5 7.5-3.358 7.5-7.5-3.358-7.5-7.5-7.5z"/></g></svg>