<svg id="Layer_1" enable-background="new 0 0 512 512" height="512" viewBox="0 0 512 512" width="512" xmlns="http://www.w3.org/2000/svg"><g><g><g><g><path d="m474.5 392.962h-437c-16.569 0-30-13.431-30-30v-282.417c0-16.569 13.431-30 30-30h437c16.569 0 30 13.431 30 30v282.417c0 16.568-13.431 30-30 30z" fill="#506d90"/><path d="m474.5 50.545h-30c16.569 0 30 13.431 30 30v282.417c0 16.569-13.431 30-30 30h30c16.569 0 30-13.431 30-30v-282.417c0-16.569-13.431-30-30-30z" fill="#455f7e"/><path d="m37.5 343.962v-259.417c0-2.209 1.791-4 4-4h429c2.209 0 4 1.791 4 4v259.417c0 2.209-1.791 4-4 4h-429c-2.209 0-4-1.791-4-4z" fill="#ecf5ff"/><path d="m37.5 343.962v-259.417c0-2.209 1.791-4 4-4h429c2.209 0 4 1.791 4 4v259.417c0 2.209-1.791 4-4 4h-429c-2.209 0-4-1.791-4-4z" fill="#ecf5ff"/><path d="m470.5 80.545h-30c2.209 0 4 1.791 4 4v259.417c0 2.209-1.791 4-4 4h30c2.209 0 4-1.791 4-4v-259.417c0-2.21-1.791-4-4-4z" fill="#dbeafd"/><path d="m305.543 504.5h-99.086l15-111.538h69.086z" fill="#455f7e"/><path d="m290.543 392.962h-30l15 111.538h30z" fill="#405972"/><path d="m320.895 456.277 10.563 38.085c1.414 5.097-2.42 10.138-7.709 10.138h-135.497c-5.289 0-9.123-5.041-7.709-10.138l10.563-38.085c.961-3.464 4.114-5.862 7.709-5.862h114.372c3.594 0 6.747 2.397 7.708 5.862z" fill="#506d90"/><path d="m331.458 494.362-10.563-38.085c-.961-3.464-4.114-5.862-7.709-5.862h-30c3.595 0 6.748 2.398 7.709 5.862l10.563 38.085c1.414 5.097-2.42 10.138-7.709 10.138h30c5.289 0 9.122-5.041 7.709-10.138z" fill="#455f7e"/></g><path d="m97.01 67.5h317.98v280.462h-317.98z" fill="#f7f6f7"/><path d="m384.99 67.5h30v280.462h-30z" fill="#e2d8ec"/><g><g><path d="m336.037 287.962h-160.074c-8.491 0-15.374-6.883-15.374-15.374v-159.714c0-8.491 6.883-15.374 15.374-15.374h160.073c8.491 0 15.374 6.883 15.374 15.374v159.713c.001 8.492-6.882 15.375-15.373 15.375z" fill="#dd8793"/></g><path d="m336.037 97.5h-30c8.491 0 15.374 6.883 15.374 15.374v159.713c0 8.491-6.883 15.374-15.374 15.374h30c8.491 0 15.374-6.883 15.374-15.374v-159.713c0-8.491-6.883-15.374-15.374-15.374z" fill="#d5707e"/><path d="m314.411 169.941h-31.32c-2.209 0-4-1.791-4-4v-26.441c0-3.866-3.134-7-7-7h-32.182c-3.866 0-7 3.134-7 7v26.441c0 2.209-1.791 4-4 4h-31.32c-3.866 0-7 3.134-7 7v32.181c0 3.866 3.134 7 7 7h31.32c2.209 0 4 1.791 4 4v25.84c0 3.866 3.134 7 7 7h32.182c3.866 0 7-3.134 7-7v-25.84c0-2.209 1.791-4 4-4h31.32c3.866 0 7-3.134 7-7v-32.181c0-3.866-3.134-7-7-7z" fill="#fff"/></g><path d="m387.99 7.5h-278.98c-6.627 0-12 5.373-12 12v48h317.98l-15-48c0-6.627-5.373-12-12-12z" fill="#455f7e"/><path d="m402.99 7.5h-30c6.627 0 12 5.373 12 12v48h30v-48c0-6.627-5.373-12-12-12z" fill="#405972"/></g></g><path d="m194.51 37.5c0-4.142-3.358-7.5-7.5-7.5s-7.5 3.358-7.5 7.5 3.358 7.5 7.5 7.5 7.5-3.358 7.5-7.5zm-37.5-7.5c-4.142 0-7.5 3.358-7.5 7.5s3.358 7.5 7.5 7.5 7.5-3.358 7.5-7.5-3.358-7.5-7.5-7.5zm-30 0c-4.142 0-7.5 3.358-7.5 7.5s3.358 7.5 7.5 7.5 7.5-3.358 7.5-7.5-3.358-7.5-7.5-7.5zm48.954 265.462h160.072c12.613 0 22.875-10.262 22.875-22.874v-159.714c0-12.612-10.262-22.874-22.875-22.874h-160.072c-12.613 0-22.875 10.262-22.875 22.874v159.714c0 12.612 10.262 22.874 22.875 22.874zm-7.875-182.588c0-4.342 3.533-7.874 7.875-7.874h160.072c4.342 0 7.875 3.532 7.875 7.874v159.714c0 4.342-3.533 7.874-7.875 7.874h-160.072c-4.342 0-7.875-3.532-7.875-7.874zm216.901 197.588h-257.98c-4.143 0-7.5 3.357-7.5 7.5s3.357 7.5 7.5 7.5h257.98c4.143 0 7.5-3.357 7.5-7.5s-3.357-7.5-7.5-7.5zm-187.401-86.84h27.82v22.34c0 7.995 6.505 14.5 14.5 14.5h32.182c7.995 0 14.5-6.505 14.5-14.5v-22.34h27.82c7.995 0 14.5-6.505 14.5-14.5v-32.182c0-7.995-6.505-14.5-14.5-14.5h-27.82v-22.94c0-7.995-6.505-14.5-14.5-14.5h-32.182c-7.995 0-14.5 6.505-14.5 14.5v22.94h-27.82c-7.995 0-14.5 6.505-14.5 14.5v32.182c0 7.995 6.505 14.5 14.5 14.5zm.5-46.182h30.82c6.341 0 11.5-5.159 11.5-11.5v-25.94h31.182v25.94c0 6.341 5.159 11.5 11.5 11.5h30.82v31.182h-30.82c-6.341 0-11.5 5.159-11.5 11.5v25.34h-31.182v-25.34c0-6.341-5.159-11.5-11.5-11.5h-30.82zm276.411-134.4h-52.01v-23.54c0-10.752-8.748-19.5-19.5-19.5h-293.98c-10.752 0-19.5 8.748-19.5 19.5v23.54h-52.01c-20.678 0-37.5 16.822-37.5 37.5v282.42c0 20.678 16.822 37.5 37.5 37.5h175.384l-5.712 42.455h-8.357c-6.941 0-13.083 4.671-14.937 11.357l-10.562 38.085c-1.307 4.706-.359 9.636 2.597 13.524s7.454 6.118 12.339 6.118h135.496c4.885 0 9.383-2.23 12.339-6.118 2.956-3.889 3.903-8.818 2.598-13.523l-10.563-38.085c-1.854-6.688-7.995-11.358-14.937-11.358h-8.357l-5.712-42.455h175.384c20.678 0 37.5-16.822 37.5-37.5v-282.42c0-20.678-16.822-37.5-37.5-37.5zm-369.99 31.96h77.5c4.143 0 7.5-3.357 7.5-7.5s-3.357-7.5-7.5-7.5h-77.5v-40.5c0-2.481 2.019-4.5 4.5-4.5h293.98c2.481 0 4.5 2.019 4.5 4.5v40.5h-190.48c-4.143 0-7.5 3.357-7.5 7.5s3.357 7.5 7.5 7.5h190.48v202.435c0 4.143 3.357 7.5 7.5 7.5s7.5-3.357 7.5-7.5v-189.395h44.51v252.42h-44.51v-28.025c0-4.143-3.357-7.5-7.5-7.5s-7.5 3.357-7.5 7.5v28.025h-302.98zm208.676 382.915c.224 0 .422.149.481.364v.001l10.563 38.087c.094.24-.222.66-.482.633h-135.496c-.262.027-.58-.387-.481-.634l10.563-38.087c.06-.215.258-.364.481-.364zm-90.88-15 5.712-42.455h55.963l5.712 42.455zm274.694-79.955c0 12.406-10.094 22.5-22.5 22.5h-437c-12.406 0-22.5-10.094-22.5-22.5v-282.42c0-12.406 10.094-22.5 22.5-22.5h52.01v15h-48.01c-6.341 0-11.5 5.159-11.5 11.5v259.42c0 6.341 5.159 11.5 11.5 11.5h429c6.341 0 11.5-5.159 11.5-11.5v-259.42c0-6.341-5.159-11.5-11.5-11.5h-48.01v-15h52.01c12.406 0 22.5 10.094 22.5 22.5zm-407.49-274.92v252.42h-44.51v-252.42z"/></g></svg>