<svg id="Layer_1" enable-background="new 0 0 512 512" height="512" viewBox="0 0 512 512" width="512" xmlns="http://www.w3.org/2000/svg"><g><g><path d="m254.035 307.494h-137.07c-28.111 0-50.899-22.788-50.899-50.899v-129.661c0-65.962 53.472-119.434 119.434-119.434 65.962 0 119.434 53.472 119.434 119.434v129.661c0 28.111-22.788 50.899-50.899 50.899z" fill="#365e7d"/><path d="m185.5 7.5c-5.081 0-10.086.32-15 .936 58.881 7.378 104.434 57.617 104.434 118.499v129.661c0 28.111-22.788 50.899-50.899 50.899h30c28.111 0 50.899-22.788 50.899-50.899v-129.662c0-65.962-53.472-119.434-119.434-119.434z" fill="#2b4d66"/><g><g><path d="m363.5 502v-138.255c0-28.174-19.603-52.554-47.121-58.601l-73.673-16.192c-9.172-2.016-15.706-10.142-15.706-19.534v-60.918h-83v60.918c0 9.391-6.534 17.518-15.707 19.534l-73.673 16.192c-27.517 6.048-47.12 30.427-47.12 58.601v138.255c0 5.523 4.477 10 10 10h336c5.523 0 10-4.477 10-10z" fill="#bfe69f"/></g><path d="m17.5 512h68.056v-52.5h-78.056v42.5c0 5.523 4.477 10 10 10z" fill="#cf9772"/><path d="m125.129 289.647c13.889 18.143 35.758 29.853 60.371 29.853s46.482-11.71 60.371-29.853l-3.164-.695c-9.173-2.016-15.707-10.142-15.707-19.534v-60.918h-83v60.918c0 9.391-6.534 17.518-15.707 19.534z" fill="#cf9772"/><g><g><g><path d="m273.393 117.013c-7.522-2.158-19.898-6.74-32.384-16.789-10.958-8.818-17.848-18.504-21.979-25.636-1.255-2.167-4.174-2.658-6.062-1.012-8.315 7.248-18.756 14.992-31.523 21.926-33.383 18.13-65.238 21.255-83.837 21.51v56.039c0 48.542 39.351 87.893 87.893 87.893 48.542 0 87.893-39.351 87.893-87.893v-56.038z" fill="#cf9772"/><path d="m243.393 117.013v56.039c.213 5.801.659 34.346-20.923 56.922-19.543 20.444-49.707 28.209-78.47 20.571 8.568 4.469 20.017 8.851 33.843 10.068 2.652.233 5.208.334 7.657.332 48.542 0 87.893-39.351 87.893-87.893v-56.039c-7.025-2.015-18.281-6.145-29.909-14.865z" fill="#c88556"/></g><path d="m284.189 158.504h-10.796v-41.491h10.796c11.457 0 20.745 9.288 20.745 20.745 0 11.458-9.288 20.746-20.745 20.746z" fill="#cf9772"/><path d="m86.811 158.504h10.796v-41.491h-10.796c-11.457 0-20.745 9.288-20.745 20.745 0 11.458 9.288 20.746 20.745 20.746z" fill="#c88556"/></g></g></g><g><g><path d="m201.5 474.5h293c5.523 0 10 4.477 10 10v10c0 5.523-4.477 10-10 10h-293c-5.523 0-10-4.477-10-10v-10c0-5.523 4.477-10 10-10z" fill="#455f7e"/><path d="m494.5 474.5h-30c5.523 0 10 4.477 10 10v10c0 5.523-4.477 10-10 10h30c5.523 0 10-4.477 10-10v-10c0-5.523-4.477-10-10-10z" fill="#405972"/><g><path d="m474.5 474.5h-253c-16.569 0-30-13.431-30-30v-165c0-16.569 13.431-30 30-30h253c16.569 0 30 13.431 30 30v165c0 16.569-13.431 30-30 30z" fill="#506d90"/></g><path d="m474.5 249.5h-30c16.569 0 30 13.431 30 30v165c0 16.569-13.431 30-30 30h30c16.569 0 30-13.431 30-30v-165c0-16.569-13.431-30-30-30z" fill="#455f7e"/></g></g><circle cx="348" cy="362" fill="#fff" r="32.5"/><path d="m348 329.5c-5.412 0-10.511 1.331-15 3.671 10.397 5.421 17.5 16.292 17.5 28.829s-7.103 23.408-17.5 28.829c4.489 2.34 9.588 3.671 15 3.671 17.949 0 32.5-14.551 32.5-32.5s-14.551-32.5-32.5-32.5z" fill="#efeaf4"/></g><path d="m348 322c-22.056 0-40 17.944-40 40s17.944 40 40 40 40-17.944 40-40-17.944-40-40-40zm0 65c-13.785 0-25-11.215-25-25s11.215-25 25-25 25 11.215 25 25-11.215 25-25 25zm-120.093-219.976c4.142 0 7.5-3.357 7.5-7.5v-16.963c0-4.143-3.358-7.5-7.5-7.5s-7.5 3.357-7.5 7.5v16.963c0 4.143 3.358 7.5 7.5 7.5zm-142.351 268.103c-4.142 0-7.5 3.357-7.5 7.5v9.373h-63.056v-33.702c0-4.143-3.358-7.5-7.5-7.5s-7.5 3.357-7.5 7.5v86.202c0 4.143 3.358 7.5 7.5 7.5s7.5-3.357 7.5-7.5v-37.5h63.056v37.5c0 4.143 3.358 7.5 7.5 7.5s7.5-3.357 7.5-7.5v-61.873c0-4.143-3.358-7.5-7.5-7.5zm113.298-223.89c-2.911 1.599-7.627 3.511-13.645 3.426-5.747-.06-10.276-1.896-13.063-3.426-3.633-1.993-8.191-.665-10.183 2.967-1.993 3.631-.665 8.19 2.966 10.184 4.292 2.355 11.267 5.183 20.124 5.275 8.979.094 16.575-2.837 21.018-5.275 3.631-1.993 4.959-6.553 2.966-10.184-1.992-3.631-6.551-4.958-10.183-2.967zm-55.761-76.175c-4.142 0-7.5 3.357-7.5 7.5v16.963c0 4.143 3.358 7.5 7.5 7.5s7.5-3.357 7.5-7.5v-16.963c0-4.143-3.358-7.5-7.5-7.5zm368.907 144.438c0-20.678-16.822-37.5-37.5-37.5h-53.966c-4.142 0-7.5 3.357-7.5 7.5s3.358 7.5 7.5 7.5h53.966c12.407 0 22.5 10.094 22.5 22.5v165c0 12.406-10.093 22.5-22.5 22.5h-253c-12.407 0-22.5-10.094-22.5-22.5v-165c0-12.406 10.093-22.5 22.5-22.5.047-.024 164.034 0 164.034 0 4.142 0 7.5-3.357 7.5-7.5s-3.358-7.5-7.5-7.5h-73.104c.068-.212 0-115.07 0-115.07.007-70.532-57.29-126.93-126.93-126.93-69.99 0-126.93 56.94-126.93 126.93v129.67c0 13.635 4.83 26.72 13.316 37.067l-18.876 4.148c-14.974 3.292-28.51 11.686-38.115 23.633-9.605 11.947-14.895 26.97-14.895 42.302v19.548c0 4.143 3.358 7.5 7.5 7.5s7.5-3.357 7.5-7.5v-19.548c0-24.464 17.34-46.032 41.23-51.285l65.991-14.502c15.577 18.136 37.775 28.598 61.779 29.017v117.52c0 9.402 3.486 17.999 9.222 24.588-5.485 2.958-9.222 8.756-9.222 15.412v10c0 9.649 7.851 17.5 17.5 17.5h293c9.649 0 17.5-7.851 17.5-17.5v-10c0-6.656-3.737-12.454-9.222-15.412 5.736-6.589 9.222-15.186 9.222-24.588zm-214.57-37.5h-46.025c18.946-18.138 29.497-42.723 29.485-68.95v-7.046h3.299c4.783 0 9.289-1.199 13.241-3.306zm0-104.164c-.042 7.268-5.964 13.168-13.241 13.168h-3.296v-26.49h3.296c7.277 0 13.199 5.9 13.241 13.168zm-111.93-122.836c55.138 0 104.023 41.853 110.987 97.336-3.72-1.807-7.892-2.822-12.298-2.822h-9.647c-10.397-3.104-20.35-8.314-28.834-15.14-8.134-6.538-14.926-14.459-20.192-23.55-1.731-2.981-4.672-5.014-8.068-5.573-3.391-.563-6.821.418-9.401 2.671-9.332 8.121-19.487 15.182-30.187 20.987-24.11 13.095-51.895 20.219-80.351 20.602-.016 0-.031.003-.046.003h-10.652c-4.402 0-8.572 1.014-12.289 2.818 7.175-54.846 54.207-97.332 110.978-97.332zm-111.93 122.682c.042-7.268 5.964-13.168 13.241-13.168h3.296v26.49h-3.296c-7.277 0-13.199-5.9-13.241-13.168zm62.93 131.738c.002 5.737-4.102 10.96-9.829 12.207l-37.544 8.25c-9.789-8.214-15.557-20.421-15.557-33.278v-93.902c3.952 2.107 8.459 3.306 13.241 3.306h3.299v7.046c0 34.698 18.621 65.125 46.39 81.821zm47.5 10.08v32.464c-17.356-.371-33.551-7.13-45.868-18.979 7.269-4.438 13.398-12.828 13.368-23.565v-7.239c10.567 4.045 22.028 6.269 34 6.269.055 0 .109-.003.164-.003-1.08 3.496-1.664 7.207-1.664 11.053zm1.5-26.05c-44.327 0-80.39-36.067-80.39-80.4v-48.781c28.288-1.457 55.771-9.067 79.907-22.177 10.452-5.672 20.424-12.438 29.702-20.154 5.851 9.199 13.099 17.302 21.589 24.126 8.791 7.072 18.925 12.69 29.582 16.428v50.559c0 21.476-8.361 41.664-23.543 56.847-4.672 4.672-9.883 8.732-15.502 12.104h-5.345c-10.275 0-19.596 4.157-26.376 10.874-3.188.375-6.414.574-9.624.574zm311.5 241.05c0 1.379-1.122 2.5-2.5 2.5h-293c-1.378 0-2.5-1.121-2.5-2.5v-10c0-1.379 1.122-2.5 2.5-2.5h293c1.378 0 2.5 1.121 2.5 2.5z"/></g></svg>