<svg id="Layer_1" enable-background="new 0 0 512 512" height="512" viewBox="0 0 512 512" width="512" xmlns="http://www.w3.org/2000/svg"><g><g><g><g><path d="m474.5 392.962h-437c-16.569 0-30-13.431-30-30v-282.417c0-16.569 13.431-30 30-30h437c16.569 0 30 13.431 30 30v282.417c0 16.568-13.431 30-30 30z" fill="#506d90"/><path d="m474.5 50.545h-30c16.569 0 30 13.431 30 30v282.417c0 16.569-13.431 30-30 30h30c16.569 0 30-13.431 30-30v-282.417c0-16.569-13.431-30-30-30z" fill="#455f7e"/><path d="m37.5 343.962v-259.417c0-2.209 1.791-4 4-4h429c2.209 0 4 1.791 4 4v259.417c0 2.209-1.791 4-4 4h-429c-2.209 0-4-1.791-4-4z" fill="#ecf5ff"/><path d="m37.5 343.962v-259.417c0-2.209 1.791-4 4-4h429c2.209 0 4 1.791 4 4v259.417c0 2.209-1.791 4-4 4h-429c-2.209 0-4-1.791-4-4z" fill="#ecf5ff"/><path d="m470.5 80.545h-30c2.209 0 4 1.791 4 4v259.417c0 2.209-1.791 4-4 4h30c2.209 0 4-1.791 4-4v-259.417c0-2.21-1.791-4-4-4z" fill="#dbeafd"/><path d="m305.543 504.5h-99.086l15-111.538h69.086z" fill="#455f7e"/><path d="m290.543 392.962h-30l15 111.538h30z" fill="#405972"/><path d="m320.895 456.277 10.563 38.085c1.414 5.097-2.42 10.138-7.709 10.138h-135.497c-5.289 0-9.123-5.041-7.709-10.138l10.563-38.085c.961-3.464 4.114-5.862 7.709-5.862h114.372c3.594 0 6.747 2.397 7.708 5.862z" fill="#506d90"/><path d="m331.458 494.362-10.563-38.085c-.961-3.464-4.114-5.862-7.709-5.862h-30c3.595 0 6.748 2.398 7.709 5.862l10.563 38.085c1.414 5.097-2.42 10.138-7.709 10.138h30c5.289 0 9.122-5.041 7.709-10.138z" fill="#455f7e"/></g><path d="m97.01 67.5h317.98v280.462h-317.98z" fill="#f7f6f7"/><path d="m291.782 266.673-32.46-21.589c-2.013-1.339-4.633-1.339-6.646 0l-32.459 21.589c-3.988 2.652-9.323-.207-9.323-4.996v-143.177c0-3.314 2.686-6 6-6h78.21c3.314 0 6 2.686 6 6v143.177c.001 4.789-5.334 7.648-9.322 4.996z" fill="#dd8793"/><g><path d="m295.105 112.5h-30c3.314 0 6 2.686 6 6v134.42l20.677 13.753c3.988 2.652 9.323-.207 9.323-4.996v-143.177c0-3.314-2.686-6-6-6z" fill="#d5707e"/></g><path d="m384.99 67.5h30v280.462h-30z" fill="#e2d8ec"/><path d="m387.99 7.5h-278.98c-6.627 0-12 5.373-12 12v48h317.98l-15-48c0-6.627-5.373-12-12-12z" fill="#455f7e"/><path d="m402.99 7.5h-30c6.627 0 12 5.373 12 12v48h30v-48c0-6.627-5.373-12-12-12z" fill="#405972"/></g></g><path d="m210.519 273.576c4.386 2.35 9.695 2.106 13.853-.658l31.628-21.036 31.629 21.036c4.15 2.761 9.458 3.013 13.853.658s7.124-6.914 7.124-11.899v-143.177c0-7.444-6.056-13.5-13.5-13.5h-78.21c-7.444 0-13.5 6.056-13.5 13.5v41.594c0 4.143 3.358 7.5 7.5 7.5s7.5-3.357 7.5-7.5v-40.094h75.21v138.878l-30.128-20.038c-4.542-3.022-10.411-3.021-14.953-.001l-30.129 20.039v-63.784c0-4.143-3.358-7.5-7.5-7.5s-7.5 3.357-7.5 7.5v66.583c-.001 4.985 2.729 9.545 7.123 11.899zm-83.509 51.886h257.98c4.142 0 7.5-3.357 7.5-7.5s-3.358-7.5-7.5-7.5h-257.98c-4.142 0-7.5 3.357-7.5 7.5s3.358 7.5 7.5 7.5zm0-295.462c-4.142 0-7.5 3.358-7.5 7.5s3.358 7.5 7.5 7.5 7.5-3.358 7.5-7.5-3.358-7.5-7.5-7.5zm60 0c-4.142 0-7.5 3.358-7.5 7.5s3.358 7.5 7.5 7.5 7.5-3.358 7.5-7.5-3.358-7.5-7.5-7.5zm287.49 13.04h-52.01v-23.54c0-10.752-8.748-19.5-19.5-19.5h-293.98c-10.752 0-19.5 8.748-19.5 19.5v23.54h-52.01c-20.678 0-37.5 16.822-37.5 37.5v282.42c0 20.678 16.822 37.5 37.5 37.5h175.383l-5.712 42.455h-8.357c-6.939 0-13.081 4.67-14.936 11.357l-10.563 38.085c-1.306 4.707-.358 9.637 2.598 13.524 2.957 3.889 7.454 6.118 12.338 6.118h135.497c4.885 0 9.382-2.229 12.338-6.118 2.956-3.888 3.903-8.817 2.598-13.523l-10.563-38.086c0-.001 0-.001 0-.001-1.855-6.687-7.997-11.356-14.936-11.356h-8.357l-5.712-42.455h88.785c4.142 0 7.5-3.357 7.5-7.5s-3.358-7.5-7.5-7.5h-350.401c-12.407 0-22.5-10.094-22.5-22.5v-282.42c0-12.406 10.093-22.5 22.5-22.5h52.01v15h-48.01c-6.341 0-11.5 5.159-11.5 11.5v259.42c0 6.341 5.159 11.5 11.5 11.5h429c6.341 0 11.5-5.159 11.5-11.5v-259.42c0-6.341-5.159-11.5-11.5-11.5h-48.01v-15h52.01c12.407 0 22.5 10.094 22.5 22.5v282.42c0 12.406-10.093 22.5-22.5 22.5h-51.598c-4.142 0-7.5 3.357-7.5 7.5s3.358 7.5 7.5 7.5h51.598c20.678 0 37.5-16.822 37.5-37.5v-282.42c0-20.678-16.822-37.5-37.5-37.5zm-161.314 414.875c.224 0 .422.15.482.365l10.563 38.087c.095.239-.225.661-.482.633h-135.498c-.259.028-.578-.389-.482-.634l10.563-38.085c.06-.216.258-.366.482-.366zm-85.167-57.455h55.963l5.712 42.455h-67.388zm-138.509-60h-44.51v-252.42h44.51zm317.98 0h-302.98v-265.46h302.98zm0-280.46h-302.98v-40.5c0-2.481 2.019-4.5 4.5-4.5h293.98c2.481 0 4.5 2.019 4.5 4.5zm59.51 28.04v252.42h-44.51v-252.42zm-309.99-58.04c-4.142 0-7.5 3.358-7.5 7.5s3.358 7.5 7.5 7.5 7.5-3.358 7.5-7.5-3.358-7.5-7.5-7.5z"/></g></svg>