<svg id="Layer_1" enable-background="new 0 0 512 512" height="512" viewBox="0 0 512 512" width="512" xmlns="http://www.w3.org/2000/svg"><g><g><g><g><path d="m482 429.5h-452v-345.686c0-16.569 13.431-30 30-30h392c16.569 0 30 13.431 30 30z" fill="#506d90"/><path d="m452 53.814h-30c16.569 0 30 13.432 30 30v345.686h30v-345.686c0-16.569-13.431-30-30-30z" fill="#455f7e"/><path d="m60 377.231v-289.417c0-2.209 1.791-4 4-4h384c2.209 0 4 1.791 4 4v289.417c0 2.209-1.791 4-4 4h-384c-2.209 0-4-1.791-4-4z" fill="#ecf5ff"/><path d="m448 83.814h-30c2.209 0 4 1.791 4 4v289.417c0 2.209-1.791 4-4 4h30c2.209 0 4-1.791 4-4v-289.417c0-2.209-1.791-4-4-4z" fill="#dbeafd"/><g><path d="m112.01 67.5h287.98v313.731h-287.98z" fill="#f7f6f7"/><path d="m369.99 67.5h30v313.731h-30z" fill="#e2d8ec"/><g><circle cx="256" cy="226" fill="#d5707e" r="15.094"/></g><path d="m387.99 7.5h-263.98c-6.627 0-12 5.373-12 12v48h287.98v-48c0-6.627-5.373-12-12-12z" fill="#455f7e"/><path d="m387.99 7.5h-30c6.627 0 12 5.373 12 12v48h30v-48c0-6.627-5.373-12-12-12z" fill="#405972"/></g><g><path d="m12.5 429.5h487c2.761 0 5 2.239 5 5v34.549c0 19.579-15.872 35.451-35.451 35.451h-426.098c-19.579 0-35.451-15.872-35.451-35.451v-34.549c0-2.761 2.239-5 5-5z" fill="#455f7e"/><g fill="#405972"><path d="m499.5 429.5h-30c2.761 0 5 2.239 5 5v34.549c0 19.579-15.872 35.451-35.451 35.451h30c19.579 0 35.451-15.872 35.451-35.451v-34.549c0-2.761-2.239-5-5-5z"/><path d="m288.955 459.5h-65.911c-5.523 0-10-4.477-10-10v-20h85.911v20c0 5.523-4.477 10-10 10z"/></g></g></g></g><circle cx="159" cy="283" fill="#9bc6fd" r="15.094"/><circle cx="256" cy="114" fill="#f0d16f" r="15.094"/><circle cx="353" cy="283" fill="#a4d9a6" r="15.094"/></g><path d="m134.51 37.5c0 4.142 3.358 7.5 7.5 7.5s7.5-3.358 7.5-7.5-3.358-7.5-7.5-7.5-7.5 3.358-7.5 7.5zm226.933 224.549c-3.24-11.189-11.288-23.608-23.019-36.11 2.635-2.811 5.118-5.628 7.391-8.44 16.361-20.246 21.28-38.481 13.851-51.349-9.42-16.315-33.841-18.235-62.423-11.463-4.795-15.872-11.237-28.74-18.926-37.162 2.16-13.602-8.543-26.119-22.317-26.119-13.803 0-24.493 12.498-22.317 26.119-7.684 8.417-14.123 21.274-18.917 37.134-3.762-.879-7.453-1.623-11.034-2.187-25.715-4.047-43.968.813-51.397 13.678-7.43 12.868-2.511 31.104 13.851 51.35 2.272 2.812 4.756 5.629 7.391 8.44-11.731 12.503-19.779 24.921-23.019 36.11-8.287 3.352-14.151 11.477-14.151 20.951 0 12.458 10.136 22.594 22.594 22.594 5.823 0 11.139-2.215 15.149-5.847 13.424 2.608 26.025 1.028 40.673-2.386 1.122 3.707 2.325 7.283 3.63 10.672 9.353 24.289 22.687 37.666 37.547 37.666 18.843 0 32.72-20.198 41.146-48.347 14.854 3.508 27.249 4.958 40.705 2.394 4.01 3.631 9.326 5.847 15.149 5.847 12.458 0 22.594-10.136 22.594-22.594 0-9.474-5.864-17.599-14.151-20.951zm-196.118-88.399c3.99-6.908 17.477-9.287 36.075-6.361 3.12.491 6.336 1.134 9.617 1.891-1.923 8.836-3.392 18.335-4.36 28.31-8.184 5.836-15.678 11.863-22.375 17.946-2.29-2.457-4.449-4.915-6.429-7.365-11.834-14.643-16.518-27.51-12.528-34.421zm40.115 61.131c-3.659-2.906-7.141-5.851-10.428-8.821 3.215-2.905 6.698-5.844 10.419-8.795-.084 2.919-.131 5.863-.131 8.834 0 2.948.056 5.872.14 8.782zm-46.44 55.813c-4.188 0-7.594-3.406-7.594-7.594s3.406-7.594 7.594-7.594 7.594 3.406 7.594 7.594c0 4.142-3.371 7.594-7.594 7.594zm22.428-4.905c1.279-10.606-5.194-20.536-14.812-23.958 3.118-7.238 8.999-15.911 17.687-25.248 6.754 6.151 14.252 12.196 22.361 17.998.968 9.906 2.45 19.405 4.394 28.316-11.33 2.659-21.486 3.698-29.63 2.892zm107.476-99.085c-2.476-1.524-4.991-3.03-7.554-4.51-2.552-1.474-5.113-2.887-7.677-4.27 4.331-1.709 8.607-3.248 12.808-4.606.911 4.234 1.724 8.7 2.423 13.386zm-32.904-80.198c4.188 0 7.594 3.406 7.594 7.594s-3.406 7.594-7.594 7.594-7.594-3.406-7.594-7.594 3.407-7.594 7.594-7.594zm-14.292 25.078c3.897 3.191 8.874 5.109 14.292 5.109s10.395-1.918 14.292-5.109c4.488 6.308 8.844 15.513 12.445 27.26-8.778 2.811-17.761 6.3-26.673 10.32-9.084-4.127-18.073-7.601-26.783-10.379 3.598-11.718 7.947-20.903 12.427-27.201zm-16.189 41.735c4.199 1.358 8.474 2.896 12.803 4.604-2.582 1.387-5.142 2.811-7.671 4.271-2.564 1.48-5.079 2.986-7.555 4.51.699-4.686 1.512-9.153 2.423-13.385zm-2.407 92.172c2.479 1.529 4.985 3.04 7.538 4.514 2.535 1.464 5.072 2.875 7.606 4.243-4.322 1.7-8.579 3.228-12.743 4.58-.918-4.299-1.719-8.753-2.401-13.337zm56.437 37.253c-6.765 17.568-15.568 28.056-23.549 28.056s-16.784-10.488-23.549-28.057c-1.137-2.954-2.191-6.069-3.178-9.297 8.629-2.755 17.6-6.226 26.727-10.374 9.127 4.148 18.098 7.619 26.727 10.374-.987 3.229-2.041 6.343-3.178 9.298zm6.937-23.914c-4.164-1.352-8.421-2.88-12.744-4.581 2.535-1.369 5.072-2.78 7.607-4.244 2.553-1.474 5.059-2.985 7.538-4.514-.681 4.585-1.482 9.039-2.401 13.339zm4.496-32.536c-5.47 3.701-11.192 7.292-17.132 10.721-5.923 3.42-11.901 6.576-17.85 9.453-5.949-2.876-11.926-6.032-17.849-9.453-5.94-3.43-11.662-7.02-17.132-10.721-.47-6.586-.719-13.335-.719-20.194 0-7.042.252-13.781.708-20.217 5.337-3.6 11.044-7.179 17.142-10.698 5.94-3.429 11.91-6.589 17.849-9.475 5.94 2.887 11.91 6.046 17.851 9.476 6.097 3.519 11.804 7.098 17.141 10.698.456 6.436.708 13.174.708 20.217.001 6.857-.247 13.607-.717 20.193zm55.693-72.543c3.99 6.909-.693 19.776-12.527 34.419-1.98 2.45-4.139 4.909-6.429 7.365-6.697-6.083-14.191-12.11-22.375-17.946-.968-9.975-2.438-19.474-4.36-28.31 16.22-4.118 40.069-5.261 45.691 4.472zm-40.105 43.515c3.72 2.951 7.203 5.89 10.419 8.795-3.286 2.969-6.768 5.913-10.425 8.818.09-2.93.137-5.859.137-8.779-.001-2.971-.047-5.915-.131-8.834zm24.002 68.525c-8.158.808-18.336-.237-29.693-2.907 1.955-9.008 3.425-18.533 4.399-28.261 8.131-5.814 15.648-11.874 22.418-18.04 8.688 9.337 14.569 18.01 17.687 25.248-9.599 3.458-16.114 13.323-14.811 23.96zm22.428 4.903c-4.244 0-7.594-3.444-7.594-7.594 0-4.188 3.406-7.594 7.594-7.594s7.594 3.406 7.594 7.594-3.406 7.594-7.594 7.594zm-150.99-245.594c4.142 0 7.5-3.358 7.5-7.5s-3.358-7.5-7.5-7.5-7.5 3.358-7.5 7.5 3.358 7.5 7.5 7.5zm-30-15c-4.142 0-7.5 3.358-7.5 7.5s3.358 7.5 7.5 7.5 7.5-3.358 7.5-7.5-3.358-7.5-7.5-7.5zm327.49 392h-10v-38.45c0-4.143-3.357-7.5-7.5-7.5s-7.5 3.357-7.5 7.5v38.45h-437v-338.19c0-12.406 10.094-22.5 22.5-22.5h44.51v15h-40.51c-6.341 0-11.5 5.159-11.5 11.5v289.42c0 6.341 5.159 11.5 11.5 11.5h384c6.341 0 11.5-5.159 11.5-11.5v-289.42c0-6.341-5.159-11.5-11.5-11.5h-40.51v-15h44.51c12.406 0 22.5 10.094 22.5 22.5v264.74c0 4.143 3.357 7.5 7.5 7.5s7.5-3.357 7.5-7.5v-264.74c0-20.678-16.822-37.5-37.5-37.5h-44.51v-26.81c0-10.752-8.748-19.5-19.5-19.5h-175.194c-4.143 0-7.5 3.357-7.5 7.5s3.357 7.5 7.5 7.5h175.194c2.481 0 4.5 2.019 4.5 4.5v40.5h-272.98v-40.5c0-2.481 2.019-4.5 4.5-4.5h53.786c4.143 0 7.5-3.357 7.5-7.5s-3.357-7.5-7.5-7.5h-53.786c-10.752 0-19.5 8.748-19.5 19.5v26.81h-44.51c-20.678 0-37.5 16.822-37.5 37.5v338.19h-10c-6.893 0-12.5 5.607-12.5 12.5v34.549c0 23.683 19.268 42.951 42.951 42.951h426.098c23.683 0 42.951-19.268 42.951-42.951v-34.549c0-6.893-5.607-12.5-12.5-12.5zm-394.99-48.27h-37.01v-282.42h37.01zm302.98-282.42h37.01v282.42h-37.01zm-287.98-16.31h272.98v298.73h-272.98zm101.035 362h70.91v12.5c0 1.379-1.121 2.5-2.5 2.5h-65.91c-1.379 0-2.5-1.121-2.5-2.5zm276.455 32.049c0 15.412-12.539 27.951-27.951 27.951h-426.098c-15.412 0-27.951-12.539-27.951-27.951v-32.049h190.545v12.5c0 9.649 7.851 17.5 17.5 17.5h65.91c9.649 0 17.5-7.851 17.5-17.5v-12.5h190.545zm-241-265.643c-12.458 0-22.594 10.136-22.594 22.594s10.136 22.594 22.594 22.594 22.594-10.136 22.594-22.594-10.136-22.594-22.594-22.594zm0 30.188c-4.188 0-7.594-3.406-7.594-7.594s3.406-7.594 7.594-7.594 7.594 3.406 7.594 7.594-3.406 7.594-7.594 7.594z"/></g></svg>