<svg id="Layer_1" enable-background="new 0 0 512 512" height="512" viewBox="0 0 512 512" width="512" xmlns="http://www.w3.org/2000/svg"><g><g><g><g><path d="m504.5 67.5v407c0 16.569-13.431 30-30 30h-437c-16.569 0-30-13.431-30-30v-407z" fill="#f7f6f7"/><path d="m210.598 241.257h90.804v51.487h-90.804z" fill="#506d90"/><path d="m345.598 67.5h90.804l-135 173.757h-90.804z" fill="#dd8793"/><circle cx="256" cy="365" fill="#f7e07f" r="94.5"/><path d="m256 270.5c-5.105 0-10.114.41-15 1.19 45.062 7.188 79.5 46.225 79.5 93.31s-34.438 86.123-79.5 93.311c4.886.779 9.895 1.189 15 1.189 52.191 0 94.5-42.309 94.5-94.5s-42.309-94.5-94.5-94.5z" fill="#f0d16f"/><circle cx="256" cy="365" fill="#fff" r="54.5"/><path d="m256 310.5c-5.203 0-10.231.748-15 2.116 22.778 6.533 39.5 27.535 39.5 52.384s-16.722 45.852-39.5 52.384c4.769 1.368 9.797 2.116 15 2.116 30.052 0 54.5-24.448 54.5-54.5s-24.448-54.5-54.5-54.5z" fill="#efeaf4"/><path d="m271 163.514-45.402 58.436 15 19.307h60.804l15-19.307z" fill="#d5707e"/><path d="m166.402 67.5h-90.804l135 173.757h90.804z" fill="#dd8793"/><path d="m474.5 67.5v407c0 16.569-13.431 30-30 30h30c16.569 0 30-13.431 30-30v-407z" fill="#e2d8ec"/><path d="m474.5 7.5h-437c-16.569 0-30 13.431-30 30v30h497v-30c0-16.569-13.431-30-30-30z" fill="#506d90"/><path d="m474.5 7.5h-30c16.569 0 30 13.431 30 30v30h30v-30c0-16.569-13.431-30-30-30z" fill="#455f7e"/></g></g></g><path d="m256 303c-34.187 0-62 27.813-62 62s27.813 62 62 62 62-27.813 62-62-27.813-62-62-62zm0 109c-25.916 0-47-21.084-47-47s21.084-47 47-47 47 21.084 47 47-21.084 47-47 47zm218.5-412h-437c-20.678 0-37.5 16.822-37.5 37.5v437c0 20.678 16.822 37.5 37.5 37.5h437c20.678 0 37.5-16.822 37.5-37.5v-437c0-20.678-16.822-37.5-37.5-37.5zm22.5 474.5c0 12.406-10.094 22.5-22.5 22.5h-437c-12.406 0-22.5-10.094-22.5-22.5v-399.5h56.927l59.158 76.142c2.542 3.271 7.254 3.861 10.524 1.321 3.271-2.542 3.862-7.254 1.321-10.524l-52.007-66.939h71.809l123.348 158.76h-71.809l-49.58-63.813c-2.542-3.272-7.254-3.86-10.524-1.321-3.271 2.542-3.862 7.253-1.321 10.524l50.254 64.682v33.988c-29.416 17.914-49.1 50.291-49.1 87.18 0 56.243 45.757 102 102 102 16.172 0 32.274-3.883 46.567-11.228 3.684-1.894 5.136-6.415 3.242-10.1-1.895-3.685-6.414-5.135-10.1-3.242-12.354 6.35-25.714 9.57-39.709 9.57-47.972 0-87-39.028-87-87s39.028-87 87-87 87 39.028 87 87c0 21.092-7.643 41.436-21.519 57.284-2.729 3.116-2.414 7.854.702 10.583s7.855 2.414 10.583-.702c16.273-18.584 25.234-42.437 25.234-67.165 0-36.889-19.684-69.266-49.1-87.181v-33.988l131.171-168.831h56.929zm-240.996-303.9-74.276-95.6h148.548zm93.267-95.6h71.806l-119.675 154.032-35.9-46.207zm-55.371 173.76v21.546c-11.723-4.709-24.513-7.306-37.9-7.306s-26.177 2.597-37.9 7.306v-21.546zm203.1-188.76h-482v-22.5c0-12.406 10.094-22.5 22.5-22.5h437c12.406 0 22.5 10.094 22.5 22.5zm-424.642-30c-4.142 0-7.5 3.358-7.5 7.5s3.358 7.5 7.5 7.5 7.5-3.358 7.5-7.5-3.358-7.5-7.5-7.5zm30 0c-4.142 0-7.5 3.358-7.5 7.5s3.358 7.5 7.5 7.5 7.5-3.358 7.5-7.5-3.358-7.5-7.5-7.5zm-60 0c-4.142 0-7.5 3.358-7.5 7.5s3.358 7.5 7.5 7.5 7.5-3.358 7.5-7.5-3.358-7.5-7.5-7.5z"/></g></svg>