<svg id="Layer_1" enable-background="new 0 0 512 512" height="512" viewBox="0 0 512 512" width="512" xmlns="http://www.w3.org/2000/svg"><g><g><g><g><path d="m256 446.657-248.5-49.55v-318.349c0-9.541 7.711-17.275 17.223-17.275h182.069c27.177 0 49.208 22.098 49.208 49.356z" fill="#ecf5ff"/><path d="m256 450.518h-231.277c-9.512 0-17.223-7.734-17.223-17.275v-57.725h202.773c25.254 0 45.727 20.473 45.727 45.727z" fill="#dbeafd"/></g><g><path d="m256 446.657 248.5-49.549v-318.35c0-9.541-7.711-17.275-17.223-17.275h-182.069c-27.177.001-49.208 22.098-49.208 49.357z" fill="#dbeafd"/><path d="m256 450.518h231.277c9.512 0 17.223-7.734 17.223-17.275v-57.725h-202.773c-25.254 0-45.727 20.473-45.727 45.727z" fill="#cae0ff"/></g></g><ellipse cx="256" cy="246.57" fill="#dd8793" rx="87.771" ry="88.37"/><path d="m256 158.2c-5.115 0-10.125.445-15 1.291 41.327 7.166 72.771 43.423 72.771 87.08s-31.444 79.912-72.771 87.079c4.875.845 9.885 1.291 15 1.291 48.474 0 87.771-39.564 87.771-88.37s-39.297-88.371-87.771-88.371z" fill="#d5707e"/><path d="m250.72 208.091 34.519 34.755c2.047 2.061 2.047 5.387 0 7.448l-34.519 34.755c-3.324 3.346-9.034.993-9.034-3.724v-69.51c.001-4.716 5.711-7.07 9.034-3.724z" fill="#fff"/></g><path d="m188.5 150.519c0-4.143-3.358-7.5-7.5-7.5h-143.5c-4.142 0-7.5 3.357-7.5 7.5s3.358 7.5 7.5 7.5h143.5c4.142 0 7.5-3.358 7.5-7.5zm-158.5 180c0 4.143 3.358 7.5 7.5 7.5h128.5c4.142 0 7.5-3.357 7.5-7.5s-3.358-7.5-7.5-7.5h-128.5c-4.142 0-7.5 3.357-7.5 7.5zm7.5-37.5h98.5c4.142 0 7.5-3.357 7.5-7.5s-3.358-7.5-7.5-7.5h-98.5c-4.142 0-7.5 3.357-7.5 7.5s3.358 7.5 7.5 7.5zm0-45h98.5c4.142 0 7.5-3.357 7.5-7.5s-3.358-7.5-7.5-7.5h-98.5c-4.142 0-7.5 3.357-7.5 7.5s3.358 7.5 7.5 7.5zm0-134.036h188.5c4.142 0 7.5-3.357 7.5-7.5s-3.358-7.5-7.5-7.5h-188.5c-4.142 0-7.5 3.357-7.5 7.5s3.358 7.5 7.5 7.5zm0 89.036h113.5c4.142 0 7.5-3.357 7.5-7.5s-3.358-7.5-7.5-7.5h-113.5c-4.142 0-7.5 3.357-7.5 7.5s3.358 7.5 7.5 7.5zm437-60h-143.5c-4.142 0-7.5 3.357-7.5 7.5s3.358 7.5 7.5 7.5h143.5c4.142 0 7.5-3.357 7.5-7.5s-3.358-7.5-7.5-7.5zm0 45h-113.5c-4.142 0-7.5 3.357-7.5 7.5s3.358 7.5 7.5 7.5h113.5c4.142 0 7.5-3.357 7.5-7.5s-3.358-7.5-7.5-7.5zm0 45h-98.5c-4.142 0-7.5 3.357-7.5 7.5s3.358 7.5 7.5 7.5h98.5c4.142 0 7.5-3.357 7.5-7.5s-3.358-7.5-7.5-7.5zm0-134.036h-188.5c-4.142 0-7.5 3.357-7.5 7.5s3.358 7.5 7.5 7.5h188.5c4.142 0 7.5-3.357 7.5-7.5s-3.358-7.5-7.5-7.5zm-232.401 101.013c-4.806 1.98-7.912 6.62-7.912 11.819v69.51c0 5.199 3.106 9.839 7.912 11.819 4.755 1.96 10.26.899 13.943-2.811l34.519-34.755c4.935-4.967 4.935-13.051 0-18.018l-34.519-34.755c-3.664-3.687-9.136-4.791-13.943-2.809zm7.088 17.194 29.18 29.38-29.18 29.38zm225.313 105.829h-128.5c-4.142 0-7.5 3.357-7.5 7.5s3.358 7.5 7.5 7.5h128.5c4.142 0 7.5-3.357 7.5-7.5s-3.358-7.5-7.5-7.5zm30-10.578c4.142 0 7.5-3.357 7.5-7.5v-226.18c0-13.663-11.089-24.779-24.72-24.779h-182.07c-21.037 0-39.421 11.553-49.21 28.655-9.789-17.101-28.172-28.653-49.208-28.653h-182.069c-13.633-.001-24.723 11.114-24.723 24.775v354.484c0 13.661 11.09 24.775 24.723 24.775h462.555c13.632 0 24.723-11.114 24.723-24.775v-93.302c0-4.143-3.358-7.5-7.5-7.5s-7.5 3.357-7.5 7.5v28.077h-195.274c-14.991 0-28.544 6.238-38.227 16.244v-42.119c49.04-3.861 87.771-45.25 87.771-95.574s-38.731-91.712-87.771-95.574v-40.156c0-23.081 18.711-41.859 41.71-41.859h182.07c5.36 0 9.72 4.387 9.72 9.779v226.181c0 4.144 3.358 7.501 7.5 7.501zm-256 130.578h-223.777c-5.361 0-9.723-4.385-9.723-9.775v-50.225h195.273c21.079 0 38.227 17.148 38.227 38.227zm53.227-60h195.273v50.225c0 5.391-4.361 9.775-9.723 9.775h-223.777v-21.773c0-21.079 17.148-38.227 38.227-38.227zm34.544-136.449c0 44.592-36.009 80.87-80.271 80.87s-80.271-36.278-80.271-80.87c0-10.256 1.878-20.246 5.582-29.693 1.511-3.856-.389-8.208-4.246-9.72-3.859-1.514-8.208.389-9.72 4.245-4.39 11.199-6.616 23.031-6.616 35.168 0 50.323 38.731 91.712 87.771 95.574v42.119c-9.683-10.006-23.236-16.244-38.227-16.244h-195.273v-289.26c0-5.391 4.362-9.775 9.723-9.775h182.069c22.998 0 41.708 18.776 41.708 41.856v40.152c-23.016 1.786-44.323 11.772-60.643 28.578-2.886 2.972-2.816 7.72.155 10.605 2.972 2.885 7.72 2.816 10.605-.156 15.226-15.68 35.6-24.315 57.369-24.319h.013s.009 0 .013 0c44.256.008 80.259 36.283 80.259 80.87zm138.229 31.449h-98.5c-4.142 0-7.5 3.357-7.5 7.5s3.358 7.5 7.5 7.5h98.5c4.142 0 7.5-3.357 7.5-7.5s-3.358-7.5-7.5-7.5z"/></g></svg>