<svg id="Layer_1" enable-background="new 0 0 512 512" height="512" viewBox="0 0 512 512" width="512" xmlns="http://www.w3.org/2000/svg"><g><g><g><g><path d="m482 429.5h-452v-345.686c0-16.569 13.431-30 30-30h392c16.569 0 30 13.431 30 30z" fill="#506d90"/><path d="m452 53.814h-30c16.569 0 30 13.432 30 30v345.686h30v-345.686c0-16.569-13.431-30-30-30z" fill="#455f7e"/><path d="m60 377.231v-289.417c0-2.209 1.791-4 4-4h384c2.209 0 4 1.791 4 4v289.417c0 2.209-1.791 4-4 4h-384c-2.209 0-4-1.791-4-4z" fill="#ecf5ff"/><path d="m422 377.231c0 2.209-1.791 4-4 4h30c2.209 0 4-1.791 4-4v-289.417c0-2.209-1.791-4-4-4h-30c2.209 0 4 1.791 4 4z" fill="#dbeafd"/><g><path d="m112.01 67.5h287.98v313.731h-287.98z" fill="#f7f6f7"/><path d="m369.99 67.5h30v313.731h-30z" fill="#e2d8ec"/><g><path d="m311.598 285.995c0 2.993-1.884 5.66-4.704 6.664-15.046 5.362-30.475 10.964-59.806 10.807-28.175-.151-42.754-5.563-57.404-10.806-2.815-1.008-4.697-3.672-4.697-6.662v-74.22h126.61v74.217z" fill="#506d90"/><path d="m184.987 247.439 61.962 27.625c.855.381 1.831.381 2.686 0l61.962-27.625v-35.661h-126.61z" fill="#455f7e"/><path d="m145.765 193.928 101.184-45.112c.855-.381 1.831-.381 2.686 0l101.184 45.112c2.607 1.162 2.607 4.862 0 6.024l-101.184 45.112c-.855.381-1.831.381-2.686 0l-101.184-45.112c-2.606-1.162-2.606-4.861 0-6.024z" fill="#506d90"/><circle cx="352.774" cy="256.889" fill="#455f7e" r="15.415"/></g><path d="m387.99 7.5h-263.98c-6.627 0-12 5.373-12 12v48h287.98v-48c0-6.627-5.373-12-12-12z" fill="#455f7e"/><path d="m387.99 7.5h-30c6.627 0 12 5.373 12 12v48h30v-48c0-6.627-5.373-12-12-12z" fill="#405972"/></g><g><path d="m12.5 429.5h487c2.761 0 5 2.239 5 5v34.549c0 19.579-15.872 35.451-35.451 35.451h-426.098c-19.579 0-35.451-15.872-35.451-35.451v-34.549c0-2.761 2.239-5 5-5z" fill="#455f7e"/><g fill="#405972"><path d="m499.5 429.5h-30c2.761 0 5 2.239 5 5v34.549c0 19.579-15.872 35.451-35.451 35.451h30c19.579 0 35.451-15.872 35.451-35.451v-34.549c0-2.761-2.239-5-5-5z"/><path d="m288.955 459.5h-65.911c-5.523 0-10-4.477-10-10v-20h85.911v20c0 5.523-4.477 10-10 10z"/></g></g></g></g></g><path d="m142.01 30c-4.142 0-7.5 3.358-7.5 7.5s3.358 7.5 7.5 7.5 7.5-3.358 7.5-7.5-3.358-7.5-7.5-7.5zm30 0c-4.142 0-7.5 3.358-7.5 7.5s3.358 7.5 7.5 7.5 7.5-3.358 7.5-7.5-3.358-7.5-7.5-7.5zm30 0c-4.142 0-7.5 3.358-7.5 7.5s3.358 7.5 7.5 7.5 7.5-3.358 7.5-7.5-3.358-7.5-7.5-7.5zm297.49 392h-10v-338.19c0-20.678-16.822-37.5-37.5-37.5h-44.51v-26.81c0-10.752-8.748-19.5-19.5-19.5h-263.98c-10.752 0-19.5 8.748-19.5 19.5v26.81h-44.51c-20.678 0-37.5 16.822-37.5 37.5v338.19h-10c-6.893 0-12.5 5.607-12.5 12.5v34.549c0 23.683 19.268 42.951 42.951 42.951h426.098c23.683 0 42.951-19.268 42.951-42.951v-34.549c0-6.893-5.607-12.5-12.5-12.5zm-92.01-330.69h37.01v282.42h-37.01zm-287.98-71.81c0-2.481 2.019-4.5 4.5-4.5h263.98c2.481 0 4.5 2.019 4.5 4.5v40.5h-272.98zm-82.01 64.31c0-12.406 10.093-22.5 22.5-22.5h44.51v15h-40.51c-6.341 0-11.5 5.159-11.5 11.5v289.42c0 6.341 5.159 11.5 11.5 11.5h84.306c4.142 0 7.5-3.357 7.5-7.5s-3.358-7.5-7.5-7.5h-28.796v-298.73h272.98v298.73h-209.184c-4.142 0-7.5 3.357-7.5 7.5s3.358 7.5 7.5 7.5h264.694c6.341 0 11.5-5.159 11.5-11.5v-289.42c0-6.341-5.159-11.5-11.5-11.5h-40.51v-15h44.51c12.407 0 22.5 10.094 22.5 22.5v338.19h-437zm67.01 7.5v282.42h-37.01v-282.42zm186.945 345.69v12.5c0 1.379-1.122 2.5-2.5 2.5h-65.91c-1.378 0-2.5-1.121-2.5-2.5v-12.5zm205.545 32.049c0 15.412-12.539 27.951-27.951 27.951h-426.098c-15.412 0-27.951-12.539-27.951-27.951v-32.049h190.545v12.5c0 9.649 7.851 17.5 17.5 17.5h65.91c9.649 0 17.5-7.851 17.5-17.5v-12.5h190.545zm-319.51-183.049c-.032 6.278 4.495 11.801 10.532 14.032 15.493 5.727 31.014 10.94 60.238 10.94 29.742 0 45.594-5.68 61.159-11.252 5.791-2.073 9.682-7.591 9.682-13.73v-63.685l26.17-11.667v24.604c-8.96 3.115-15.411 11.639-15.411 21.646 0 12.636 10.28 22.915 22.915 22.915s22.915-10.279 22.915-22.915c0-10.011-6.455-18.537-15.419-21.649.027-.026-.011-38.26.004-38.299 0-4.258-2.513-8.128-6.401-9.861l-41.756-18.617c-3.786-1.691-8.218.013-9.904 3.796-1.687 3.783.013 8.217 3.796 9.903l33.147 14.779-90.864 40.511-90.864-40.511 90.864-40.511 26.193 11.677c3.784 1.69 8.218-.013 9.904-3.796 1.687-3.783-.013-8.217-3.796-9.903l-27.905-12.441c-2.793-1.244-5.997-1.245-8.793.001l-101.184 45.112c-3.888 1.733-6.401 5.604-6.401 9.861s2.513 8.128 6.401 9.861l34.779 15.506v63.693zm175.284-37.026c4.364 0 7.915 3.551 7.915 7.915s-3.551 7.915-7.915 7.915-7.915-3.551-7.915-7.915 3.551-7.915 7.915-7.915zm-160.284-19.978 51.406 22.919c2.794 1.244 5.998 1.245 8.793-.001l51.411-22.921v56.699l-.154.055c-14.956 5.33-29.062 10.367-56.816 10.223-26.34-.14-39.801-4.958-54.052-10.06l-.587-.21v-56.704z"/></g></svg>