<svg id="Layer_1" enable-background="new 0 0 512 512" height="512" viewBox="0 0 512 512" width="512" xmlns="http://www.w3.org/2000/svg"><g><g><g><g><path d="m284.364 237.394h-56.728l8.588-48.857h39.552z" fill="#455f7e"/><path d="m275.776 188.537h-30l8.588 48.857h30z" fill="#405972"/><path d="m293.153 224.785 6.047 21.804c.809 2.918-1.385 5.804-4.413 5.804h-77.573c-3.028 0-5.223-2.886-4.413-5.804l6.047-21.804c.55-1.983 2.355-3.356 4.413-3.356h65.479c2.058 0 3.863 1.373 4.413 3.356z" fill="#506d90"/><path d="m299.2 246.59-6.047-21.805c-.55-1.983-2.355-3.356-4.413-3.356h-30c2.058 0 3.864 1.373 4.413 3.356l6.047 21.805c.809 2.918-1.385 5.804-4.414 5.804h30c3.029 0 5.223-2.886 4.414-5.804z" fill="#455f7e"/><g><path d="m366.093 188.537h-220.186c-9.486 0-17.175-7.69-17.175-17.175v-146.687c0-9.486 7.69-17.175 17.175-17.175h220.187c9.486 0 17.175 7.69 17.175 17.175v146.686c0 9.486-7.69 17.176-17.176 17.176z" fill="#ecf5ff"/><path d="m366.093 7.5h-36c9.486 0 17.175 7.689 17.175 17.175v146.687c0 9.485-7.689 17.175-17.175 17.175h36c9.486 0 17.175-7.69 17.175-17.175v-146.687c.001-9.486-7.689-17.175-17.175-17.175z" fill="#dbeafd"/></g></g></g><g><path d="m157.5 502v-206.731h-120v206.731c0 5.523 4.477 10 10 10h100c5.523 0 10-4.477 10-10z" fill="#d8ab89"/><path d="m127.5 295.269v206.731c0 5.523-4.477 10-10 10h30c5.523 0 10-4.477 10-10v-206.731z" fill="#cf9772"/><g><path d="m37.5 370.269h120v75h-120z" fill="#dfb9a0"/><path d="m127.5 370.269h30v75h-30z" fill="#d8ab89"/></g></g><g><path d="m474.5 502v-206.731h-120v206.731c0 5.523 4.477 10 10 10h100c5.523 0 10-4.477 10-10z" fill="#d8ab89"/><path d="m444.5 295.269v206.731c0 5.523-4.477 10-10 10h30c5.523 0 10-4.477 10-10v-206.731z" fill="#cf9772"/><g><path d="m354.5 370.269h120v75h-120z" fill="#dfb9a0"/><path d="m444.5 370.269h30v75h-30z" fill="#d8ab89"/></g></g><g><g><path d="m492.486 228.016h.01z" fill="#f0d16f"/></g><path d="m459.5 252.394h-32.188c-8.284 0-15-6.716-15-15v-65.106c0-1.657 1.343-3 3-3h56.188c1.657 0 3 1.343 3 3v65.106c0 8.284-6.716 15-15 15z" fill="#f7e07f"/></g><path d="m494.5 295.269h-477c-5.523 0-10-4.477-10-10v-22.875c0-5.523 4.477-10 10-10h477c5.523 0 10 4.477 10 10v22.875c0 5.523-4.477 10-10 10z" fill="#cf9772"/><path d="m494.5 252.394h-30c5.523 0 10 4.478 10 10v22.875c0 5.523-4.477 10-10 10h30c5.523 0 10-4.477 10-10v-22.875c0-5.523-4.477-10-10-10z" fill="#c88556"/></g><path d="m497.165 234.934c9.012-3.787 14.835-12.549 14.835-22.324v-23.32c0-6.893-5.607-12.5-12.5-12.5h-17.5v-4.503c0-5.79-4.71-10.5-10.5-10.5h-56.188c-5.79 0-10.5 4.71-10.5 10.5v65.106c0 2.629.458 5.152 1.29 7.5h-99.607c-.026-.103-.038-.206-.067-.308l-6.047-21.805c-.001-.001-.001-.002-.001-.003-1.447-5.21-6.233-8.849-11.641-8.849h-.883l-3.144-17.893h81.381c13.605 0 24.675-11.069 24.675-24.676v-146.684c.001-13.606-11.069-24.675-24.674-24.675h-220.187c-13.606 0-24.675 11.069-24.675 24.675v50.38c0 4.143 3.358 7.5 7.5 7.5s7.5-3.357 7.5-7.5v-50.38c0-5.335 4.34-9.675 9.675-9.675h220.187c5.335 0 9.675 4.34 9.675 9.675v146.687c0 5.335-4.34 9.676-9.675 9.676h-220.187c-5.335 0-9.675-4.341-9.675-9.676v-61.307c0-4.143-3.358-7.5-7.5-7.5s-7.5 3.357-7.5 7.5v61.307c0 13.606 11.069 24.676 24.675 24.676h81.381l-3.145 17.893h-.883c-5.409 0-10.196 3.64-11.641 8.851l-6.048 21.806c-.028.102-.041.205-.067.308h-188.004c-9.649 0-17.5 7.851-17.5 17.5v22.876c0 9.649 7.851 17.5 17.5 17.5h12.5v201.728c0 4.143 3.358 7.5 7.5 7.5s7.5-3.357 7.5-7.5v-51.73h105v51.73c0 4.143 3.358 7.5 7.5 7.5s7.5-3.357 7.5-7.5v-201.73h182v87.09c0 4.143 3.357 7.5 7.5 7.5s7.5-3.357 7.5-7.5v-12.09h105v60h-105v-12.91c0-4.143-3.357-7.5-7.5-7.5s-7.5 3.357-7.5 7.5v79.64c0 4.143 3.357 7.5 7.5 7.5s7.5-3.357 7.5-7.5v-51.73h105v51.73c0 4.143 3.357 7.5 7.5 7.5s7.5-3.357 7.5-7.5v-201.73h12.5c9.649 0 17.5-7.851 17.5-17.5v-22.876c0-9.649-7.851-17.5-17.5-17.5h-13.807c.393-1.108.715-2.251.931-3.431zm-15.165-43.144h15v20.82c0 3.72-2.216 7.054-5.645 8.494l-9.355 3.93zm-62.188-15.003h47.188c.021 1.12 0 59.584 0 60.606 0 4.136-3.364 7.5-7.5 7.5h-32.188c-4.136 0-7.5-3.364-7.5-7.5zm-177.295 19.253h26.966l3.144 17.89h-33.254zm-17.036 32.89h61.039l4.427 15.964h-69.893zm-75.481 208.84h-105v-60h105zm0-75h-105v-60h105zm317 0h-105v-60h105zm27.5-102.876c1.379 0 2.5 1.121 2.5 2.5v22.876c0 1.379-1.121 2.5-2.5 2.5h-477c-1.378 0-2.5-1.121-2.5-2.5v-22.876c0-1.379 1.122-2.5 2.5-2.5zm-89.253 80.376h18.506c4.143 0 7.5-3.357 7.5-7.5s-3.357-7.5-7.5-7.5h-18.506c-4.143 0-7.5 3.357-7.5 7.5s3.357 7.5 7.5 7.5zm18.506 75c4.143 0 7.5-3.357 7.5-7.5s-3.357-7.5-7.5-7.5h-18.506c-4.143 0-7.5 3.357-7.5 7.5s3.357 7.5 7.5 7.5zm-335.506-75h18.506c4.142 0 7.5-3.357 7.5-7.5s-3.358-7.5-7.5-7.5h-18.506c-4.142 0-7.5 3.357-7.5 7.5s3.358 7.5 7.5 7.5zm0 75h18.506c4.142 0 7.5-3.357 7.5-7.5s-3.358-7.5-7.5-7.5h-18.506c-4.142 0-7.5 3.357-7.5 7.5s3.358 7.5 7.5 7.5z"/></g></svg>