<svg id="Layer_1" enable-background="new 0 0 512 512" height="512" viewBox="0 0 512 512" width="512" xmlns="http://www.w3.org/2000/svg"><g><g><g><g><g><g><path d="m504.5 67.5v407c0 16.569-13.431 30-30 30h-437c-16.569 0-30-13.431-30-30v-407z" fill="#f7f6f7"/><path d="m474.5 67.5v407c0 16.569-13.431 30-30 30h30c16.569 0 30-13.431 30-30v-407z" fill="#e2d8ec"/><path d="m474.5 7.5h-437c-16.569 0-30 13.431-30 30v30h497v-30c0-16.569-13.431-30-30-30z" fill="#506d90"/><path d="m474.5 7.5h-30c16.569 0 30 13.431 30 30v30h30v-30c0-16.569-13.431-30-30-30z" fill="#455f7e"/></g></g></g></g><g><g><path d="m210.72 268.35h36.835v77.422h-36.835z" fill="#506d90" transform="matrix(-.866 -.5 .5 -.866 274.046 687.553)"/><path d="m139.343 462.59c15.28 8.822 34.818 3.587 43.64-11.693l56.56-97.965c3.736-6.471 1.519-14.745-4.952-18.481l-31.9-18.418c-6.471-3.736-14.745-1.519-18.481 4.952l-56.56 97.965c-8.822 15.28-3.587 34.818 11.693 43.64z" fill="#cf9772"/><path d="m234.591 334.451-31.9-18.417c-6.471-3.736-14.745-1.519-18.481 4.952l-.735 1.274 21.116 12.192c6.471 3.736 8.688 12.01 4.952 18.481l-56.56 97.965c-3.108 5.382-7.548 9.512-12.66 12.226 15.126 8.054 34.025 2.73 42.66-12.226l56.56-97.965c3.736-6.472 1.519-14.746-4.952-18.482z" fill="#c88556"/></g><g><ellipse cx="287.11" cy="206.651" fill="#cae0ff" rx="101.526" ry="101.527" transform="matrix(.397 -.918 .918 .397 -16.602 388.022)"/><path d="m287.11 105.125c-5.096 0-10.104.382-15 1.11 48.894 7.272 86.526 49.53 86.526 100.417 0 50.886-37.632 93.144-86.526 100.416 4.896.729 9.904 1.11 15 1.11 55.981 0 101.526-45.545 101.526-101.526 0-55.983-45.545-101.527-101.526-101.527z" fill="#bcd7fd"/><ellipse cx="287.11" cy="206.651" fill="#ecf5ff" rx="62.772" ry="62.771" transform="matrix(.971 -.241 .241 .971 -41.282 75.139)"/><path d="m287.11 143.879c-5.17 0-10.191.641-15 1.825 27.391 6.744 47.771 31.504 47.771 60.947 0 29.442-20.38 54.203-47.771 60.946 4.81 1.184 9.83 1.825 15 1.825 34.612 0 62.771-28.159 62.771-62.771s-28.159-62.772-62.771-62.772z" fill="#dbeafd"/></g></g></g><path d="m102.358 30c-4.142 0-7.5 3.358-7.5 7.5s3.358 7.5 7.5 7.5 7.5-3.358 7.5-7.5-3.358-7.5-7.5-7.5zm-60 0c-4.142 0-7.5 3.358-7.5 7.5s3.358 7.5 7.5 7.5 7.5-3.358 7.5-7.5-3.358-7.5-7.5-7.5zm30 0c-4.142 0-7.5 3.358-7.5 7.5s3.358 7.5 7.5 7.5 7.5-3.358 7.5-7.5-3.358-7.5-7.5-7.5zm214.751 106.379c-38.748 0-70.271 31.524-70.271 70.272 0 38.747 31.523 70.271 70.271 70.271s70.271-31.523 70.271-70.271c.001-38.748-31.523-70.272-70.271-70.272zm0 125.543c-30.477 0-55.271-24.794-55.271-55.271 0-30.478 24.795-55.272 55.271-55.272s55.271 24.795 55.271 55.272c.001 30.477-24.794 55.271-55.271 55.271zm-109.394 55.313-56.561 97.965c-10.875 18.838-4.397 43.01 14.438 53.885 18.519 10.692 43.266 4.179 53.885-14.438l56.561-97.965c4.476-7.751 3.42-17.185-1.905-23.758l12.472-21.596c9.684 2.827 19.919 4.349 30.505 4.349 60.117 0 109.026-48.908 109.026-109.025 0-10.227-1.423-20.356-4.228-30.107-1.146-3.98-5.305-6.28-9.281-5.135-3.981 1.146-6.279 5.301-5.135 9.281 2.418 8.403 3.644 17.138 3.644 25.961 0 51.846-42.18 94.025-94.026 94.025-51.592 0-94.026-42.01-94.026-94.025 0-51.847 42.18-94.027 94.026-94.027 30.04 0 58.535 14.592 76.222 39.032 2.429 3.357 7.119 4.106 10.473 1.68 3.356-2.429 4.107-7.117 1.68-10.473-20.5-28.327-53.537-45.239-88.374-45.239-60.117 0-109.026 48.909-109.026 109.027 0 30.904 12.927 58.844 33.655 78.703l-12.491 21.64c-8.498-1.383-17.242 2.74-21.534 10.24zm45.719-22.14c5.887 4.25 12.211 7.933 18.895 10.956l-10.484 18.154-18.912-10.918zm7.389 45.84c.006.003.01.007.016.01.003.001.005.002.008.004 2.874 1.664 3.862 5.355 2.201 8.232l-56.561 97.965c-6.572 11.508-21.939 15.561-33.395 8.948-11.674-6.739-15.688-21.721-8.948-33.395l56.562-97.966c1.624-2.85 5.394-3.862 8.234-2.206zm243.677-340.935h-437c-20.678 0-37.5 16.822-37.5 37.5v348.142c0 4.143 3.357 7.5 7.5 7.5s7.5-3.357 7.5-7.5v-310.642h482v399.5c0 12.406-10.094 22.5-22.5 22.5h-437c-12.406 0-22.5-10.094-22.5-22.5v-53.858c0-4.143-3.357-7.5-7.5-7.5s-7.5 3.357-7.5 7.5v53.858c0 20.678 16.822 37.5 37.5 37.5h437c20.678 0 37.5-16.822 37.5-37.5v-437c0-20.678-16.822-37.5-37.5-37.5zm22.5 60h-482v-22.5c0-12.406 10.094-22.5 22.5-22.5h437c12.406 0 22.5 10.094 22.5 22.5z"/></g></svg>