<svg id="Layer_1" enable-background="new 0 0 512 512" height="512" viewBox="0 0 512 512" width="512" xmlns="http://www.w3.org/2000/svg"><g><g><g><g><path d="m482 429.5h-452v-345.686c0-16.569 13.431-30 30-30h392c16.569 0 30 13.431 30 30z" fill="#506d90"/><path d="m452 53.814h-30c16.569 0 30 13.432 30 30v345.686h30v-345.686c0-16.569-13.431-30-30-30z" fill="#455f7e"/><path d="m60 377.231v-289.417c0-2.209 1.791-4 4-4h384c2.209 0 4 1.791 4 4v289.417c0 2.209-1.791 4-4 4h-384c-2.209 0-4-1.791-4-4z" fill="#ecf5ff"/><path d="m422 377.231c0 2.209-1.791 4-4 4h30c2.209 0 4-1.791 4-4v-289.417c0-2.209-1.791-4-4-4h-30c2.209 0 4 1.791 4 4z" fill="#dbeafd"/><g><path d="m112.01 67.5h287.98v313.731h-287.98z" fill="#f7f6f7"/><path d="m369.99 67.5h30v313.731h-30z" fill="#e2d8ec"/><path d="m387.99 7.5h-263.98c-6.627 0-12 5.373-12 12v48h287.98v-48c0-6.627-5.373-12-12-12z" fill="#455f7e"/><path d="m387.99 7.5h-30c6.627 0 12 5.373 12 12v48h30v-48c0-6.627-5.373-12-12-12z" fill="#405972"/><g fill="#bfe69f"><path d="m256 303.979c-8.284 0-15-6.716-15-15v-69.228c0-8.284 6.716-15 15-15 8.284 0 15 6.716 15 15v69.228c0 8.285-6.716 15-15 15z"/><circle cx="256" cy="159.751" r="15"/></g><g><path d="m328.052 38.536h138.141c12.872 0 23.307 10.435 23.307 23.307v53.13c0 12.872-10.435 23.307-23.307 23.307h-84.134c-1.442 0-2.826.573-3.846 1.593l-22.495 22.495c-1.958 1.958-5.305.571-5.305-2.197v-16.452c0-3.004-2.435-5.438-5.438-5.438h-16.923c-12.872 0-23.307-10.435-23.307-23.307v-53.13c0-12.873 10.435-23.308 23.307-23.308z" fill="#bfe69f"/><g><path d="m466.193 38.536h-30c12.872 0 23.307 10.435 23.307 23.308v53.129c0 12.872-10.435 23.307-23.307 23.307h30c12.872 0 23.307-10.435 23.307-23.307v-53.129c0-12.873-10.435-23.308-23.307-23.308z" fill="#a4d9a6"/></g></g></g><g><path d="m12.5 429.5h487c2.761 0 5 2.239 5 5v34.549c0 19.579-15.872 35.451-35.451 35.451h-426.098c-19.579 0-35.451-15.872-35.451-35.451v-34.549c0-2.761 2.239-5 5-5z" fill="#455f7e"/><g fill="#405972"><path d="m499.5 429.5h-30c2.761 0 5 2.239 5 5v34.549c0 19.579-15.872 35.451-35.451 35.451h30c19.579 0 35.451-15.872 35.451-35.451v-34.549c0-2.761-2.239-5-5-5z"/><path d="m288.955 459.5h-65.911c-5.523 0-10-4.477-10-10v-20h85.911v20c0 5.523-4.477 10-10 10z"/></g></g></g></g></g><path d="m338.678 110.908h116.889c4.143 0 7.5-3.357 7.5-7.5s-3.357-7.5-7.5-7.5h-116.889c-4.143 0-7.5 3.357-7.5 7.5s3.357 7.5 7.5 7.5zm0-30h116.889c4.143 0 7.5-3.357 7.5-7.5s-3.357-7.5-7.5-7.5h-116.889c-4.143 0-7.5 3.357-7.5 7.5s3.357 7.5 7.5 7.5zm-196.668-50.908c-4.142 0-7.5 3.358-7.5 7.5s3.358 7.5 7.5 7.5 7.5-3.358 7.5-7.5-3.358-7.5-7.5-7.5zm357.49 392h-10v-286.916c4.667-5.401 7.5-12.43 7.5-20.112v-53.128c0-16.987-13.82-30.808-30.808-30.808h-58.702v-11.536c0-10.752-8.748-19.5-19.5-19.5h-263.98c-10.752 0-19.5 8.748-19.5 19.5v26.81h-44.51c-20.678 0-37.5 16.822-37.5 37.5v338.19h-10c-6.893 0-12.5 5.607-12.5 12.5v34.549c0 23.683 19.268 42.951 42.951 42.951h426.098c23.683 0 42.951-19.268 42.951-42.951v-34.549c0-6.893-5.607-12.5-12.5-12.5zm-33.308-375.964c8.717 0 15.808 7.091 15.808 15.808v53.129c0 8.717-7.091 15.808-15.808 15.808h-84.134c-3.455 0-6.704 1.346-9.148 3.79l-14.997 14.997v-5.849c0-7.135-5.804-12.938-12.938-12.938h-16.923c-8.716 0-15.807-7.091-15.807-15.808v-53.129c0-8.717 7.091-15.808 15.807-15.808zm-21.692 99.744v227.95h-37.01v-227.95zm-324.99-126.28c0-2.481 2.019-4.5 4.5-4.5h263.98c2.481 0 4.5 2.019 4.5 4.5v11.536h-64.438c-16.368 0-29.789 12.832-30.747 28.964h-177.795zm0 55.5h177.735v39.973c0 16.987 13.819 30.808 30.807 30.808h14.861v14.391c0 4.305 2.57 8.151 6.548 9.8 3.937 1.632 8.498.764 11.562-2.299l21.891-21.892h9.577v227.95h-272.981zm377.49 394.049c0 15.412-12.539 27.951-27.951 27.951h-426.098c-15.412 0-27.951-12.539-27.951-27.951v-32.049h190.545v12.5c0 9.649 7.851 17.5 17.5 17.5h65.91c9.649 0 17.5-7.851 17.5-17.5v-12.5h107.067c4.143 0 7.5-3.357 7.5-7.5s-3.357-7.5-7.5-7.5h-376.022v-338.19c0-12.406 10.094-22.5 22.5-22.5h44.51v15h-40.51c-6.341 0-11.5 5.159-11.5 11.5v49.877c0 4.143 3.357 7.5 7.5 7.5s7.5-3.357 7.5-7.5v-46.377h37.01v282.42h-37.01v-201.043c0-4.143-3.357-7.5-7.5-7.5s-7.5 3.357-7.5 7.5v204.543c0 6.341 5.159 11.5 11.5 11.5h384c6.341 0 11.5-5.159 11.5-11.5v-231.45h6.692c2.879 0 5.663-.405 8.308-1.147v277.367h-25.978c-4.143 0-7.5 3.357-7.5 7.5s3.357 7.5 7.5 7.5h48.478zm-276.455-19.549v-12.5h70.91v12.5c0 1.379-1.121 2.5-2.5 2.5h-65.91c-1.379 0-2.5-1.121-2.5-2.5zm35.455-312.249c-12.406 0-22.5 10.094-22.5 22.5s10.094 22.5 22.5 22.5 22.5-10.094 22.5-22.5-10.094-22.5-22.5-22.5zm0 30c-4.136 0-7.5-3.364-7.5-7.5s3.364-7.5 7.5-7.5 7.5 3.364 7.5 7.5-3.364 7.5-7.5 7.5zm0 30c-12.406 0-22.5 10.094-22.5 22.5v69.229c0 12.406 10.094 22.5 22.5 22.5s22.5-10.094 22.5-22.5v-69.229c0-12.406-10.094-22.5-22.5-22.5zm7.5 91.728c0 4.136-3.364 7.5-7.5 7.5s-7.5-3.364-7.5-7.5v-69.229c0-4.136 3.364-7.5 7.5-7.5s7.5 3.364 7.5 7.5zm-91.49-258.979c-4.142 0-7.5 3.358-7.5 7.5s3.358 7.5 7.5 7.5 7.5-3.358 7.5-7.5-3.358-7.5-7.5-7.5zm30 0c-4.142 0-7.5 3.358-7.5 7.5s3.358 7.5 7.5 7.5 7.5-3.358 7.5-7.5-3.358-7.5-7.5-7.5z"/></g></svg>