<svg id="Layer_1" enable-background="new 0 0 512 512" height="512" viewBox="0 0 512 512" width="512" xmlns="http://www.w3.org/2000/svg"><g><g><g><g><g><path d="m492.632 502v-50.297c0-17.396-10.644-33.02-26.833-39.387l-20.627-8.112c-8.156-3.207-13.518-11.078-13.518-19.842v-16.859h-51.306v16.859c0 8.764-5.362 16.635-13.518 19.842l-20.627 8.112c-16.189 6.367-26.833 21.991-26.833 39.387v50.297c0 5.523 4.477 10 10 10h153.264c5.521 0 9.998-4.477 9.998-10z" fill="#bfe69f"/><g><path d="m465.799 412.316-20.627-8.112c-8.156-3.207-13.518-11.078-13.518-19.842v-16.859h-30v31.859c0 8.764 5.363 16.635 13.518 19.842l20.627 8.112c16.189 6.367 26.833 21.991 26.833 39.387v45.297h20c5.523 0 10-4.477 10-10v-50.297c0-17.396-10.644-33.02-26.833-39.387z" fill="#a4d9a6"/></g><path d="m406 420c14.632 0 27.701-6.688 36.321-17.172-6.531-3.765-25.668-10.771-25.668-18.466v-16.859h-36.306v16.859c0 7.696-4.137 14.701-10.668 18.466 8.62 10.485 21.689 17.172 36.321 17.172z" fill="#f2ccbc"/><path d="m414.988 419.124c10.936-2.12 20.525-8.015 27.333-16.295-6.044-3.515-10.692-10.226-10.668-18.466v-16.859h-30v31.859c0 8.695 5.285 16.507 13.335 19.761z" fill="#ecad9a"/><g><path d="m406.398 375.726c-1.466 0-3.531.281-4.962.149-7.819-.721-14.862.082-21.087-4.011-12.705-8.356-21.093-22.74-21.093-39.084v-57.011c0-13.507 10.949-24.456 24.456-24.456h44.577c13.507 0 24.456 10.949 24.456 24.456v57.011c0 16.344-8.388 30.728-21.093 39.084-7.364 4.842-25.254 3.862-25.254 3.862z" fill="#f2ccbc"/><path d="m428.289 251.312h-30c13.507 0 24.456 10.949 24.456 24.456v57.011c.209 2.477 1.128 16.2-8.951 27.504-12.893 14.46-32.041 11.797-33.443 11.577 3.778 2.438 10.309 5.946 19.084 7.201 0 0 3.363.463 6.566.463 25.816 0 46.745-20.928 46.745-46.745v-57.011c-.001-13.507-10.951-24.456-24.457-24.456z" fill="#ecad9a"/><path d="m452.745 275.768c0-13.507-10.949-24.456-24.456-24.456h-44.577c-13.507 0-24.456 10.949-24.456 24.456v36.732c8.619 1.31 24.349 2.438 42.063-3.896 7.52-2.69 13.692-6.114 18.517-9.346 1.349-.904 3.173-.559 4.101.774 2.011 2.891 5.642 7.021 11.495 9.847 7.691 3.714 14.726 3.009 17.314 2.621v-36.732z" fill="#cf9772"/><path d="m428.289 251.312h-30c13.507 0 24.456 10.949 24.456 24.456v23.275c.462.215.879.54 1.191.988 2.011 2.891 5.642 7.021 11.495 9.847 7.691 3.714 14.726 3.009 17.314 2.621v-36.731c0-13.507-10.95-24.456-24.456-24.456z" fill="#c88556"/></g></g></g></g><g><g><g><path d="m195.764 502v-50.297c0-17.396-10.644-33.02-26.833-39.387l-20.627-8.112c-8.156-3.207-13.518-11.078-13.518-19.842v-16.859h-51.307v16.859c0 8.764-5.362 16.635-13.518 19.842l-20.627 8.112c-16.19 6.367-26.834 21.991-26.834 39.387v50.297c0 5.523 4.477 10 10 10h153.264c5.523 0 10-4.477 10-10z" fill="#bcd7fd"/><g><path d="m168.93 412.316-20.627-8.112c-8.156-3.207-13.518-11.078-13.518-19.842v-16.859h-30v31.859c0 8.764 5.363 16.635 13.518 19.842l20.627 8.112c16.189 6.367 26.833 21.991 26.833 39.387v45.297h20c5.523 0 10-4.477 10-10v-50.297c.001-17.396-10.644-33.02-26.833-39.387z" fill="#9bc6fd"/></g><path d="m109.132 420c14.632 0 27.701-6.688 36.321-17.172-6.531-3.765-25.668-10.771-25.668-18.466v-16.859h-36.306v16.859c0 7.696-4.137 14.701-10.668 18.466 8.62 10.485 21.689 17.172 36.321 17.172z" fill="#cf9772"/><path d="m118.12 419.124c10.936-2.12 20.525-8.015 27.333-16.295-6.044-3.515-10.692-10.226-10.668-18.466v-16.859h-30v31.859c0 8.695 5.284 16.507 13.335 19.761z" fill="#c88556"/><g><path d="m109.53 375.726c-1.466 0-3.747.487-5.178.355-7.819-.721-14.647-.124-20.872-4.218-12.705-8.356-21.093-22.74-21.093-39.084v-57.011c0-13.507 10.949-24.456 24.456-24.456h44.577c13.507 0 24.456 10.949 24.456 24.456v57.011c0 16.344-8.388 30.728-21.093 39.084-7.363 4.843-25.253 3.863-25.253 3.863z" fill="#cf9772"/><path d="m131.42 251.312h-30c13.507 0 24.456 10.949 24.456 24.456v57.011c.209 2.477 1.128 16.2-8.951 27.504-12.893 14.46-32.041 11.797-33.443 11.577 3.778 2.438 10.309 5.946 19.084 7.201 0 0 3.363.463 6.566.463 25.816 0 46.745-20.928 46.745-46.745v-57.011c0-13.507-10.95-24.456-24.457-24.456z" fill="#c88556"/><path d="m155.877 275.768c0-13.507-10.949-24.456-24.456-24.456h-44.578c-13.507 0-24.456 10.949-24.456 24.456v36.732c8.619 1.31 24.349 2.438 42.063-3.896 7.52-2.69 13.692-6.114 18.517-9.346 1.349-.904 3.173-.559 4.101.774 2.011 2.891 5.642 7.021 11.495 9.847 7.691 3.714 14.726 3.009 17.314 2.621z" fill="#365e7d"/><path d="m131.42 251.312h-30c13.507 0 24.456 10.949 24.456 24.456v23.275c.462.215.879.54 1.191.988 2.011 2.891 5.642 7.021 11.495 9.847 7.691 3.714 14.726 3.009 17.314 2.621v-36.731c.001-13.507-10.949-24.456-24.456-24.456z" fill="#2b4d66"/></g></g></g></g><g><g><g><path d="m308.744 7.5h162.214c18.525 0 33.542 15.017 33.542 33.542v86.091c0 18.525-15.017 33.542-33.542 33.542h-41.318c-2.076 0-4.066.825-5.534 2.292l-32.373 32.373c-2.817 2.817-7.635.822-7.635-3.162v-23.677c0-4.322-3.504-7.826-7.826-7.826h-67.527c-18.525 0-33.542-15.017-33.542-33.542v-86.091c-.001-18.525 15.016-33.542 33.541-33.542z" fill="#bfe69f"/></g></g></g><g><path d="m470.958 7.5h-30c18.525 0 33.542 15.017 33.542 33.542v86.091c0 18.525-15.017 33.542-33.542 33.542h30c18.525 0 33.542-15.017 33.542-33.542v-86.091c0-18.525-15.017-33.542-33.542-33.542z" fill="#a4d9a6"/></g><path d="m394.766 46.917 9.025 18.286c.798 1.618 2.342 2.739 4.127 2.998l20.179 2.932c4.496.653 6.291 6.178 3.038 9.349l-14.602 14.233c-1.292 1.259-1.881 3.073-1.576 4.852l3.447 20.098c.768 4.478-3.932 7.892-7.953 5.778l-18.049-9.489c-1.597-.839-3.504-.839-5.101 0l-18.049 9.489c-4.021 2.114-8.721-1.301-7.953-5.778l3.447-20.098c.305-1.778-.285-3.592-1.576-4.852l-14.602-14.233c-3.253-3.171-1.458-8.696 3.038-9.349l20.179-2.932c1.785-.259 3.329-1.381 4.127-2.998l9.025-18.286c2.009-4.074 7.819-4.074 9.829 0z" fill="#f7e07f"/><g><path d="m431.135 80.482c3.253-3.171 1.458-8.696-3.038-9.349l-20.18-2.932c-1.785-.259-3.329-1.381-4.127-2.998l-9.025-18.286c-2.011-4.074-7.82-4.074-9.83 0l-9.025 18.286c-.272.551-.636 1.038-1.06 1.46.823.816 1.889 1.368 3.067 1.539l7.057 1.025c9.864 1.433 13.802 13.555 6.665 20.512-4.489 4.375-6.537 10.679-5.477 16.857l1.572 9.164c1.501-.63 3.212-.57 4.668.195l18.049 9.489c4.021 2.114 8.721-1.301 7.953-5.778l-3.447-20.098c-.305-1.778.285-3.592 1.576-4.852z" fill="#f0d16f"/></g><g><g><g><path d="m203.256 7.5h-162.214c-18.525 0-33.542 15.017-33.542 33.542v86.091c0 18.525 15.017 33.542 33.542 33.542h41.318c2.076 0 4.066.825 5.534 2.292l32.373 32.373c2.817 2.817 7.635.822 7.635-3.162v-23.677c0-4.322 3.504-7.826 7.826-7.826h67.527c18.525 0 33.542-15.017 33.542-33.542v-86.091c.001-18.525-15.016-33.542-33.541-33.542z" fill="#f7e07f"/></g></g></g><g><path d="m203.256 7.5h-30c18.525 0 33.542 15.017 33.542 33.542v86.091c0 18.525-15.017 33.542-33.542 33.542h30c18.525 0 33.542-15.017 33.542-33.542v-86.091c0-18.525-15.017-33.542-33.542-33.542z" fill="#f0d16f"/></g><path d="m120.212 56.689-1.17-2.029c-8.626-14.963-29.101-17.666-41.314-5.453-10.254 10.254-10.254 26.879 0 37.133l37.423 37.423c3.865 3.865 10.132 3.865 13.997 0l37.422-37.423c10.254-10.254 10.254-26.879 0-37.133-12.213-12.213-32.688-9.511-41.314 5.453l-1.17 2.029c-.86 1.492-3.014 1.492-3.874 0z" fill="#dd8793"/><g><path d="m166.57 49.207c-9.356-9.356-23.555-9.949-33.567-2.993 1.248.873 2.443 1.869 3.567 2.993 10.254 10.254 10.254 26.879 0 37.133l-29.422 29.421 8.001 8.001c3.865 3.865 10.132 3.865 13.997 0l37.424-37.422c10.254-10.254 10.254-26.879 0-37.133z" fill="#d5707e"/></g></g><path d="m171.677 405.341-20.636-8.122c-5.322-2.09-8.761-7.138-8.761-12.859v-8.687c12.82-9.931 21.097-25.459 21.097-42.894v-57.01c0-17.621-14.335-31.957-31.957-31.957h-44.577c-17.621 0-31.956 14.335-31.956 31.957v57.01c0 17.432 8.275 32.96 21.093 42.891v8.69c0 5.725-3.438 10.771-8.767 12.861l-20.625 8.118c-19.189 7.538-31.588 25.737-31.588 46.361v52.8c0 4.142 3.358 7.5 7.5 7.5s7.5-3.358 7.5-7.5v-52.8c0-14.415 8.664-27.132 22.077-32.401l18.866-7.425c10.152 9.99 23.776 15.626 38.189 15.626s28.036-5.636 38.188-15.625l18.868 7.426c13.408 5.268 22.072 17.985 22.072 32.4v52.8c0 4.142 3.358 7.5 7.5 7.5s7.5-3.358 7.5-7.5v-52.8c0-20.626-12.399-38.824-31.583-46.36zm-101.79-129.572c0-9.35 7.606-16.957 16.956-16.957h44.577c9.35 0 16.957 7.606 16.957 16.957v29.332c-2.012-.279-4.253-.865-6.553-1.975-4.317-2.085-7.059-5.162-8.601-7.378-3.243-4.661-9.718-5.88-14.431-2.721-5.276 3.534-10.951 6.399-16.868 8.515-10.091 3.608-21.052 5.044-32.038 4.248v-30.021zm39.245 136.731c-9.345 0-18.227-3.279-25.267-9.154 4.613-5.221 7.21-12.143 7.116-19.457 5.679 2.023 11.787 3.134 18.152 3.134 6.363 0 12.47-1.111 18.148-3.133-.173 7.267 2.563 14.268 7.118 19.456-7.041 5.875-15.923 9.154-25.267 9.154zm0-40.476c-21.64 0-39.245-17.605-39.245-39.245v-11.963c1.953.119 3.906.195 5.855.195 10.719 0 21.318-1.799 31.234-5.345 5.773-2.065 11.35-4.723 16.629-7.923 2.693 3.048 6.512 6.387 11.695 8.89 4.677 2.258 9.205 3.222 13.076 3.542v12.604c.001 21.639-17.605 39.245-39.244 39.245zm94.124-372.024h-162.214c-22.631 0-41.042 18.411-41.042 41.042v86.091c0 22.631 18.411 41.042 41.042 41.042h41.318c.086 0 .17.035.231.096l32.373 32.373c3.455 3.456 8.6 4.437 13.047 2.595 4.49-1.859 7.391-6.201 7.391-11.061v-23.677c0-.18.146-.327.327-.327h67.527c22.631 0 41.042-18.411 41.042-41.042v-28.151c0-4.142-3.358-7.5-7.5-7.5s-7.5 3.358-7.5 7.5v28.152c0 14.359-11.683 26.042-26.042 26.042h-67.527c-8.451 0-15.327 6.875-15.327 15.327v16.367l-27.205-27.205c-2.895-2.895-6.744-4.489-10.837-4.489h-41.318c-14.359 0-26.042-11.682-26.042-26.042v-86.091c0-14.359 11.683-26.042 26.042-26.042h162.214c14.359 0 26.042 11.683 26.042 26.042v22.939c0 4.142 3.358 7.5 7.5 7.5s7.5-3.358 7.5-7.5v-22.939c0-22.631-18.411-41.042-41.042-41.042zm-52.492 465.003c-4.142 0-7.5 3.358-7.5 7.5v31.997c0 4.142 3.358 7.5 7.5 7.5s7.5-3.358 7.5-7.5v-31.997c0-4.142-3.358-7.5-7.5-7.5zm-83.264 0c-4.142 0-7.5 3.358-7.5 7.5v31.997c0 4.142 3.358 7.5 7.5 7.5s7.5-3.358 7.5-7.5v-31.997c0-4.142-3.358-7.5-7.5-7.5zm401.046-59.662-20.635-8.122c-5.322-2.09-8.761-7.138-8.761-12.859v-8.689c12.819-9.931 21.095-25.459 21.095-42.892v-57.01c0-17.621-14.335-31.957-31.957-31.957h-44.577c-17.621 0-31.957 14.335-31.957 31.957v57.01c0 17.433 8.276 32.962 21.095 42.892v8.689c0 5.722-3.439 10.77-8.767 12.861l-20.625 8.118c-19.189 7.538-31.588 25.736-31.588 46.361v52.8c0 4.142 3.358 7.5 7.5 7.5s7.5-3.358 7.5-7.5v-52.8c0-14.415 8.664-27.132 22.077-32.401l18.864-7.425c10.152 9.99 23.776 15.626 38.189 15.626s28.036-5.636 38.189-15.626l18.869 7.427c4.557 1.978 10.218 3.982 13.205-1.865 3.196-6.256-2.652-10.262-7.716-12.095zm-101.791-129.572c0-9.35 7.606-16.957 16.957-16.957h44.577c9.35 0 16.957 7.606 16.957 16.957v29.332c-2.012-.279-4.253-.865-6.553-1.975-4.316-2.085-7.059-5.163-8.6-7.377-3.243-4.662-9.718-5.881-14.431-2.722-5.276 3.534-10.951 6.399-16.868 8.515-10.091 3.608-21.052 5.044-32.038 4.248v-30.021zm39.245 136.731c-9.345 0-18.228-3.279-25.268-9.154 4.614-5.22 7.213-12.144 7.118-19.456 5.678 2.023 11.786 3.134 18.15 3.134s12.471-1.111 18.15-3.134c-.175 7.266 2.563 14.269 7.118 19.456-7.041 5.875-15.923 9.154-25.268 9.154zm0-40.476c-21.64 0-39.245-17.605-39.245-39.245v-11.963c1.953.119 3.906.195 5.855.195 10.719 0 21.318-1.799 31.234-5.345 5.773-2.065 11.35-4.723 16.629-7.923 2.693 3.048 6.512 6.387 11.695 8.89 4.677 2.258 9.205 3.222 13.076 3.542v12.604c.001 21.639-17.604 39.245-39.244 39.245zm23.176-308.313-19.13-2.78-8.554-17.333c-2.203-4.464-6.663-7.237-11.641-7.237s-9.438 2.773-11.641 7.236l-8.554 17.333-19.129 2.78c-4.926.715-8.941 4.101-10.48 8.834-1.538 4.734-.28 9.833 3.285 13.308l13.842 13.492-3.268 19.053c-.841 4.905 1.138 9.771 5.165 12.696s9.265 3.304 13.671.988l17.109-8.995 17.11 8.996c4.39 2.309 9.631 1.946 13.67-.989 4.027-2.926 6.005-7.791 5.164-12.696l-3.268-19.052 13.842-13.493c3.564-3.475 4.823-8.574 3.285-13.308-1.538-4.732-5.553-8.118-10.478-8.833zm-17.879 25.635c-3.06 2.983-4.455 7.278-3.732 11.489l2.755 16.066-14.429-7.586c-3.782-1.988-8.298-1.987-12.081.001l-14.428 7.585 2.756-16.065c.723-4.211-.673-8.507-3.733-11.491l-11.672-11.378 16.131-2.344c4.228-.614 7.882-3.268 9.774-7.101l7.214-14.617 7.214 14.617c1.891 3.832 5.545 6.487 9.774 7.101l16.131 2.345zm78.232 344.765c-4.018 1.009-6.456 5.084-5.447 9.101.695 2.768 1.048 5.624 1.048 8.488v52.8c0 4.142 3.358 7.5 7.5 7.5s7.5-3.358 7.5-7.5v-52.8c0-4.095-.505-8.18-1.5-12.142-1.009-4.017-5.081-6.459-9.101-5.447zm-18.571-434.111h-162.214c-22.631 0-41.042 18.411-41.042 41.042v86.091c0 22.631 18.411 41.042 41.042 41.042h67.527c.18 0 .327.146.327.327v23.677c0 4.859 2.901 9.201 7.391 11.061 4.442 1.839 9.594.86 13.047-2.595l32.373-32.373c.061-.061.145-.096.231-.096h41.318c22.631 0 41.042-18.411 41.042-41.042v-86.092c0-22.631-18.411-41.042-41.042-41.042zm26.042 127.133c0 14.359-11.683 26.042-26.042 26.042h-41.318c-4.094 0-7.942 1.594-10.837 4.489l-27.205 27.205v-16.367c0-8.451-6.875-15.327-15.327-15.327h-67.527c-14.359 0-26.042-11.683-26.042-26.042v-86.091c0-14.359 11.683-26.042 26.042-26.042h162.214c14.359 0 26.042 11.683 26.042 26.042zm-353.413-92.826c-8.507 1.123-16.065 5.313-21.438 11.746-5.373-6.432-12.931-10.623-21.438-11.746-10.489-1.383-20.803 2.113-28.287 9.597-13.162 13.162-13.162 34.578 0 47.739l37.423 37.423c3.392 3.392 7.847 5.087 12.302 5.087s8.91-1.696 12.302-5.087l37.423-37.423c13.162-13.162 13.162-34.578 0-47.739-7.484-7.484-17.793-10.985-28.287-9.597zm17.68 20.203c7.313 7.313 7.313 19.213 0 26.526l-37.423 37.423c-.935.935-2.456.935-3.391 0l-37.422-37.422c-7.313-7.313-7.313-19.213 0-26.527 3.561-3.561 8.273-5.498 13.214-5.498 6.695 0 12.934 3.556 16.299 9.394 2.291 3.975 4.901 6.902 9.604 6.902 4.186 0 7.512-3.272 9.605-6.903 2.937-5.095 7.965-8.458 13.796-9.228 5.833-.769 11.56 1.175 15.718 5.333zm203.101 410.493c-4.142 0-7.5 3.358-7.5 7.5v31.997c0 4.142 3.358 7.5 7.5 7.5s7.5-3.358 7.5-7.5v-31.997c0-4.142-3.358-7.5-7.5-7.5zm83.264 0c-4.142 0-7.5 3.358-7.5 7.5v31.997c0 4.142 3.358 7.5 7.5 7.5s7.5-3.358 7.5-7.5v-31.997c0-4.142-3.358-7.5-7.5-7.5z"/></g></svg>