<svg id="Layer_1" enable-background="new 0 0 512 512" height="512" viewBox="0 0 512 512" width="512" xmlns="http://www.w3.org/2000/svg"><g><path d="m102.358 30c-4.142 0-7.5 3.358-7.5 7.5s3.358 7.5 7.5 7.5 7.5-3.358 7.5-7.5-3.358-7.5-7.5-7.5zm143.949 245.695c2.782 0 5.472-1.162 7.38-3.188 1.9-2.018 2.895-4.757 2.73-7.518-1.627-27.179-23.351-48.901-50.528-50.528-2.763-.168-5.501.828-7.519 2.729-2.026 1.908-3.188 4.598-3.188 7.38v41.003c0 5.581 4.541 10.122 10.122 10.122zm-36.125-45.599c15.426 3.032 27.567 15.174 30.6 30.6h-30.6zm-137.824-200.096c-4.142 0-7.5 3.358-7.5 7.5s3.358 7.5 7.5 7.5 7.5-3.358 7.5-7.5-3.358-7.5-7.5-7.5zm-30 0c-4.142 0-7.5 3.358-7.5 7.5s3.358 7.5 7.5 7.5 7.5-3.358 7.5-7.5-3.358-7.5-7.5-7.5zm462.142 92.181c4.142 0 7.5-3.357 7.5-7.5v-77.181c0-20.678-16.822-37.5-37.5-37.5h-437c-20.678 0-37.5 16.822-37.5 37.5v437c0 20.678 16.822 37.5 37.5 37.5h437c20.678 0 37.5-16.822 37.5-37.5v-324.819c0-4.143-3.358-7.5-7.5-7.5s-7.5 3.357-7.5 7.5v324.819c0 12.406-10.093 22.5-22.5 22.5h-437c-12.407 0-22.5-10.094-22.5-22.5v-399.5h482v39.681c0 4.142 3.358 7.5 7.5 7.5zm-489.5-62.181v-22.5c0-12.406 10.093-22.5 22.5-22.5h437c12.407 0 22.5 10.094 22.5 22.5v22.5zm279.751 183.843h86.168c4.142 0 7.5-3.357 7.5-7.5s-3.358-7.5-7.5-7.5h-86.168c-4.142 0-7.5 3.357-7.5 7.5s3.358 7.5 7.5 7.5zm0 90h86.168c4.142 0 7.5-3.357 7.5-7.5s-3.358-7.5-7.5-7.5h-86.168c-4.142 0-7.5 3.357-7.5 7.5s3.358 7.5 7.5 7.5zm0-45h86.168c4.142 0 7.5-3.357 7.5-7.5s-3.358-7.5-7.5-7.5h-86.168c-4.142 0-7.5 3.357-7.5 7.5s3.358 7.5 7.5 7.5zm124.168 107.062c7.995 0 14.5-6.505 14.5-14.5v-199.626h.5c7.995 0 14.5-6.505 14.5-14.5v-28.104c0-7.995-6.505-14.5-14.5-14.5h-355.838c-7.995 0-14.5 6.505-14.5 14.5v28.104c0 7.995 6.505 14.5 14.5 14.5h.5v199.626c0 7.995 6.505 14.5 14.5 14.5h45.033c4.142 0 7.5-3.357 7.5-7.5s-3.358-7.5-7.5-7.5h-44.533v-199.126h324.838v199.126h-245.305c-4.142 0-7.5 3.357-7.5 7.5s3.358 7.5 7.5 7.5h75.386v19.272c-10.945 3.242-18.956 13.384-18.956 25.367 0 14.588 11.868 26.456 26.456 26.456s26.456-11.868 26.456-26.456c0-11.983-8.011-22.125-18.956-25.367v-19.272zm-340.338-229.126v-27.104h354.838v27.104zm188.875 273.765c0 6.316-5.139 11.456-11.456 11.456s-11.456-5.14-11.456-11.456 5.139-11.456 11.456-11.456 11.456 5.14 11.456 11.456zm-86.678-197.134c-2.02-1.902-4.772-2.896-7.53-2.732-14.253.856-27.868 7.596-37.354 18.489-9.572 10.993-14.223 25.007-13.095 39.462 2.041 26.149 23.299 47.407 49.449 49.448 14.333 1.119 28.462-3.519 39.46-13.095 10.894-9.485 17.634-23.101 18.49-37.354.167-2.765-.829-5.509-2.731-7.528-1.908-2.026-4.598-3.188-7.38-3.188h-36.123v-36.123c.001-2.781-1.16-5.471-3.186-7.379zm33.771 58.502c-1.683 8.332-6.151 16.064-12.69 21.758-7.934 6.909-18.038 10.265-28.443 9.452-18.858-1.472-34.189-16.803-35.662-35.661-.812-10.409 2.545-20.511 9.453-28.443 5.694-6.539 13.427-11.007 21.758-12.689v35.462c0 5.581 4.541 10.122 10.122 10.122h35.462z"/></g></svg>