<?xml version="1.0" standalone="no"?><svg xmlns="http://www.w3.org/2000/svg" viewBox="0 0 1440 320"><path fill="#27abb7" fill-opacity="1" d="M0,288L30,293.3C60,299,120,309,180,298.7C240,288,300,256,360,213.3C420,171,480,117,540,112C600,107,660,149,720,149.3C780,149,840,107,900,128C960,149,1020,235,1080,229.3C1140,224,1200,128,1260,112C1320,96,1380,160,1410,192L1440,224L1440,0L1410,0C1380,0,1320,0,1260,0C1200,0,1140,0,1080,0C1020,0,960,0,900,0C840,0,780,0,720,0C660,0,600,0,540,0C480,0,420,0,360,0C300,0,240,0,180,0C120,0,60,0,30,0L0,0Z"></path></svg>